<?xml version="1.0" standalone="no"?>
<!DOCTYPE svg PUBLIC "-//W3C//DTD SVG 1.1//EN" "../../www.w3.org/Graphics/SVG/1.1/DTD/svg11.dtd" >
<svg xmlns="http://www.w3.org/2000/svg">
<metadata></metadata>
<defs>
<font id="monitoricaregular" horiz-adv-x="876" >
<font-face units-per-em="2048" ascent="1536" descent="-512" />
<missing-glyph horiz-adv-x="409" />
<glyph unicode="&#xfb01;" horiz-adv-x="927" d="M266 932l-41 82h336v-82h-295zM215 1178v-1178h-92v1178q0 144 83.5 235.5t237.5 91.5h138v-84h-138q-65 0 -111.5 -20t-71 -55.5t-35.5 -76.5t-11 -91zM694 0v1024h92v-1024h-92zM694 1249v144h92v-144h-92z" />
<glyph unicode="&#xfb02;" horiz-adv-x="927" d="M225 1014l41 -82h295v82h-336zM215 0v1178q0 50 11 91t35.5 76.5t71 55.5t111.5 20h138v84h-138q-154 0 -237.5 -91.5t-83.5 -235.5v-1178h92zM694 1520l92 16v-1536h-92v1520z" />
<glyph horiz-adv-x="0" />
<glyph horiz-adv-x="682" />
<glyph unicode=" "  horiz-adv-x="409" />
<glyph unicode="&#x09;" horiz-adv-x="409" />
<glyph unicode="&#xa0;" horiz-adv-x="409" />
<glyph unicode="!" horiz-adv-x="401" d="M139 1434h123l-31 -1024h-61zM150 195h102v-195h-102v195z" />
<glyph unicode="&#x22;" horiz-adv-x="561" d="M137 1434h103l-31 -410h-41zM322 1434h102l-31 -410h-41z" />
<glyph unicode="#" horiz-adv-x="1196" d="M754 0h-92l59 424h-318l-59 -424h-92l59 424h-221l14 92h220l45 318h-222l15 92h221l59 426h93l-60 -426h318l59 426h92l-59 -426h219l-14 -92h-220l-45 -318h222l-15 -92h-219zM733 516l45 318h-317l-45 -318h317z" />
<glyph unicode="$" horiz-adv-x="907" d="M805 387q0 -159 -81.5 -248t-234.5 -98v-143h-81v143h-287v94h287v541q-45 14 -76 26.5t-69.5 32.5t-64 46.5t-48.5 62.5t-34.5 86t-11.5 112q0 159 77.5 248t226.5 101v145h81v-143h271v-95h-271v-540q57 -18 97.5 -35.5t84.5 -47.5t71.5 -67t45 -93.5t17.5 -127.5z M702 383q0 52 -12 93.5t-30 68t-48 48t-57 33.5t-66 25v-516q213 18 213 248zM207 1047q0 -64 14.5 -109.5t44.5 -75t62 -46.5t80 -34v514q-201 -21 -201 -249z" />
<glyph unicode="%" horiz-adv-x="1171" d="M809 565q111 0 172 -81t61 -201v-21q0 -120 -62 -201t-171 -81q-110 0 -172 81t-62 201v21q0 120 61.5 201t172.5 81zM362 868q-111 0 -172 81t-61 202v20q0 120 62 201.5t171 81.5q110 0 172 -81.5t62 -201.5v-20q0 -120 -61.5 -201.5t-172.5 -81.5zM362 961 q67 0 102.5 54.5t35.5 135.5v20q0 81 -35.5 136t-102.5 55q-68 0 -102.5 -52.5t-34.5 -138.5v-20q0 -86 34.5 -138t102.5 -52zM809 473q-67 0 -102 -54.5t-35 -135.5v-21q0 -81 35 -135.5t102 -54.5q68 0 102.5 52t34.5 138v21q0 86 -34.5 138t-102.5 52zM266 0h-108 l747 1434h109z" />
<glyph unicode="&#x26;" horiz-adv-x="1148" d="M760 1339h-258q-79 0 -121.5 -44.5t-42.5 -116.5v-41q0 -47 8 -90.5t27.5 -85.5t30 -62.5t36.5 -60.5t27 -016B73BA46" />
<glyph unicode="'" horiz-adv-x="376" d="M137 1434h103l-31 -410h-41z" />
<glyph unicode="(" horiz-adv-x="548" d="M131 61v1106q0 102 38.5 184t119 133.5t190.5 51.5v-98q-68 0 -117.5 -22t-76.5 -61t-39.5 -85.5t-12.5 -10C2EC9EA62" />
<glyph unicode=")" horiz-adv-x="548" d="M418 1167v-1106q0 -101 -39 -183.5t-119 -133.5t-190 -51v98q68 0 117 22t76 61t39.5 85t12.5 102v1106q0 56 -12.5 102.5t-39.5 85.5t-76 61t-117 22v98q110 0 190.5 -51.5t119 -133.5t38.5 -184z" />
<glyph unicode="*" horiz-adv-x="866" d="M676 834l-66 -54l-178 238l-178 -238l-66 54l172 231l-272 90l29 80l270 -88v287h90v-287l273 88l28 -80l-276 -90z" />
<glyph unicode="+" horiz-adv-x="1204" d="M139 670v94h410v414h102v-414h410v-94h-410v-414h-102v414h-410z" />
<glyph unicode="," horiz-adv-x="423" d="M209 0h-66v129h133v-129q0 -75 -32 -121.5t-92 -46.5h-9v59h9q57 0 57 109z" />
<glyph unicode="-" horiz-adv-x="677" d="M528 469h-378v88h378v-88z" />
<glyph unicode="." horiz-adv-x="423" d="M276 0h-133v129h133v-129z" />
<glyph unicode="../default.htm" horiz-adv-x="1085" d="M827 1536h107l-678 -1843h-106z" />
<glyph unicode="0" horiz-adv-x="917" d="M129 307v819q0 135 87 226.5t241 91.5t240.5 -91t86.5 -227v-819q0 -135 -86.5 -226t-240.5 -91t-241 91t-07BD9A1A40" />
<glyph unicode="1" horiz-adv-x="684" d="M434 0h-102v1356h-226v78h328v-1434z" />
<glyph unicode="2" horiz-adv-x="888" d="M129 1434h307q155 0 237.5 -82t82.5 -275q0 -83 -15 -149t-50 -126t-74.5 -106.5t-106.5 -113.5q-147 -147 -213 -250.5t-82 -237.5h561v-94h-665q0 87 14 159t36 129t68 120t91.5 113.5t123.5 129.5q116 117 162.5 206t46.5 218q0 149 -55.5 206.5t-161.5 57.5h-307v95z " />
<glyph unicode="3" horiz-adv-x="897" d="M156 94h307q101 0 158 60.5t57 152.5v133q0 41 -14.5 79.5t-44 73.5t-83.5 56t-124 21h-72l-41 94h113q64 0 113.5 21t77 55.5t41 73t13.5 79.5v133q0 92 -57 152.5t-158 60.5h-307v95h307q149 0 233.5 -88t84.5 -220v-133q0 -99 -52 -173t-163 -103 q122 -26 178.5 -100.5t56.5 -176.5v-133q0 -132 -84 -219.5t-233 -87.5h-307v94z" />
<glyph unicode="4" horiz-adv-x="919" d="M557 508l41 -94h-547v94l301 926h101l-301 -926h405zM707 0h-103v999l103 19v-510h161v-94h-161v-414z" />
<glyph unicode="5" d="M668 307v266q0 86 -54 139.5t-170 53.5h-157l-41 94h207q161 0 239 -79.5t78 -207.5v-266q0 -130 -87.5 -218.5t-242.5 -88.5h-307v94h307q106 0 167 62t61 151zM236 766h-103v668h596v-95h-493v-573z" />
<glyph unicode="6" horiz-adv-x="886" d="M227 860h226q161 0 239 -79.5t78 -207.5v-276q0 -132 -87 -219.5t-241 -87.5t-240.5 87.5t-86.5 219.5v829q0 131 87 219.5t240 88.5h287v-95h-287q-106 0 -165.5 -61t-59.5 -152v-829q0 -92 59.5 -152.5t165.5 -60.5q105 0 165.5 61t60.5 152v276q0 86 -54 139.5 t-170 53.5h-176z" />
<glyph unicode="7" horiz-adv-x="829" d="M96 1339v95h635v-95q-352 -585 -352 -1339h-103q0 749 342 1339h-522z" />
<glyph unicode="8" horiz-adv-x="884" d="M100 287v174q0 87 43.5 157t139.5 103q-84 32 -123 98.5t-39 153.5v174q0 124 85.5 210.5t235.5 86.5t236 -86.5t86 -210.5v-174q0 -87 -41.5 -154.5t-126.5 -99.5q95 -32 141.5 -102.5t46.5 -155.5v-174q0 -127 -91 -212t-251 -85t-251 85t-91 212zM203 461v-174 q0 -90 55.5 -146.5t183.5 -56.5t184 56.5t56 146.5v174q0 88 -59.5 149.5t-180.5 61.5q-66 0 -114.5 -18t-74.5 -49t-38 -66.5t-12 -77.5zM662 973v174q0 84 -59.5 143.5t-160.5 59.5t-160 -59.5t-59 -143.5v-174q0 -90 53.5 -148.5t165.5 -58.5q111 0 165.5 59t54.5 148z " />
<glyph unicode="9" horiz-adv-x="886" d="M657 563h-225q-161 0 -239 79.5t-78 207.5v276q0 132 86.5 220t240.5 88t241 -88t87 -220v-829q0 -131 -87 -219t-241 -88h-286v94h286q106 0 166 61t60 152v829q0 92 -60 152.5t-166 60.5q-105 0 -165 -61t-60 -152v-276q0 -87 53.5 -140t169.5 -53h176z" />
<glyph unicode=":" horiz-adv-x="423" d="M276 0h-133v129h133v-129zM276 614h-133v129h133v-129z" />
<glyph unicode=";" horiz-adv-x="423" d="M209 0h-66v129h133v-129q0 -75 -32 -121.5t-92 -46.5h-9v59h9q57 0 57 109zM276 614h-133v129h133v-129z" />
<glyph unicode="&#x3c;" horiz-adv-x="1021" d="M137 680v72l750 356v-102l-205 -97q-70 -33 -149 -64.5t-179 -68.5t-151 -57v-4q53 -21 151.5 -57t178.5 -67.5t149 -64.5l205 -96v-102z" />
<glyph unicode="=" horiz-adv-x="1013" d="M209 510v86h594v-86h-594zM209 838v86h594v-86h-594z" />
<glyph unicode="&#x3e;" horiz-adv-x="1026" d="M887 752v-72l-750 -352v102l205 96q69 33 149 64.5t178.5 67.5t151.5 57v4q-51 20 -151 57t-179 68.5t-149 64.5l-205 97v102z" />
<glyph unicode="?" horiz-adv-x="888" d="M655 1085q0 139 -53.5 194.5t-161.5 55.5h-327v99h329q157 0 236.5 -83t79.5 -276q0 -43 -7.5 -79t-17.5 -61.5t-32 -56.5t-40 -51.5t-53.5 -59.5t-60.5 -69q-62 -90 -78 -143t-16 -145h-103q0 113 18 171.5t93 168.5q19 21 52 56.5t48.5 53t37.5 47t31.5 52.5t17 56 t7.5 70zM350 195h103v-195h-103v195z" />
<glyph unicode="@" horiz-adv-x="1613" d="M807 -270v-88q-320 0 -487.5 174.5t-167.5 511.5v368q0 337 167.5 511.5t487.5 174.5t487.5 -174.5t167.5 0F62DEEAEB" />
<glyph unicode="A" horiz-adv-x="1005" d="M842 0l-105 381h-395l-41 94h410l-142 522q-18 66 -38.5 191t-26.5 153h-4q-5 -23 -26.5 -150.5t-39.5 -193.5l-272 -997h-105l394 1434h102l393 -1434h-104z" />
<glyph unicode="B" horiz-adv-x="950" d="M313 764h123q124 0 195 65.5t71 163.5v113q0 100 -65 166.5t-180 66.5h-307v95h307q163 0 255.5 -94t92.5 -234v-113q0 -95 -56.5 -168t-162.5 -106q114 -29 176.5 -104.5t62.5 -174.5v-112q0 -140 -92.5 -234t-255.5 -94h-174l-41 94h215q115 0 180.5 67t65.5 167v112 q0 98 -71 164t-195 66h-103zM150 0v1288l102 41v-1329h-102z" />
<glyph unicode="C" horiz-adv-x="847" d="M131 1016v-649q0 -176 89 -271.5t257 -95.5h309v94h-307q-246 0 -246 273v690zM233 1067h-102q0 176 89 271.5t257 95.5h309v-95h-307q-246 0 -246 -272z" />
<glyph unicode="D" horiz-adv-x="968" d="M303 0l-41 94h225q115 0 180.5 73t65.5 181v737q0 108 -65.5 181t-180.5 73h-235v-1339h-102v1434h337q162 0 255.5 -100.5t93.5 -248.5v-737q0 -96 -39.5 -174t-120 -126t-189.5 -48h-184z" />
<glyph unicode="E" horiz-adv-x="884" d="M303 670l-41 94h420v-94h-379zM784 0h-288q-168 0 -257 95.5t-89 271.5v1067h634v-95h-532v-972q0 -273 246 -273h286v-94z" />
<glyph unicode="F" horiz-adv-x="868" d="M252 1339v-1339h-102v1434h634v-95h-532zM303 670l-41 94h420v-94h-379z" />
<glyph unicode="G" horiz-adv-x="931" d="M233 1067v-700q0 -273 246 -273h215l41 -94h-258q-168 0 -257 95.5t-89 271.5v700q0 176 89 271.5t257 95.5h309v-95h-307q-246 0 -246 -272zM848 764v-764h-103v670h-215l-41 94h359z" />
<glyph unicode="H" horiz-adv-x="1015" d="M303 668l-41 98h502v668h102v-1434h-102v668h-461zM252 1434v-1434h-102v1434h102z" />
<glyph unicode="I" horiz-adv-x="401" d="M150 1434h102v-1434h-102v1434z" />
<glyph unicode="J" horiz-adv-x="630" d="M397 367v1067h103v-1067q0 -176 -89 -271.5t-257 -95.5h-105v94h103q245 0 245 273z" />
<glyph unicode="K" horiz-adv-x="935" d="M303 670l-41 94h92l396 670h110l-411 -699l432 -735h-111l-395 670h-72zM150 1434h102v-1434h-102v1434z" />
<glyph unicode="L" horiz-adv-x="827" d="M150 1434h102v-1340h532v-94h-634v1434z" />
<glyph unicode="M" horiz-adv-x="1202" d="M696 745l191 689h164v-1434h-103v776q0 95 10 565h-4q-83 -340 -94 -380l-209 -760h-102l-209 760q-11 40 0BA5CF5A68" />
<glyph unicode="N" horiz-adv-x="1038" d="M743 0l-372 961l-135 380h-5q1 -47 11 -251t10 -314v-776h-102v1434h143l373 -961l135 -381h4q-1 47 -11 251t-10 314v777h103v-1434h-144z" />
<glyph unicode="O" horiz-adv-x="1019" d="M786 1016l103 41v-690q0 -181 -89 -279t-257 -98h-66q-168 0 -257 98t-89 279v700q0 181 89 279t257 98h66q167 0 256.5 -98t89.5 -279h-103q0 283 -245 283h-62q-246 0 -246 -283v-700q0 -283 246 -283h62q120 0 182.5 71t62.5 212v649z" />
<glyph unicode="P" horiz-adv-x="897" d="M303 543l-41 94h195q115 0 180 73t65 181v194q0 108 -65 181t-180 73h-205v-1339h-102v1434h307q162 0 255 -100.5t93 -248.5v-194q0 -148 -93 -248t-255 -100h-154z" />
<glyph unicode="Q" horiz-adv-x="1019" d="M561 -307h-102v297q-159 6 -243.5 104t-84.5 273v700q0 181 89 279t257 98h66q167 0 256.5 -98t89.5 -279v-700q0 -175 -84.5 -273t-243.5 -104v-297zM541 1350h-62q-246 0 -246 -283v-700q0 -271 226 -283v242l102 41v-283q110 6 167.5 77t57.5 206v700q0 283 -245 283z " />
<glyph unicode="R" horiz-adv-x="913" d="M313 543l-41 94h185q115 0 180 73t65 181v194q0 108 -65 181t-180 73h-307v95h307q162 0 255 -100.5t93 -248.5v-194q0 -112 -54 -199.5t-153 -124.5l211 -567h-109l-211 543h-176zM150 1286v-1286h102v1327z" />
<glyph unicode="S" horiz-adv-x="907" d="M805 367q0 -176 -90.5 -271.5t-259.5 -95.5h-334v94h334q247 0 247 268q0 79 -18.5 132.5t-65 87.5t-75 470A0E502AA1" />
<glyph unicode="T" horiz-adv-x="815" d="M356 1292l103 41v-1333h-103v1292zM756 1339h-697v95h697v-95z" />
<glyph unicode="U" horiz-adv-x="980" d="M848 1434v-1127q0 -135 -95.5 -226t-263.5 -91t-263 91t-95 226v1127h102v-1127q0 -95 68 -159t188 -64t188 64t68 159v1127h103z" />
<glyph unicode="V" horiz-adv-x="1009" d="M571 436l273 998h104l-393 -1434h-102l-394 1434h105l272 -998q18 -66 39.5 -193.5t26.5 -150.5h4q6 28 26.5 153t38.5 191z" />
<glyph unicode="W" horiz-adv-x="1454" d="M662 899l-193 -899h-102l-308 1434h101l192 -897q13 -58 23.5 -121t23 -153t17.5 -122h4q6 37 17.5 123.5t22 150.5t23.5 122l193 897h102l193 -897q13 -58 23.5 -122t22 -150.5t17.5 -123.5h4q5 32 17.5 122t23 153t23.5 121l192 897h101l-308 -1434h-102l-192 899 q-13 58 -23.5 120.5t-23 153t-17.5 121.5h-4q-6 -37 -17.5 -123t-22 -150t-23.5 -122z" />
<glyph unicode="X" horiz-adv-x="942" d="M319 326l-157 -326h-103l359 737l-338 697h102l158 -322q27 -56 71.5 -163t55.5 -132h4q15 34 40 93.5t46.5 109t42.5 92.5l158 322h102l-340 -697l361 -737h-103l-160 326q-24 49 -48 105t-53.5 126.5t-45.5 106.5h-4q-132 -305 -148 -338z" />
<glyph unicode="Y" horiz-adv-x="919" d="M541 907l213 527h106l-350 -871v-563h-102v563l-349 871h109l209 -527q15 -35 28 -76.5t28 -91t24 -77.5h4q9 28 24 77.5t28 91t28 76.5z" />
<glyph unicode="Z" horiz-adv-x="788" d="M721 1354l-545 -1260h545v-94h-655v80l544 1259h-544v95h655v-80z" />
<glyph unicode="[" horiz-adv-x="690" d="M252 -418h287v-94h-389v2048h389v-94h-287v-1860z" />
<glyph unicode="\" horiz-adv-x="1091" d="M154 1536h106l678 -1843h-107z" />
<glyph unicode="]" horiz-adv-x="690" d="M150 -418h286v1860h-286v94h389v-2048h-389v94z" />
<glyph unicode="^" horiz-adv-x="956" d="M444 1536h72l352 -750h-102l-96 205q-40 77 -189 459h-4q-146 -375 -190 -459l-97 -205h-102z" />
<glyph unicode="_" horiz-adv-x="1062" d="M1053 -338h-1045v82h1045v-82z" />
<glyph unicode="`" horiz-adv-x="503" d="M334 1157l-246 277h143l185 -277h-82z" />
<glyph unicode="a" horiz-adv-x="860" d="M174 936v88h262q140 0 220.5 -82t80.5 -205v-737h-47l-37 125q-74 -135 -256 -135q-161 0 -228 71.5t-67 204.5q0 254 308 303l192 33l37 -84l-215 -39q-229 -38 -229 -215q0 -44 7.5 -74t29 -56t65 -39t109.5 -13q116 0 177.5 63t61.5 162v430q0 85 -56 142t-153 57 h-262z" />
<glyph unicode="b" horiz-adv-x="923" d="M141 1520l92 16v-1448h242q109 0 169.5 68.5t60.5 171.5v368q0 103 -60.5 171.5t-169.5 68.5h-190l-41 88h231q153 0 237.5 -93.5t84.5 -234.5v-368q0 -141 -84.5 -234.5t-237.5 -93.5h-334v1520z" />
<glyph unicode="c" horiz-adv-x="727" d="M444 88h222v-88h-222q-153 0 -237 87t-84 220v379l92 41v-420q0 -95 59.5 -157t169.5 -62zM444 936q-100 0 -160 -52.5t-69 -135.5h-92q9 121 92.5 198.5t228.5 77.5h222v-88h-222z" />
<glyph unicode="d" horiz-adv-x="919" d="M686 1520l92 16v-1536h-334q-153 0 -237 93.5t-84 234.5v368q0 141 84 234.5t237 93.5h191l41 -88h-232q-109 0 -169 -68t-60 -172v-368q0 -104 60 -172t169 -68h242v1432z" />
<glyph unicode="e" d="M727 0h-283q-154 0 -237.5 80.5t-83.5 206.5v471q0 120 83.5 198t237.5 78q147 0 230.5 -73.5t83.5 -182.5v-295h-492l-41 88h441v207q0 72 -59 120t-163 48q-109 0 -169 -53.5t-60 -134.5v-471q0 -87 59.5 -143t169.5 -56h283v-88z" />
<glyph unicode="f" horiz-adv-x="643" d="M266 932l-41 82h336v-82h-295zM215 1178v-1178h-92v1178q0 144 83.5 235.5t237.5 91.5h138v-84h-138q-65 0 -111.5 -20t-71 -55.5t-35.5 -76.5t-11 -91z" />
<glyph unicode="g" horiz-adv-x="921" d="M686 88v936h92v-1249q0 -126 -83.5 -206.5t-237.5 -80.5h-283v88h283q110 0 169.5 56t59.5 143v225h-242q-153 0 -237 93.5t-84 234.5v368q0 141 84 234.5t237 93.5h191l41 -88h-232q-109 0 -169 -68t-60 -172v-368q0 -104 60 -172t169 -68h242z" />
<glyph unicode="h" horiz-adv-x="923" d="M141 1520l92 16v-1536h-92v1520zM244 1024h237q135 0 215 -76.5t80 -189.5v-758h-92v758q0 79 -52 128.5t-167 49.5h-180z" />
<glyph unicode="i" horiz-adv-x="374" d="M141 0v1024h92v-1024h-92zM141 1249v144h92v-144h-92z" />
<glyph unicode="j" horiz-adv-x="354" d="M223 -471l-92 -41v1536h92v-1495zM131 1249v144h92v-144h-92z" />
<glyph unicode="k" horiz-adv-x="837" d="M141 1520l92 16v-1536h-92v1520zM754 1024l-344 -500l344 -524h-107l-315 483h-45l-41 88h88l313 453h107z" />
<glyph unicode="l" horiz-adv-x="374" d="M141 1520l92 16v-1536h-92v1520z" />
<glyph unicode="m" horiz-adv-x="1353" d="M141 936v88h781q135 0 215 -82.5t80 -204.5v-737h-93v737q0 88 -52 143.5t-167 55.5h-764zM633 889l92 41v-930h-92v889zM141 0v889l92 41v-930h-92z" />
<glyph unicode="n" horiz-adv-x="913" d="M141 936v88h340q135 0 215 -76.5t80 -189.5v-758h-92v758q0 79 -52 128.5t-167 49.5h-324zM141 0v889l92 41v-930h-92z" />
<glyph unicode="o" horiz-adv-x="903" d="M686 276v410l92 41v-451q0 -123 -86.5 -204.5t-240.5 -81.5t-241 81.5t-87 204.5v472q0 123 87 204.5t241 81.5t240.5 -81.5t86.5 -204.5h-92q0 86 -62 142t-173 56t-173.5 -56.5t-62.5 -141.5v-472q0 -85 62.5 -141.5t173.5 -56.5t173 56t62 142z" />
<glyph unicode="p" horiz-adv-x="921" d="M244 88h231q110 0 170 56.5t60 142.5v450q0 86 -60 142.5t-170 56.5h-242v-1448h-92v1536h334q154 0 238 -81.5t84 -205.5v-450q0 -124 -84 -205.5t-238 -81.5h-190z" />
<glyph unicode="q" horiz-adv-x="921" d="M686 88v936h92v-1536h-92v512h-242q-153 0 -237 81t-84 206v450q0 125 84 206t237 81h191l41 -88h-232q-109 0 -169 -56.5t-60 -142.5v-450q0 -86 60 -142.5t169 -56.5h242z" />
<glyph unicode="r" horiz-adv-x="544" d="M141 0v717q0 133 84.5 220t237.5 87h51v-88h-51q-110 0 -170 -62t-60 -157v-717h-92z" />
<glyph unicode="s" horiz-adv-x="819" d="M104 690l89 39q6 -31 22 -55.5t33.5 -39.5t49 -29.5t52.5 -21.5t60 -18q71 -20 115 -35.5t87 -39.5t65.5 -52.5t36 -70t13.5 -97.5q0 -128 -82.5 -199t-228.5 -71h-320v88h320q101 0 160 47t59 129q0 49 -14.5 82.5t-50 57t-75 38.5t-108.5 33q-113 30 -159 55 q-100 54 -124 160zM188 768v-20h-92v16q0 118 82.5 189t227.5 71h260v-88h-260q-101 0 -159.5 -47t-58.5 -121z" />
<glyph unicode="t" horiz-adv-x="643" d="M215 1249v-880q0 -58 11 -105t35.5 -88.5t71 -64.5t111.5 -23h138v-88h-138q-154 0 -237.5 103t-83.5 266v880h92zM260 932l-41 82h342v-82h-301z" />
<glyph unicode="u" horiz-adv-x="911" d="M674 1024h92v-748q0 -123 -83 -204.5t-232 -81.5t-232.5 81.5t-83.5 204.5v748h92v-748q0 -86 59 -142t165 -56t164.5 56t58.5 142v748z" />
<glyph unicode="v" horiz-adv-x="833" d="M504 432l184 592h92l-319 -1024h-90l-320 1024h92l185 -592q21 -65 51.5 -192t34.5 -142h4q4 15 34.5 142t51.5 192z" />
<glyph unicode="w" horiz-adv-x="1187" d="M1036 1024h92l-245 -1024h-90l-156 649q-9 36 -16 78.5t-13.5 93.5t-11.5 80h-4q-2 -10 -15.5 -106.5t-25.5 -145.5l-156 -649h-90l-246 1024h93l153 -649q9 -37 16 -78t15 -94.5t12 -79.5h4q4 26 12 79.5t15 94.5t16 78l154 649h90l154 -649q9 -37 16 -78t15 -94.5 t12 -79.5h4q4 26 12 79.5t15 94.5t16 78z" />
<glyph unicode="x" horiz-adv-x="811" d="M309 289l-168 -289h-108l317 539l-282 485h104l168 -283q17 -28 63 -133q5 10 27.5 59t38.5 74l168 283h100C9E304A94" />
<glyph unicode="y" horiz-adv-x="849" d="M137 1024l191 -659q22 -74 52.5 -215t37.5 -170h4q9 38 26.5 120.5t31.5 145t30 119.5l180 659h90l-420 -1536h-90l105 379l-332 1157h94z" />
<glyph unicode="z" horiz-adv-x="747" d="M670 950l-488 -862h488v-88h-594v74l487 862h-487v88h594v-74z" />
<glyph unicode="{" horiz-adv-x="722" d="M100 774h11q96 0 140 57.5t44 147.5v229q0 149 75 238.5t236 89.5h17v-102h-17q-108 0 -158.5 -61.5t-50.5 -164.5v-229q0 -96 -45.5 -164.5t-144.5 -91.5q98 -23 144 -92t46 -164v-229q0 -103 50.5 -164.5t158.5 -61.5h17v-102h-17q-161 0 -236 89.5t-75 238.5v229 q0 90 -44 147.5t-140 57.5h-11v102z" />
<glyph unicode="|" horiz-adv-x="385" d="M231 -512h-77v2048h77v-2048z" />
<glyph unicode="}" horiz-adv-x="722" d="M612 774h11v-102h-11q-96 0 -140 -57.5t-44 -147.5v-229q0 -149 -75 -238.5t-236 -89.5h-17v102h17q108 0 0B9DC5FA03" />
<glyph unicode="&#xa1;" horiz-adv-x="401" d="M262 -410h-123l31 1024h61zM252 829h-102v195h102v-195z" />
<glyph unicode="&#xa8;" horiz-adv-x="542" d="M72 1157v184h92v-184h-92zM379 1157v184h92v-184h-92z" />
<glyph unicode="&#xa9;" horiz-adv-x="1183" d="M131 451v532q0 96 30.5 181t87.5 150t145.5 102.5t197.5 37.5t197.5 -37.5t145.5 -102.5t87.5 -150t30.5 -06632CAA26" />
<glyph unicode="&#xab;" horiz-adv-x="901" d="M102 498v59l324 467h106l-344 -500l344 -524h-106zM369 498v59l323 467h107l-344 -500l344 -524h-107z" />
<glyph unicode="&#xae;" horiz-adv-x="1183" d="M131 451v532q0 96 30.5 181t87.5 150t145.5 102.5t197.5 37.5t197.5 -37.5t145.5 -102.5t87.5 -150t30.5 -181v-532q0 -96 -30.5 -181t-87.5 -150t-145.5 -102.5t-197.5 -37.5t-197.5 37.5t-145.5 102.5t-87.5 150t-30.5 181zM213 983v-532q0 -108 42.5 -196t130 -143 t206.5 -55t206.5 55t130 143t42.5 196v532q0 166 -101 279.5t-278 113.5t-278 -113.5t-101 -279.5zM449 602v-295h-76v819h237q110 0 176 -70t66 -188q0 -207 -158 -256l176 -305h-79l-173 295h-169zM449 1053v-369h161q75 0 120.5 50t45.5 134t-45.5 134.5t-120.5 50.5 h-161z" />
<glyph unicode="&#xaf;" horiz-adv-x="849" d="M113 1206v86h624v-86h-624z" />
<glyph unicode="&#xb0;" horiz-adv-x="729" d="M365 950q-111 0 -172.5 69t-61.5 173v20q0 103 62 172.5t172 69.5t171.5 -69.5t61.5 -172.5v-20q0 -104 -61 -173t-172 -69zM365 1042q67 0 102 43t35 107v20q0 64 -35 107t-102 43q-68 0 -103 -42t-35 -108v-20q0 -66 35 -108t103 -42z" />
<glyph unicode="&#xb1;" horiz-adv-x="1204" d="M139 764v94h410v414h102v-414h410v-94h-410v-414h-102v414h-410zM139 0v94h922v-94h-922z" />
<glyph unicode="&#xb4;" horiz-adv-x="503" d="M416 1434l-246 -277h-82l184 277h144z" />
<glyph unicode="&#xb7;" horiz-adv-x="391" d="M242 469h-92v88h92v-88z" />
<glyph unicode="&#xb8;" horiz-adv-x="575" d="M207 -131l51 164q40 -4 64 -4l-39 -125q85 -4 123 -47.5t38 -94.5q0 -52 -40.5 -94.5t-120.5 -42.5q-95 0 -152 29l21 55q55 -22 120 -22q36 0 62 19t26 56q0 36 -30 58t-78 22h-12z" />
<glyph unicode="&#xbb;" horiz-adv-x="901" d="M799 557v-59l-324 -498h-106l344 524l-344 500h106zM532 557v-59l-323 -498h-107l344 524l-344 500h107z" />
<glyph unicode="&#xbf;" horiz-adv-x="888" d="M225 -59q0 37 7.5 70t17.5 56t32 52.5t37.5 47t48.5 53t52 56.5q75 109 92.5 167.5t17.5 172.5h-102q0 -92 -16 -145t-78 -143q-25 -30 -60.5 -69t-53.5 -59.5t-40 -51.5t-32 -56.5t-17.5 -61.5t-7.5 -79q0 -193 79.5 -276t235.5 -83h330v99h-328q-108 0 -161.5 55.5 t-53.5 194.5zM530 831h-102v195h102v-195z" />
<glyph unicode="&#xc0;" horiz-adv-x="1005" d="M842 0l-105 381h-395l-41 94h410l-142 522q-18 66 -38.5 191t-26.5 153h-4q-5 -23 -26.5 -150.5t-39.5 -193.5l-272 -997h-105l394 1434h102l393 -1434h-104zM502 1567l-246 277h143l185 -277h-82z" />
<glyph unicode="&#xc1;" horiz-adv-x="1005" d="M842 0l-105 381h-395l-41 94h410l-142 522q-18 66 -38.5 191t-26.5 153h-4q-5 -23 -26.5 -150.5t-39.5 -193.5l-272 -997h-105l394 1434h102l393 -1434h-104zM748 1843l-246 -276h-82l184 276h144z" />
<glyph unicode="&#xc2;" horiz-adv-x="1005" d="M842 0l-105 381h-395l-41 94h410l-142 522q-18 66 -38.5 191t-26.5 153h-4q-5 -23 -26.5 -150.5t-39.5 -193.5l-272 -997h-105l394 1434h102l393 -1434h-104zM544 1844l221 -277h-102l-160 182l-161 -182h-103l223 277h82z" />
<glyph unicode="&#xc3;" horiz-adv-x="1005" d="M842 0l-105 381h-395l-41 94h410l-142 522q-18 66 -38.5 191t-26.5 153h-4q-5 -23 -26.5 -150.5t-39.5 -193.5l-272 -997h-105l394 1434h102l393 -1434h-104zM639 1636q50 0 121 68l49 -45q-101 -90 -166 -90q-50 0 -149 51q-96 51 -125 51q-57 0 -129 -63l-45 45 q91 88 172 88q54 0 143 -53q86 -52 129 -52z" />
<glyph unicode="&#xc4;" horiz-adv-x="1005" d="M842 0l-105 381h-395l-41 94h410l-142 522q-18 66 -38.5 191t-26.5 153h-4q-5 -23 -26.5 -150.5t-39.5 -193.5l-272 -997h-105l394 1434h102l393 -1434h-104zM303 1567v184h92v-184h-92zM610 1567v184h92v-184h-92z" />
<glyph unicode="&#xc5;" horiz-adv-x="1005" d="M842 0l-105 381h-395l-41 94h410l-142 522q-18 66 -38.5 191t-26.5 153h-4q-5 -23 -26.5 -150.5t-39.5 -190A8F6BCA9B" />
<glyph unicode="&#xc6;" horiz-adv-x="1257" d="M725 94h430v-94h-532v381h-357l-104 -381h-105l394 1434h704v-95h-430v-575h328v-94h-328v-576zM434 997l-143 -522h332v866h-123q-5 -23 -26.5 -150.5t-39.5 -193.5z" />
<glyph unicode="&#xc7;" horiz-adv-x="847" d="M131 1016v-649q0 -176 89 -271.5t257 -95.5h27l-41 -131l33 -27h12q48 0 78 -22t30 -58q0 -37 -26 -56t-62 -19q-65 0 -120 22l-21 -55q57 -29 152 -29q80 0 120.5 42.5t40.5 94.5q0 51 -38 94.5t-123 47.5l28 96h219v94h-307q-246 0 -246 273v690zM233 1067h-102 q0 176 89 271.5t257 95.5h309v-95h-307q-246 0 -246 -272z" />
<glyph unicode="&#xc8;" horiz-adv-x="884" d="M303 670l-41 94h420v-94h-379zM784 0h-288q-168 0 -257 95.5t-89 271.5v1067h634v-95h-532v-972q0 -273 246 -273h286v-94zM443 1567l-246 277h143l185 -277h-82z" />
<glyph unicode="&#xc9;" horiz-adv-x="884" d="M303 670l-41 94h420v-94h-379zM784 0h-288q-168 0 -257 95.5t-89 271.5v1067h634v-95h-532v-972q0 -273 246 -273h286v-94zM688 1843l-246 -276h-82l185 276h143z" />
<glyph unicode="&#xca;" horiz-adv-x="884" d="M303 670l-41 94h420v-94h-379zM784 0h-288q-168 0 -257 95.5t-89 271.5v1067h634v-95h-532v-972q0 -273 246 -273h286v-94zM483 1844l221 -277h-102l-160 182l-161 -182h-103l223 277h82z" />
<glyph unicode="&#xcb;" horiz-adv-x="884" d="M303 670l-41 94h420v-94h-379zM784 0h-288q-168 0 -257 95.5t-89 271.5v1067h634v-95h-532v-972q0 -273 246 -273h286v-94zM264 1567v184h92v-184h-92zM571 1567v184h93v-184h-93z" />
<glyph unicode="&#xcc;" horiz-adv-x="401" d="M150 1434h102v-1434h-102v1434zM201 1567l-246 277h143l185 -277h-82z" />
<glyph unicode="&#xcd;" horiz-adv-x="401" d="M150 1434h102v-1434h-102v1434zM467 1843l-246 -276h-82l185 276h143z" />
<glyph unicode="&#xce;" horiz-adv-x="401" d="M150 1434h102v-1434h-102v1434zM243 1844l221 -277h-102l-160 182l-161 -182h-103l223 277h82z" />
<glyph unicode="&#xcf;" horiz-adv-x="401" d="M150 1434h102v-1434h-102v1434zM2 1567v184h92v-184h-92zM309 1567v184h92v-184h-92z" />
<glyph unicode="&#xd0;" horiz-adv-x="968" d="M303 0l-41 94h225q115 0 180.5 73t65.5 181v737q0 108 -65.5 181t-180.5 73h-235v-577h205v-88h-205v-674h-102v674h-134v88h134v672h337q162 0 255.5 -100.5t93.5 -248.5v-737q0 -96 -39.5 -174t-120 -126t-189.5 -48h-184z" />
<glyph unicode="&#xd1;" horiz-adv-x="1038" d="M743 0l-372 961l-135 380h-5q1 -47 11 -251t10 -314v-776h-102v1434h143l373 -961l135 -381h4q-1 47 -11 251t-10 314v777h103v-1434h-144zM655 1637q51 0 121 67l49 -45q-101 -90 -166 -90q-50 0 -149 51q-98 52 -125 52q-56 0 -129 -64l-45 45q91 88 172 88 q54 0 143 -53q84 -51 129 -51z" />
<glyph unicode="&#xd2;" horiz-adv-x="1019" d="M786 1016l103 41v-690q0 -181 -89 -279t-257 -98h-66q-168 0 -257 98t-89 279v700q0 181 89 279t257 98h66q167 0 256.5 -98t89.5 -279h-103q0 283 -245 283h-62q-246 0 -246 -283v-700q0 -283 246 -283h62q120 0 182.5 71t62.5 212v649zM490 1567l-246 277h143l185 -277 h-82z" />
<glyph unicode="&#xd3;" horiz-adv-x="1019" d="M786 1016l103 41v-690q0 -181 -89 -279t-257 -98h-66q-168 0 -257 98t-89 279v700q0 181 89 279t257 98h66q167 0 256.5 -98t89.5 -279h-103q0 283 -245 283h-62q-246 0 -246 -283v-700q0 -283 246 -283h62q120 0 182.5 71t62.5 212v649zM735 1843l-246 -276h-81l184 276 h143z" />
<glyph unicode="&#xd4;" horiz-adv-x="1019" d="M786 1016l103 41v-690q0 -181 -89 -279t-257 -98h-66q-168 0 -257 98t-89 279v700q0 181 89 279t257 98h66q167 0 256.5 -98t89.5 -279h-103q0 283 -245 283h-62q-246 0 -246 -283v-700q0 -283 246 -283h62q120 0 182.5 71t62.5 212v649zM532 1844l221 -277h-102 l-160 182l-161 -182h-103l223 277h82z" />
<glyph unicode="&#xd5;" horiz-adv-x="1019" d="M786 1016l103 41v-690q0 -181 -89 -279t-257 -98h-66q-168 0 -257 98t-89 279v700q0 181 89 279t257 98h66q167 0 256.5 -98t89.5 -279h-103q0 283 -245 283h-62q-246 0 -246 -283v-700q0 -283 246 -283h62q120 0 182.5 71t62.5 212v649zM627 1636q50 0 121 68l49 -45 q-101 -90 -166 -90q-51 0 -150 51q-96 51 -125 51q-57 0 -129 -63l-45 45q91 88 172 88q55 0 144 -53q86 -52 129 -52z" />
<glyph unicode="&#xd6;" horiz-adv-x="1019" d="M786 1016l103 41v-690q0 -181 -89 -279t-257 -98h-66q-168 0 -257 98t-89 279v700q0 181 89 279t257 98h66q167 0 256.5 -98t89.5 -279h-103q0 283 -245 283h-62q-246 0 -246 -283v-700q0 -283 246 -283h62q120 0 182.5 71t62.5 212v649zM291 1567v184h92v-184h-92z M598 1567v184h92v-184h-92z" />
<glyph unicode="&#xd7;" horiz-adv-x="1204" d="M307 358l-65 66l288 289l-292 293l73 73l293 -293l289 289l65 -65l-288 -289l293 -293l-74 -74l-293 293z" />
<glyph unicode="&#xd8;" horiz-adv-x="1019" d="M172 -98l-70 32l88 191q-59 92 -59 242v700q0 181 89 279t257 98h66q143 0 229 -74l76 162l70 -33l-91 -190q62 -92 62 -242h-103q0 63 -16 119l-479 -1026q61 -76 188 -76h62q120 0 182.5 71t62.5 212v649l103 41v-690q0 -181 -89 -279t-257 -98h-66q-145 0 -231 71z M233 367q0 -55 15 -121l479 1028q-61 76 -186 76h-62q-246 0 -246 -283v-700z" />
<glyph unicode="&#xd9;" horiz-adv-x="980" d="M848 1434v-1127q0 -135 -95.5 -226t-263.5 -91t-263 91t-95 226v1127h102v-1127q0 -95 68 -159t188 -64t188 64t68 159v1127h103zM490 1567l-246 277h143l185 -277h-82z" />
<glyph unicode="&#xda;" horiz-adv-x="980" d="M848 307v1127h-103v-1127q0 -95 -68 -159t-188 -64t-188 64t-68 159v1127h-102v-1127q0 -135 95 -226t263 -91t263.5 91t95.5 226zM735 1843l-246 -276h-81l184 276h143z" />
<glyph unicode="&#xdb;" horiz-adv-x="980" d="M848 1434v-1127q0 -135 -95.5 -226t-263.5 -91t-263 91t-95 226v1127h102v-1127q0 -95 68 -159t188 -64t188 64t68 159v1127h103zM532 1844l221 -277h-102l-160 182l-161 -182h-103l223 277h82z" />
<glyph unicode="&#xdc;" horiz-adv-x="980" d="M848 1434v-1127q0 -135 -95.5 -226t-263.5 -91t-263 91t-95 226v1127h102v-1127q0 -95 68 -159t188 -64t188 64t68 159v1127h103zM291 1567v184h92v-184h-92zM598 1567v184h92v-184h-92z" />
<glyph unicode="&#xdd;" horiz-adv-x="919" d="M541 907l213 527h106l-350 -871v-563h-102v563l-349 871h109l209 -527q15 -35 28 -76.5t28 -91t24 -77.5h4q9 28 24 77.5t28 91t28 76.5zM705 1844l-246 -277h-82l184 277h144z" />
<glyph unicode="&#xde;" horiz-adv-x="897" d="M303 262l-41 94h195q115 0 180 73t65 181v215q0 108 -65 181t-180 73h-205v-1079h-102v1434h102v-260h205q162 0 255 -100.5t93 -248.5v-215q0 -148 -93 -248t-255 -100h-154z" />
<glyph unicode="&#xdf;" horiz-adv-x="923" d="M408 94h81q101 0 158.5 61t57.5 152v195q0 41 -14.5 79.5t-44.5 73t-84 55.5t-124 21h-30l-41 94h71q64 0 113.5 21t77.5 56t41.5 73.5t13.5 79.5v112q0 78 -57 130.5t-158 52.5q-106 0 -165.5 -52t-59.5 -131v-1167h-103v936h-106v88h106v143q0 119 87 198t241 79 q150 0 233.5 -79t83.5 -198v-112q0 -100 -52 -174t-163 -103q122 -26 179 -100.5t57 -175.5v-195q0 -132 -84 -219.5t-234 -87.5h-81v94z" />
<glyph unicode="&#xe0;" horiz-adv-x="870" d="M172 936v88h262q140 0 220.5 -82t80.5 -205v-737h-47l-37 125q-74 -135 -256 -135q-161 0 -228 71.5t-67 204.5q0 254 308 303l192 33l37 -84l-215 -39q-229 -38 -229 -215q0 -44 7.5 -74t29 -56t64.5 -39t109 -13q117 0 178.5 63t61.5 162v430q0 85 -56 142t-153 57 h-262zM434 1157l-246 277h144l184 -277h-82z" />
<glyph unicode="&#xe1;" horiz-adv-x="870" d="M172 936v88h262q140 0 220.5 -82t80.5 -205v-737h-47l-37 125q-74 -135 -256 -135q-161 0 -228 71.5t-67 204.5q0 254 308 303l192 33l37 -84l-215 -39q-229 -38 -229 -215q0 -44 7.5 -74t29 -56t64.5 -39t109 -13q117 0 178.5 63t61.5 162v430q0 85 -56 142t-153 57 h-262zM680 1434l-246 -277h-82l185 277h143z" />
<glyph unicode="&#xe2;" horiz-adv-x="870" d="M172 936v88h262q140 0 220.5 -82t80.5 -205v-737h-47l-37 125q-74 -135 -256 -135q-161 0 -228 71.5t-67 204.5q0 254 308 303l192 33l37 -84l-215 -39q-229 -38 -229 -215q0 -44 7.5 -74t29 -56t64.5 -39t109 -13q117 0 178.5 63t61.5 162v430q0 85 -56 142t-153 57 h-262zM477 1434l221 -277h-102l-160 182l-162 -182h-102l223 277h82z" />
<glyph unicode="&#xe3;" horiz-adv-x="870" d="M172 936v88h262q140 0 220.5 -82t80.5 -205v-737h-47l-37 125q-74 -135 -256 -135q-161 0 -228 71.5t-67 204.5q0 254 308 303l192 33l37 -84l-215 -39q-229 -38 -229 -215q0 -44 7.5 -74t29 -56t64.5 -39t109 -13q117 0 178.5 63t61.5 162v430q0 85 -56 142t-153 57 h-262zM571 1227q51 0 121 67l49 -45q-101 -90 -166 -90q-50 0 -149 51q-98 52 -125 52q-56 0 -129 -64l-45 45q91 88 172 88q54 0 143 -53q84 -51 129 -51z" />
<glyph unicode="&#xe4;" horiz-adv-x="870" d="M172 936v88h262q140 0 220.5 -82t80.5 -205v-737h-47l-37 125q-74 -135 -256 -135q-161 0 -228 71.5t-67 204.5q0 254 308 303l192 33l37 -84l-215 -39q-229 -38 -229 -215q0 -44 7.5 -74t29 -56t64.5 -39t109 -13q117 0 178.5 63t61.5 162v430q0 85 -56 142t-153 57 h-262zM236 1157v184h92v-184h-92zM543 1157v184h92v-184h-92z" />
<glyph unicode="&#xe5;" horiz-adv-x="870" d="M172 936v88h262q140 0 220.5 -82t80.5 -205v-737h-47l-37 125q-74 -135 -256 -135q-161 0 -228 71.5t-67 204.5q0 254 308 303l192 33l37 -84l-215 -39q-229 -38 -229 -215q0 -44 7.5 -74t29 -56t64.5 -39t109 -13q117 0 178.5 63t61.5 162v430q0 85 -56 142t-153 57 h-262zM250 1249q0 77 54 131t130 54t130 -54t54 -131t-54 -130.5t-130 -53.5t-130 53.5t-54 130.5zM332 1249q0 -43 29.5 -72.5t72.5 -29.5t73 29.5t30 72.5t-30 73t-73 30t-72.5 -30t-29.5 -73z" />
<glyph unicode="&#xe6;" horiz-adv-x="1396" d="M1247 0h-282q-116 0 -187.5 61t-89.5 162q-20 -106 -93 -169.5t-198 -63.5q-161 0 -228 71.5t-67 204.5q0 254 308 303l192 33l37 -84l-215 -39q-229 -38 -229 -215q0 -44 7.5 -74t29 -56t65 -39t109.5 -13q116 0 177.5 63t61.5 162v430q0 85 -56 142t-153 57h-262v88 h262q101 0 166 -57t86 -152q16 102 88 165.5t189 63.5q147 0 230 -76t83 -190v-295h-492l-41 88h441v207q0 77 -58.5 127.5t-162.5 50.5q-110 0 -170 -56t-60 -142v-471q0 -87 60 -143t170 -56h282v-88z" />
<glyph unicode="&#xe7;" horiz-adv-x="727" d="M444 88h222v-88h-197l-29 -96q85 -4 123.5 -47.5t38.5 -94.5q0 -52 -41 -94.5t-121 -42.5q-94 0 -151 29l20 55q55 -22 121 -22q36 0 62 19t26 56q0 36 -30 58t-78 22h-13l-32 27l41 133q-136 12 -209.5 96.5t-73.5 208.5v379l92 41v-420q0 -95 59.5 -157t169.5 -62z M444 936q-100 0 -160 -52.5t-69 -135.5h-92q9 121 92.5 198.5t228.5 77.5h222v-88h-222z" />
<glyph unicode="&#xe8;" d="M727 0h-283q-154 0 -237.5 80.5t-83.5 206.5v471q0 120 83.5 198t237.5 78q147 0 230.5 -73.5t83.5 -182.5v-295h-492l-41 88h441v207q0 72 -59 120t-163 48q-109 0 -169 -53.5t-60 -134.5v-471q0 -87 59.5 -143t169.5 -56h283v-88zM438 1157l-246 277h143l185 -277h-82z " />
<glyph unicode="&#xe9;" d="M727 0h-283q-154 0 -237.5 80.5t-83.5 206.5v471q0 120 83.5 198t237.5 78q147 0 230.5 -73.5t83.5 -182.5v-295h-492l-41 88h441v207q0 72 -59 120t-163 48q-109 0 -169 -53.5t-60 -134.5v-471q0 -87 59.5 -143t169.5 -56h283v-88zM684 1434l-246 -277h-82l185 277h143z " />
<glyph unicode="&#xea;" d="M727 0h-283q-154 0 -237.5 80.5t-83.5 206.5v471q0 120 83.5 198t237.5 78q147 0 230.5 -73.5t83.5 -182.5v-295h-492l-41 88h441v207q0 72 -59 120t-163 48q-109 0 -169 -53.5t-60 -134.5v-471q0 -87 59.5 -143t169.5 -56h283v-88zM479 1434l221 -277h-102l-160 182 l-161 -182h-103l223 277h82z" />
<glyph unicode="&#xeb;" d="M727 0h-283q-154 0 -237.5 80.5t-83.5 206.5v471q0 120 83.5 198t237.5 78q147 0 230.5 -73.5t83.5 -182.5v-295h-492l-41 88h441v207q0 72 -59 120t-163 48q-109 0 -169 -53.5t-60 -134.5v-471q0 -87 59.5 -143t169.5 -56h283v-88zM238 1157v184h92v-184h-92zM545 1157 v184h92v-184h-92z" />
<glyph unicode="&#xec;" horiz-adv-x="374" d="M141 0v1024h92v-1024h-92zM189 1157l-246 277h143l185 -277h-82z" />
<glyph unicode="&#xed;" horiz-adv-x="374" d="M141 1024v-1024h92v1024h-92zM438 1434l-245 -277h-82l184 277h143z" />
<glyph unicode="&#xee;" horiz-adv-x="374" d="M141 0v1024h92v-1024h-92zM229 1434l221 -277h-102l-160 182l-161 -182h-103l223 277h82z" />
<glyph unicode="&#xef;" horiz-adv-x="374" d="M141 0v1024h92v-1024h-92zM-12 1157v184h92v-184h-92zM295 1157v184h92v-184h-92z" />
<glyph unicode="&#xf0;" horiz-adv-x="903" d="M424 1149l-82 29l68 194l-248 64l22 84l254 -62l54 150l81 -29l-51 -143q256 -86 256 -346v-814q0 -123 -86.5 -204.5t-240.5 -81.5t-241 81.5t-87 204.5v472q0 117 86 196.5t235 79.5h191l41 -84h-232q-105 0 -167 -55.5t-62 -136.5v-472q0 -85 62.5 -141.5t173.5 -56.5 t173 56t62 142v809q0 197 -192 265z" />
<glyph unicode="&#xf1;" horiz-adv-x="913" d="M141 936v88h340q135 0 215 -76.5t80 -189.5v-758h-92v758q0 79 -52 128.5t-167 49.5h-324zM141 0v889l92 41v-930h-92zM594 1227q51 0 121 67l49 -45q-101 -90 -166 -90q-50 0 -149 51q-98 52 -125 52q-56 0 -129 -64l-45 45q91 88 172 88q54 0 143 -53q84 -51 129 -51z " />
<glyph unicode="&#xf2;" horiz-adv-x="903" d="M686 276v410l92 41v-451q0 -123 -86.5 -204.5t-240.5 -81.5t-241 81.5t-87 204.5v472q0 123 87 204.5t241 81.5t240.5 -81.5t86.5 -204.5h-92q0 86 -62 142t-173 56t-173.5 -56.5t-62.5 -141.5v-472q0 -85 62.5 -141.5t173.5 -56.5t173 56t62 142zM451 1157l-246 277h143 l185 -277h-82z" />
<glyph unicode="&#xf3;" horiz-adv-x="903" d="M686 686v-410q0 -86 -62 -142t-173 -56t-173.5 56.5t-62.5 141.5v472q0 85 62.5 141.5t173.5 56.5t173 -56t62 -142h92q0 123 -86.5 204.5t-240.5 81.5t-241 -81.5t-87 -204.5v-472q0 -123 87 -204.5t241 -81.5t240.5 81.5t86.5 204.5v451zM696 1434l-245 -277h-82 l184 277h143z" />
<glyph unicode="&#xf4;" horiz-adv-x="903" d="M686 276v410l92 41v-451q0 -123 -86.5 -204.5t-240.5 -81.5t-241 81.5t-87 204.5v472q0 123 87 204.5t241 81.5t240.5 -81.5t86.5 -204.5h-92q0 86 -62 142t-173 56t-173.5 -56.5t-62.5 -141.5v-472q0 -85 62.5 -141.5t173.5 -56.5t173 56t62 142zM493 1434l221 -277 h-102l-160 182l-161 -182h-103l223 277h82z" />
<glyph unicode="&#xf5;" horiz-adv-x="903" d="M686 276v410l92 41v-451q0 -123 -86.5 -204.5t-240.5 -81.5t-241 81.5t-87 204.5v472q0 123 87 204.5t241 81.5t240.5 -81.5t86.5 -204.5h-92q0 86 -62 142t-173 56t-173.5 -56.5t-62.5 -141.5v-472q0 -85 62.5 -141.5t173.5 -56.5t173 56t62 142zM588 1227q51 0 121 67 l49 -45q-101 -90 -166 -90q-51 0 -150 51q-98 52 -125 52q-56 0 -129 -64l-45 45q91 88 172 88q55 0 144 -53q84 -51 129 -51z" />
<glyph unicode="&#xf6;" horiz-adv-x="903" d="M686 276v410l92 41v-451q0 -123 -86.5 -204.5t-240.5 -81.5t-241 81.5t-87 204.5v472q0 123 87 204.5t241 81.5t240.5 -81.5t86.5 -204.5h-92q0 86 -62 142t-173 56t-173.5 -56.5t-62.5 -141.5v-472q0 -85 62.5 -141.5t173.5 -56.5t173 56t62 142zM252 1157v184h92v-184 h-92zM559 1157v184h92v-184h-92z" />
<glyph unicode="&#xf8;" horiz-adv-x="903" d="M686 276v410l92 41v-451q0 -123 -86.5 -204.5t-240.5 -81.5q-163 0 -254 94l-93 -133l-63 47l109 154q-27 58 -27 124v472q0 123 87 204.5t241 81.5q160 0 251 -94l95 135l63 -47l-110 -156q28 -61 28 -124h-92q0 5 -1 14.5t-1 13.5l-432 -614q61 -84 199 -84 q111 0 173 56t62 142zM451 946q-111 0 -173.5 -56.5t-62.5 -141.5v-472q0 -20 2 -28l430 614q-61 84 -196 84z" />
<glyph unicode="&#xf9;" horiz-adv-x="911" d="M674 1024h92v-748q0 -123 -83 -204.5t-232 -81.5t-232.5 81.5t-83.5 204.5v748h92v-748q0 -86 59 -142t165 -56t164.5 56t58.5 142v748zM455 1157l-246 277h143l185 -277h-82z" />
<glyph unicode="&#xfa;" horiz-adv-x="911" d="M766 1024h-92v-748q0 -86 -58.5 -142t-164.5 -56t-165 56t-59 142v748h-92v-748q0 -123 83.5 -204.5t232.5 -81.5t232 81.5t83 204.5v748zM700 1434l-245 -277h-82l184 277h143z" />
<glyph unicode="&#xfb;" horiz-adv-x="911" d="M674 1024h92v-748q0 -123 -83 -204.5t-232 -81.5t-232.5 81.5t-83.5 204.5v748h92v-748q0 -86 59 -142t165 -56t164.5 56t58.5 142v748zM497 1434l221 -277h-102l-160 182l-161 -182h-103l223 277h82z" />
<glyph unicode="&#xfc;" horiz-adv-x="911" d="M674 1024h92v-748q0 -123 -83 -204.5t-232 -81.5t-232.5 81.5t-83.5 204.5v748h92v-748q0 -86 59 -142t165 -56t164.5 56t58.5 142v748zM256 1157v184h92v-184h-92zM563 1157v184h92v-184h-92z" />
<glyph unicode="&#xfd;" horiz-adv-x="849" d="M137 1024l191 -659q22 -74 52.5 -215t37.5 -170h4q9 38 26.5 120.5t31.5 145t30 119.5l180 659h90l-420 -1536h-90l105 379l-332 1157h94zM670 1434l-246 -277h-82l184 277h144z" />
<glyph unicode="&#xfe;" horiz-adv-x="921" d="M244 88h231q110 0 170 56.5t60 142.5v450q0 86 -60 142.5t-170 56.5h-242v-1448h-92v2005l92 41v-510h242q154 0 238 -81.5t84 -205.5v-450q0 -124 -84 -205.5t-238 -81.5h-190z" />
<glyph unicode="&#xff;" horiz-adv-x="849" d="M137 1024l191 -659q22 -74 52.5 -215t37.5 -170h4q9 38 26.5 120.5t31.5 145t30 119.5l180 659h90l-420 -1536h-90l105 379l-332 1157h94zM225 1157v184h92v-184h-92zM532 1157v184h93v-184h-93z" />
<glyph unicode="&#x100;" horiz-adv-x="1005" d="M842 0l-105 381h-395l-41 94h410l-142 522q-18 66 -38.5 191t-26.5 153h-4q-5 -23 -26.5 -150.5t-39.5 -193.5l-272 -997h-105l394 1434h102l393 -1434h-104zM191 1616v86h624v-86h-624z" />
<glyph unicode="&#x101;" horiz-adv-x="870" d="M172 936v88h262q140 0 220.5 -82t80.5 -205v-737h-47l-37 125q-74 -135 -256 -135q-161 0 -228 71.5t-67 204.5q0 254 308 303l192 33l37 -84l-215 -39q-229 -38 -229 -215q0 -44 7.5 -74t29 -56t64.5 -39t109 -13q117 0 178.5 63t61.5 162v430q0 85 -56 142t-153 57 h-262zM123 1206v86h625v-86h-625z" />
<glyph unicode="&#x102;" horiz-adv-x="1005" d="M842 0l-105 381h-395l-41 94h410l-142 522q-18 66 -38.5 191t-26.5 153h-4q-5 -23 -26.5 -150.5t-39.5 -190DDADB5A55" />
<glyph unicode="&#x103;" horiz-adv-x="870" d="M172 936v88h262q140 0 220.5 -82t80.5 -205v-737h-47l-37 125q-74 -135 -256 -135q-161 0 -228 71.5t-67 20BBD8CBAE8" />
<glyph unicode="&#x104;" horiz-adv-x="1005" d="M842 0l-105 381h-395l-41 94h410l-142 522q-18 66 -38.5 191t-26.5 153h-4q-5 -23 -26.5 -150.5t-39.5 -1903D3DF6A4C" />
<glyph unicode="&#x105;" horiz-adv-x="870" d="M575 -172q0 96 103 205l-27 92q-74 -135 -256 -135q-161 0 -228 71.5t-67 204.5q0 254 308 303l192 33l37 0FE4A1CAE5" />
<glyph unicode="&#x106;" horiz-adv-x="847" d="M131 1016v-649q0 -176 89 -271.5t257 -95.5h309v94h-307q-246 0 -246 273v690zM233 1067h-102q0 176 89 271.5t257 95.5h309v-95h-307q-246 0 -246 -272zM752 1844l-246 -277h-82l184 277h144z" />
<glyph unicode="&#x107;" horiz-adv-x="727" d="M444 88h222v-88h-222q-153 0 -237 87t-84 220v379l92 41v-420q0 -95 59.5 -157t169.5 -62zM444 936q-100 0 -160 -52.5t-69 -135.5h-92q9 121 92.5 198.5t228.5 77.5h222v-88h-222zM666 1434l-246 -277h-82l184 277h144z" />
<glyph unicode="&#x108;" horiz-adv-x="847" d="M131 1016v-649q0 -176 89 -271.5t257 -95.5h309v94h-307q-246 0 -246 273v690zM233 1067h-102q0 176 89 271.5t257 95.5h309v-95h-307q-246 0 -246 -272zM561 1844l221 -277h-102l-160 182l-161 -182h-103l223 277h82z" />
<glyph unicode="&#x109;" horiz-adv-x="727" d="M444 88h222v-88h-222q-153 0 -237 87t-84 220v379l92 41v-420q0 -95 59.5 -157t169.5 -62zM444 936q-100 0 -160 -52.5t-69 -135.5h-92q9 121 92.5 198.5t228.5 77.5h222v-88h-222zM502 1434l221 -277h-102l-160 182l-162 -182h-102l223 277h82z" />
<glyph unicode="&#x10a;" horiz-adv-x="847" d="M131 1016v-649q0 -176 89 -271.5t257 -95.5h309v94h-307q-246 0 -246 273v690zM233 1067h-102q0 176 89 271.5t257 95.5h309v-95h-307q-246 0 -246 -272zM494 1567v184h92v-184h-92z" />
<glyph unicode="&#x10b;" horiz-adv-x="727" d="M444 88h222v-88h-222q-153 0 -237 87t-84 220v379l92 41v-420q0 -95 59.5 -157t169.5 -62zM444 936q-100 0 -160 -52.5t-69 -135.5h-92q9 121 92.5 198.5t228.5 77.5h222v-88h-222zM414 1157v184h92v-184h-92z" />
<glyph unicode="&#x10c;" horiz-adv-x="847" d="M131 1016v-649q0 -176 89 -271.5t257 -95.5h309v94h-307q-246 0 -246 273v690zM233 1067h-102q0 176 89 271.5t257 95.5h309v-95h-307q-246 0 -246 -272zM792 1844l-221 -277h-82l-223 277h103l161 -183l160 183h102z" />
<glyph unicode="&#x10d;" horiz-adv-x="727" d="M444 88h222v-88h-222q-153 0 -237 87t-84 220v379l92 41v-420q0 -95 59.5 -157t169.5 -62zM444 936q-100 0 -160 -52.5t-69 -135.5h-92q9 121 92.5 198.5t228.5 77.5h222v-88h-222zM729 1434l-221 -277h-82l-223 277h102l162 -183l160 183h102z" />
<glyph unicode="&#x10e;" horiz-adv-x="968" d="M303 0l-41 94h225q115 0 180.5 73t65.5 181v737q0 108 -65.5 181t-180.5 73h-235v-1339h-102v1434h337q162 0 255.5 -100.5t93.5 -248.5v-737q0 -96 -39.5 -174t-120 -126t-189.5 -48h-184zM747 1844l-221 -277h-82l-223 277h103l161 -183l160 183h102z" />
<glyph unicode="&#x10f;" horiz-adv-x="1038" d="M686 1520l92 16v-1536h-334q-153 0 -237 93.5t-84 234.5v368q0 141 84 234.5t237 93.5h191l41 -88h-232q-109 0 -169 -68t-60 -172v-368q0 -104 60 -172t169 -68h242v1432zM920 1319h59q0 -98 -51 -98h-8v-54h8q54 0 82 41.5t28 110.5v115h-118v-115z" />
<glyph unicode="&#x110;" horiz-adv-x="968" d="M303 0l-41 94h225q115 0 180.5 73t65.5 181v737q0 108 -65.5 181t-180.5 73h-235v-577h205v-88h-205v-674h-102v674h-134v88h134v672h337q162 0 255.5 -100.5t93.5 -248.5v-737q0 -96 -39.5 -174t-120 -126t-189.5 -48h-184z" />
<glyph unicode="&#x111;" horiz-adv-x="919" d="M635 1331l41 -82h-342v82h301zM686 1520l92 16v-1536h-334q-153 0 -237 93.5t-84 234.5v368q0 141 84 234.5t237 93.5h191l41 -88h-232q-109 0 -169 -68t-60 -172v-368q0 -104 60 -172t169 -68h242v1432z" />
<glyph unicode="&#x112;" horiz-adv-x="884" d="M303 670l-41 94h420v-94h-379zM784 0h-288q-168 0 -257 95.5t-89 271.5v1067h634v-95h-532v-972q0 -273 246 -273h286v-94zM129 1616v86h624v-86h-624z" />
<glyph unicode="&#x113;" d="M727 0h-283q-154 0 -237.5 80.5t-83.5 206.5v471q0 120 83.5 198t237.5 78q147 0 230.5 -73.5t83.5 -182.5v-295h-492l-41 88h441v207q0 72 -59 120t-163 48q-109 0 -169 -53.5t-60 -134.5v-471q0 -87 59.5 -143t169.5 -56h283v-88zM125 1206v86h625v-86h-625z" />
<glyph unicode="&#x114;" horiz-adv-x="884" d="M303 670l-41 94h420v-94h-379zM784 0h-288q-168 0 -257 95.5t-89 271.5v1067h634v-95h-532v-972q0 -273 246 -273h286v-94zM606 1788h88q0 -122 -62.5 -178.5t-188.5 -56.5q-127 0 -190.5 56.5t-63.5 178.5h88q0 -87 39.5 -119t126.5 -32q85 0 124 32t39 119z" />
<glyph unicode="&#x115;" d="M727 0h-283q-154 0 -237.5 80.5t-83.5 206.5v471q0 120 83.5 198t237.5 78q147 0 230.5 -73.5t83.5 -182.5079A2D1AE2" />
<glyph unicode="&#x116;" horiz-adv-x="884" d="M303 670l-41 94h420v-94h-379zM784 0h-288q-168 0 -257 95.5t-89 271.5v1067h634v-95h-532v-972q0 -273 246 -273h286v-94zM326 1567v184h92v-184h-92z" />
<glyph unicode="&#x117;" d="M727 0h-283q-154 0 -237.5 80.5t-83.5 206.5v471q0 120 83.5 198t237.5 78q147 0 230.5 -73.5t83.5 -182.5v-295h-492l-41 88h441v207q0 72 -59 120t-163 48q-109 0 -169 -53.5t-60 -134.5v-471q0 -87 59.5 -143t169.5 -56h283v-88zM391 1157v184h92v-184h-92z" />
<glyph unicode="&#x118;" horiz-adv-x="884" d="M625 -172q0 85 73 172h-202q-168 0 -257 95.5t-89 271.5v1067h634v-95h-532v-972q0 -273 246 -273h286v-94q-65 -86 -65 -154q0 -42 24.5 -65t67.5 -23q38 0 100 29l31 -74q-71 -43 -154 -43q-72 0 -117.5 45.5t-45.5 112.5zM303 670l-41 94h420v-94h-379z" />
<glyph unicode="&#x119;" d="M467 -172q0 84 74 172h-97q-154 0 -237.5 80.5t-83.5 206.5v471q0 124 83.5 205t237.5 81q147 0 230.5 -760127893A9C" />
<glyph unicode="&#x11a;" horiz-adv-x="884" d="M303 670l-41 94h420v-94h-379zM784 0h-288q-168 0 -257 95.5t-89 271.5v1067h634v-95h-532v-972q0 -273 246 -273h286v-94zM704 1844l-221 -277h-82l-223 277h103l161 -183l160 183h102z" />
<glyph unicode="&#x11b;" d="M727 0h-283q-154 0 -237.5 80.5t-83.5 206.5v471q0 120 83.5 198t237.5 78q147 0 230.5 -73.5t83.5 -182.5v-295h-492l-41 88h441v207q0 72 -59 120t-163 48q-109 0 -169 -53.5t-60 -134.5v-471q0 -87 59.5 -143t169.5 -56h283v-88zM700 1434l-221 -277h-82l-223 277h102 l162 -183l160 183h102z" />
<glyph unicode="&#x11c;" horiz-adv-x="980" d="M233 1067v-700q0 -273 246 -273h215l41 -94h-258q-168 0 -257 95.5t-89 271.5v700q0 176 89 271.5t257 95.5h309v-95h-307q-246 0 -246 -272zM848 764v-764h-103v670h-215l-41 94h359zM532 1843l222 -276h-103l-159 182l-162 -182h-103l224 276h81z" />
<glyph unicode="&#x11d;" horiz-adv-x="901" d="M686 88v936h92v-1249q0 -126 -83.5 -206.5t-237.5 -80.5h-283v88h283q110 0 169.5 56t59.5 143v225h-242q-153 0 -237 93.5t-84 234.5v368q0 141 84 234.5t237 93.5h191l41 -88h-232q-109 0 -169 -68t-60 -172v-368q0 -104 60 -172t169 -68h242zM492 1434l221 -277h-103 l-159 182l-162 -182h-103l224 277h82z" />
<glyph unicode="&#x11e;" horiz-adv-x="980" d="M233 1067v-700q0 -273 246 -273h215l41 -94h-258q-168 0 -257 95.5t-89 271.5v700q0 176 89 271.5t257 95.049F5B0A83" />
<glyph unicode="&#x11f;" horiz-adv-x="901" d="M686 88v936h92v-1249q0 -126 -83.5 -206.5t-237.5 -80.5h-283v88h283q110 0 169.5 56t59.5 143v225h-242q-153 0 -237 93.5t-84 234.5v368q0 141 84 234.5t237 93.5h191l41 -88h-232q-109 0 -169 -68t-60 -172v-368q0 -104 60 -172t169 -68h242zM614 1378h88 q0 -122 -62.5 -178.5t-188.5 -56.5q-127 0 -190.5 56.5t-63.5 178.5h88q0 -87 39.5 -119t126.5 -32q85 0 124 32t39 119z" />
<glyph unicode="&#x120;" horiz-adv-x="980" d="M233 1067v-700q0 -273 246 -273h215l41 -94h-258q-168 0 -257 95.5t-89 271.5v700q0 176 89 271.5t257 95.5h309v-95h-307q-246 0 -246 -272zM848 764v-764h-103v670h-215l-41 94h359zM375 1567v184h92v-184h-92z" />
<glyph unicode="&#x121;" horiz-adv-x="901" d="M686 88v936h92v-1249q0 -126 -83.5 -206.5t-237.5 -80.5h-283v88h283q110 0 169.5 56t59.5 143v225h-242q-153 0 -237 93.5t-84 234.5v368q0 141 84 234.5t237 93.5h191l41 -88h-232q-109 0 -169 -68t-60 -172v-368q0 -104 60 -172t169 -68h242zM403 1157v184h93v-184 h-93z" />
<glyph unicode="&#x122;" horiz-adv-x="931" d="M233 1067v-700q0 -273 246 -273h215l41 -94h-258q-168 0 -257 95.5t-89 271.5v700q0 176 89 271.5t257 95.5h309v-95h-307q-246 0 -246 -272zM848 764v-764h-103v670h-215l-41 94h359zM510 -236h53q0 -90 -45 -90h-8v-47h8q48 0 73 37.5t25 99.5v103h-106v-103z" />
<glyph unicode="&#x123;" horiz-adv-x="921" d="M686 88v936h92v-1249q0 -126 -83.5 -206.5t-237.5 -80.5h-283v88h283q110 0 169.5 56t59.5 143v225h-242q-153 0 -237 93.5t-84 234.5v368q0 141 84 234.5t237 93.5h191l41 -88h-232q-109 0 -169 -68t-60 -172v-368q0 -104 60 -172t169 -68h242zM487 1296h54v-102h-107 v102q0 62 25 100t73 38h9v-48h-9q-45 0 -45 -90z" />
<glyph unicode="&#x124;" horiz-adv-x="1015" d="M303 668l-41 98h502v668h102v-1434h-102v668h-461zM252 1434v-1434h-102v1434h102zM549 1844l221 -277h-102l-160 182l-161 -182h-103l223 277h82z" />
<glyph unicode="&#x125;" horiz-adv-x="923" d="M141 1520l92 16v-1536h-92v1520zM244 1024h237q135 0 215 -76.5t80 -189.5v-758h-92v758q0 79 -52 128.5t-167 49.5h-180zM872 1157l-221 277h-82l-223 -277h103l161 182l160 -182h102z" />
<glyph unicode="&#x128;" horiz-adv-x="401" d="M150 1434h102v-1434h-102v1434zM338 1637q51 0 121 67l49 -45q-101 -90 -166 -90q-50 0 -149 51q-98 52 -125 52q-56 0 -129 -64l-45 45q91 88 172 88q54 0 143 -53q84 -51 129 -51z" />
<glyph unicode="&#x129;" horiz-adv-x="374" d="M141 0v1024h92v-1024h-92zM326 1227q50 0 120 67l50 -45q-101 -90 -166 -90q-51 0 -150 51q-98 52 -125 52q-56 0 -129 -64l-45 45q91 88 172 88q55 0 144 -53q84 -51 129 -51z" />
<glyph unicode="&#x12a;" horiz-adv-x="401" d="M150 1434h102v-1434h-102v1434zM-110 1616v86h624v-86h-624z" />
<glyph unicode="&#x12b;" horiz-adv-x="374" d="M141 0v1024h92v-1024h-92zM-125 1206v86h625v-86h-625z" />
<glyph unicode="&#x12c;" horiz-adv-x="401" d="M150 1434h102v-1434h-102v1434zM366 1788h88q0 -122 -62.5 -178.5t-188.5 -56.5q-127 0 -190.5 56.5t-63.5 178.5h88q0 -87 39.5 -119t126.5 -32q85 0 124 32t39 119z" />
<glyph unicode="&#x12d;" horiz-adv-x="374" d="M141 0v1024h92v-1024h-92zM352 1378h88q0 -122 -63 -178.5t-189 -56.5q-127 0 -190.5 56.5t-63.5 178.5h89q0 -87 39 -119t126 -32q85 0 124.5 32.5t39.5 118.5z" />
<glyph unicode="&#x12e;" horiz-adv-x="401" d="M92 -172q0 84 74 172h-16v1434h102v-1434q-66 -87 -66 -154q0 -42 25 -65t68 -23q38 0 100 29l31 -74q-71 -43 -154 -43q-72 0 -118 45.5t-46 112.5z" />
<glyph unicode="&#x12f;" horiz-adv-x="374" d="M141 0v1024h92v-1024h-2q-65 -86 -65 -154q0 -42 24.5 -65t67.5 -23q38 0 100 29l31 -74q-71 -43 -153 -43q-72 0 -118 45.5t-46 112.5q0 85 73 172h-4zM141 1249v144h92v-144h-92z" />
<glyph unicode="&#x130;" horiz-adv-x="401" d="M150 1434h102v-1434h-102v1434zM156 1567v184h92v-184h-92z" />
<glyph unicode="&#x131;" horiz-adv-x="374" d="M141 0v1024h92v-1024h-92z" />
<glyph unicode="&#x133;" horiz-adv-x="671" d="M141 0v1024h92v-1024h-92zM141 1249v144h92v-144h-92zM530 -471l-92 -41v1536h92v-1495zM438 1249v144h92v-144h-92z" />
<glyph unicode="&#x134;" horiz-adv-x="630" d="M397 367v1067h103v-1067q0 -176 -89 -271.5t-257 -95.5h-105v94h103q245 0 245 273zM495 1844l221 -277h-102l-160 182l-161 -182h-103l223 277h82z" />
<glyph unicode="&#x135;" horiz-adv-x="354" d="M223 -471l-92 -41v1536h92v-1495zM219 1434l221 -277h-102l-160 182l-162 -182h-102l223 277h82z" />
<glyph unicode="&#x136;" horiz-adv-x="935" d="M303 670l-41 94h92l396 670h110l-411 -699l432 -735h-111l-395 670h-72zM150 1434h102v-1434h-102v1434zM451 -236h53q0 -90 -45 -90h-8v-47h8q48 0 73 37.5t25 99.5v103h-106v-103z" />
<glyph unicode="&#x137;" horiz-adv-x="837" d="M141 1520l92 16v-1536h-92v1520zM754 1024l-344 -500l344 -524h-107l-315 483h-45l-41 88h88l313 453h107zM360 -236h54q0 -90 -45 -90h-9v-47h9q48 0 73 37.5t25 99.5v103h-107v-103z" />
<glyph unicode="&#x138;" horiz-adv-x="837" d="M141 0v1024h92v-557l410 557h111l-328 -446l360 -578h-102l-315 500l-136 -160v-340h-92z" />
<glyph unicode="&#x139;" horiz-adv-x="827" d="M150 1434h102v-1340h532v-94h-634v1434zM496 1844l-246 -277h-82l184 277h144z" />
<glyph unicode="&#x13a;" horiz-adv-x="374" d="M141 1520l92 16v-1536h-92v1520zM438 1903l-245 -277h-82l184 277h143z" />
<glyph unicode="&#x13b;" horiz-adv-x="827" d="M150 1434h102v-1340h532v-94h-634v1434zM438 -236h54q0 -90 -46 -90h-8v-47h8q48 0 73.5 37.5t25.5 99.5v103h-107v-103z" />
<glyph unicode="&#x13c;" horiz-adv-x="374" d="M141 1520l92 16v-1536h-92v1520zM133 -236h53q0 -90 -45 -90h-8v-47h8q48 0 73.5 37.5t25.5 99.5v103h-107v-103z" />
<glyph unicode="&#x13d;" horiz-adv-x="827" d="M150 1434h102v-1340h532v-94h-634v1434zM466 1844l-221 -277h-82l-223 277h103l161 -183l160 183h102z" />
<glyph unicode="&#x13e;" horiz-adv-x="512" d="M141 1520l92 16v-1536h-92v1520zM373 1319h59q0 -98 -51 -98h-8v-54h8q54 0 82.5 41.5t28.5 110.5v115h-119v-115z" />
<glyph unicode="&#x141;" horiz-adv-x="827" d="M150 1434h102v-1340h532v-94h-634v1434zM621 836l-621 -291l-37 80l621 290z" />
<glyph unicode="&#x142;" horiz-adv-x="583" d="M244 1520l92 16v-1536h-92v1520zM621 836l-621 -291l-37 80l621 290z" />
<glyph unicode="&#x143;" horiz-adv-x="1038" d="M743 0l-372 961l-135 380h-5q1 -47 11 -251t10 -314v-776h-102v1434h143l373 -961l135 -381h4q-1 47 -11 251t-10 314v777h103v-1434h-144zM764 1844l-246 -277h-82l184 277h144z" />
<glyph unicode="&#x144;" horiz-adv-x="913" d="M141 936v88h340q135 0 215 -76.5t80 -189.5v-758h-92v758q0 79 -52 128.5t-167 49.5h-324zM141 0v889l92 41v-930h-92zM621 1434l-246 -277h-82l184 277h144z" />
<glyph unicode="&#x145;" horiz-adv-x="1038" d="M743 0l-372 961l-135 380h-5q1 -47 11 -251t10 -314v-776h-102v1434h143l373 -961l135 -381h4q-1 47 -11 251t-10 314v777h103v-1434h-144zM465 -236h53q0 -90 -45 -90h-8v-47h8q48 0 73 37.5t25 99.5v103h-106v-103z" />
<glyph unicode="&#x146;" horiz-adv-x="913" d="M141 936v88h340q135 0 215 -76.5t80 -189.5v-758h-92v758q0 79 -52 128.5t-167 49.5h-324zM141 0v889l92 41v-930h-92zM403 -236h54q0 -90 -45 -90h-9v-47h9q48 0 73 37.5t25 99.5v103h-107v-103z" />
<glyph unicode="&#x147;" horiz-adv-x="1038" d="M743 0l-372 961l-135 380h-5q1 -47 11 -251t10 -314v-776h-102v1434h143l373 -961l135 -381h4q-1 47 -11 251t-10 314v777h103v-1434h-144zM782 1844l-221 -277h-82l-223 277h103l161 -183l160 183h102z" />
<glyph unicode="&#x148;" horiz-adv-x="913" d="M141 936v88h340q135 0 215 -76.5t80 -189.5v-758h-92v758q0 79 -52 128.5t-167 49.5h-324zM141 0v889l92 41v-930h-92zM719 1434l-221 -277h-82l-223 277h102l162 -183l159 183h103z" />
<glyph unicode="&#x14a;" horiz-adv-x="1095" d="M743 0l-372 961l-135 380h-5q1 -47 11 -251t10 -314v-776h-102v1434h143l373 -961l135 -381h4q-1 47 -11 251t-10 314v777h103v-1313l2 2v-328q0 -139 -57.5 -223t-182.5 -84h-37v88h37q55 0 89 32.5t46.5 78.5t12.5 108v205h-54z" />
<glyph unicode="&#x14b;" horiz-adv-x="913" d="M684 -287v1045q0 79 -52 128.5t-167 49.5h-324v88h340q135 0 215 -76.5t80 -189.5v-1045q0 -102 -57 -163.5t-182 -61.5h-37v88h37q147 0 147 137zM141 0v889l92 41v-930h-92z" />
<glyph unicode="&#x14c;" horiz-adv-x="1019" d="M786 1016l103 41v-690q0 -181 -89 -279t-257 -98h-66q-168 0 -257 98t-89 279v700q0 181 89 279t257 98h66q167 0 256.5 -98t89.5 -279h-103q0 283 -245 283h-62q-246 0 -246 -283v-700q0 -283 246 -283h62q120 0 182.5 71t62.5 212v649zM199 1616v86h624v-86h-624z" />
<glyph unicode="&#x14d;" horiz-adv-x="903" d="M686 276v410l92 41v-451q0 -123 -86.5 -204.5t-240.5 -81.5t-241 81.5t-87 204.5v472q0 123 87 204.5t241 81.5t240.5 -81.5t86.5 -204.5h-92q0 86 -62 142t-173 56t-173.5 -56.5t-62.5 -141.5v-472q0 -85 62.5 -141.5t173.5 -56.5t173 56t62 142zM139 1206v86h625v-86 h-625z" />
<glyph unicode="&#x14e;" horiz-adv-x="1019" d="M786 1016l103 41v-690q0 -181 -89 -279t-257 -98h-66q-168 0 -257 98t-89 279v700q0 181 89 279t257 98h66q167 0 256.5 -98t89.5 -279h-103q0 283 -245 283h-62q-246 0 -246 -283v-700q0 -283 246 -283h62q120 0 182.5 71t62.5 212v649zM675 1788h88 q0 -122 -62.5 -178.5t-188.5 -56.5q-127 0 -190.5 56.5t-63.5 178.5h88q0 -87 39.5 -119t126.5 -32q85 0 124 32t39 119z" />
<glyph unicode="&#x14f;" horiz-adv-x="903" d="M686 276v410l92 41v-451q0 -123 -86.5 -204.5t-240.5 -81.5t-241 81.5t-87 204.5v472q0 123 87 204.5t241 81.5t240.5 -81.5t86.5 -204.5h-92q0 86 -62 142t-173 56t-173.5 -56.5t-62.5 -141.5v-472q0 -85 62.5 -141.5t173.5 -56.5t173 56t62 142zM616 1378h89 q0 -122 -63 -178.5t-189 -56.5q-127 0 -190.5 56.5t-63.5 178.5h88q0 -87 39.5 -119t126.5 -32q85 0 124 32t39 119z" />
<glyph unicode="&#x150;" horiz-adv-x="1019" d="M786 1016l103 41v-690q0 -181 -89 -279t-257 -98h-66q-168 0 -257 98t-89 279v700q0 181 89 279t257 98h66q167 0 256.5 -98t89.5 -279h-103q0 283 -245 283h-62q-246 0 -246 -283v-700q0 -283 246 -283h62q120 0 182.5 71t62.5 212v649zM606 1844l-226 -277h-81l163 277 h144zM843 1844l-225 -277h-82l164 277h143z" />
<glyph unicode="&#x151;" horiz-adv-x="903" d="M686 686v-410q0 -86 -62 -142t-173 -56t-173.5 56.5t-62.5 141.5v472q0 85 62.5 141.5t173.5 56.5t173 -56t62 -142h92q0 123 -86.5 204.5t-240.5 81.5t-241 -81.5t-87 -204.5v-472q0 -123 87 -204.5t241 -81.5t240.5 81.5t86.5 204.5v451zM567 1434l-225 -277h-82 l164 277h143zM805 1434l-225 -277h-82l164 277h143z" />
<glyph unicode="&#x152;" horiz-adv-x="1437" d="M502 1444q155 0 241 -98v88h594v-95h-491v-972q0 -273 246 -273h245v-94h-247q-221 0 -293 176q-72 -186 -295 -186h-25q-167 0 -256.5 98t-89.5 279v700q0 181 89 279t257 98h25zM500 84q120 0 182.5 71t62.5 212h-2v749q-10 116 -72.5 175t-170.5 59h-21 q-246 0 -246 -283v-700q0 -283 246 -283h21zM897 670l-41 94h379v-94h-338z" />
<glyph unicode="&#x153;" horiz-adv-x="1437" d="M1288 0h-282q-114 0 -184.5 58.5t-90.5 156.5q-18 -100 -90.5 -162.5t-189.5 -62.5q-154 0 -241 81.5t-87 204.5v472q0 123 87 204.5t241 81.5q114 0 186 -60t92 -157q18 101 89.5 164t187.5 63q147 0 230 -76t83 -190v-295h-492l-41 88h441v207q0 77 -58.5 127.5 t-162.5 50.5q-110 0 -170 -56t-60 -142v-471q0 -87 60 -143t170 -56h282v-88zM686 276v472q0 86 -62 142t-173 56t-173.5 -56.5t-62.5 -141.5v-472q0 -85 62.5 -141.5t173.5 -56.5t173 56t62 142z" />
<glyph unicode="&#x154;" horiz-adv-x="913" d="M313 543l-41 94h185q115 0 180 73t65 181v194q0 108 -65 181t-180 73h-307v95h307q162 0 255 -100.5t93 -248.5v-194q0 -112 -54 -199.5t-153 -124.5l211 -567h-109l-211 543h-176zM150 1286v-1286h102v1327zM703 1844l-246 -277h-82l184 277h144z" />
<glyph unicode="&#x155;" horiz-adv-x="544" d="M141 0v717q0 133 84.5 220t237.5 87h51v-88h-51q-110 0 -170 -62t-60 -157v-717h-92zM518 1434l-246 -277h-82l185 277h143z" />
<glyph unicode="&#x156;" horiz-adv-x="913" d="M313 543l-41 94h185q115 0 180 73t65 181v194q0 108 -65 181t-180 73h-307v95h307q162 0 255 -100.5t93 -248.5v-194q0 -112 -54 -199.5t-153 -124.5l211 -567h-109l-211 543h-176zM150 1286v-1286h102v1327zM403 -236h54q0 -90 -45 -90h-9v-47h9q48 0 73 37.5t25 99.5 v103h-107v-103z" />
<glyph unicode="&#x157;" horiz-adv-x="544" d="M141 0v717q0 133 84.5 220t237.5 87h51v-88h-51q-110 0 -170 -62t-60 -157v-717h-92zM133 -236h53q0 -90 -45 -90h-8v-47h8q48 0 73.5 37.5t25.5 99.5v103h-107v-103z" />
<glyph unicode="&#x158;" horiz-adv-x="913" d="M313 543l-41 94h185q115 0 180 73t65 181v194q0 108 -65 181t-180 73h-307v95h307q162 0 255 -100.5t93 -248.5v-194q0 -112 -54 -199.5t-153 -124.5l211 -567h-109l-211 543h-176zM150 1286v-1286h102v1327zM718 1844l-221 -277h-82l-223 277h103l161 -183l160 183h102z " />
<glyph unicode="&#x159;" horiz-adv-x="544" d="M141 0v717q0 133 84.5 220t237.5 87h51v-88h-51q-110 0 -170 -62t-60 -157v-717h-92zM600 1434l-221 -277h-82l-223 277h102l162 -183l160 183h102z" />
<glyph unicode="&#x15a;" horiz-adv-x="907" d="M805 367q0 -176 -90.5 -271.5t-259.5 -95.5h-334v94h334q247 0 247 268q0 79 -18.5 132.5t-65 87.5t-75 47t-98.5 35q-15 5 -23 8q-45 14 -74.5 25.5t-68.5 31t-65 44t-51 58.5t-39 80.5t-18 104.5l101 41q1 -44 9 -80t19.5 -61.5t32 -47t39 -35.5t48 -27t52 -21 t57.5 -19q13 -4 19 -6q48 -16 83 -30.5t74.5 -37t67 -51.5t51 -67.5t35 -90.5t11.5 -116zM451 1434h309v-95h-307q-246 0 -246 -272h-103q0 176 89.5 271.5t257.5 95.5zM699 1844l-246 -277h-82l184 277h144z" />
<glyph unicode="&#x15b;" horiz-adv-x="819" d="M104 690l89 39q6 -31 22 -55.5t33.5 -39.5t49 -29.5t52.5 -21.5t60 -18q71 -20 115 -35.5t87 -39.5t65.5 -52.5t36 -70t13.5 -97.5q0 -128 -82.5 -199t-228.5 -71h-320v88h320q101 0 160 47t59 129q0 49 -14.5 82.5t-50 57t-75 38.5t-108.5 33q-113 30 -159 55 q-100 54 -124 160zM188 768v-20h-92v16q0 118 82.5 189t227.5 71h260v-88h-260q-101 0 -159.5 -47t-58.5 -121zM655 1434l-245 -277h-82l184 277h143z" />
<glyph unicode="&#x15c;" horiz-adv-x="907" d="M805 367q0 -176 -90.5 -271.5t-259.5 -95.5h-334v94h334q247 0 247 268q0 79 -18.5 132.5t-65 87.5t-75 47t-98.5 35q-15 5 -23 8q-45 14 -74.5 25.5t-68.5 31t-65 44t-51 58.5t-39 80.5t-18 104.5l101 41q1 -44 9 -80t19.5 -61.5t32 -47t39 -35.5t48 -27t52 -21 t57.5 -19q13 -4 19 -6q48 -16 83 -30.5t74.5 -37t67 -51.5t51 -67.5t35 -90.5t11.5 -116zM451 1434h309v-95h-307q-246 0 -246 -272h-103q0 176 89.5 271.5t257.5 95.5zM495 1844l221 -277h-102l-160 182l-161 -182h-103l223 277h82z" />
<glyph unicode="&#x15d;" horiz-adv-x="819" d="M104 690l89 39q6 -31 22 -55.5t33.5 -39.5t49 -29.5t52.5 -21.5t60 -18q71 -20 115 -35.5t87 -39.5t65.5 -52.5t36 -70t13.5 -97.5q0 -128 -82.5 -199t-228.5 -71h-320v88h320q101 0 160 47t59 129q0 49 -14.5 82.5t-50 57t-75 38.5t-108.5 33q-113 30 -159 55 q-100 54 -124 160zM188 768v-20h-92v16q0 118 82.5 189t227.5 71h260v-88h-260q-101 0 -159.5 -47t-58.5 -121zM451 1434l221 -277h-103l-159 182l-162 -182h-103l224 277h82z" />
<glyph unicode="&#x15e;" horiz-adv-x="907" d="M805 367q0 -170 -84.5 -265.5t-243.5 -101.5l-28 -96q85 -4 123 -47.5t38 -94.5q0 -52 -40.5 -94.5t-120.507550B0A7C" />
<glyph unicode="&#x15f;" horiz-adv-x="819" d="M104 690l89 39q6 -31 22 -55.5t33.5 -39.5t49 -29.5t52.5 -21.5t60 -18q71 -20 115 -35.5t87 -39.5t65.5 -52.5t36 -70t13.5 -97.5q0 -125 -78.5 -195t-216.5 -75l-29 -96q85 -4 123.5 -47.5t38.5 -94.5q0 -52 -41 -94.5t-121 -42.5q-94 0 -151 29l20 55q55 -22 121 -22 q36 0 62 19t26 56q0 36 -30 58t-78 22h-13l-32 27l41 131h-273v88h320q101 0 160 47t59 129q0 49 -14.5 82.5t-50 57t-75 38.5t-108.5 33q-113 30 -159 55q-100 54 -124 160zM188 768v-20h-92v16q0 118 82.5 189t227.5 71h260v-88h-260q-101 0 -159.5 -47t-58.5 -121z" />
<glyph unicode="&#x160;" horiz-adv-x="907" d="M805 367q0 -176 -90.5 -271.5t-259.5 -95.5h-334v94h334q247 0 247 268q0 79 -18.5 132.5t-65 87.5t-75 47t-98.5 35q-15 5 -23 8q-45 14 -74.5 25.5t-68.5 31t-65 44t-51 58.5t-39 80.5t-18 104.5l101 41q1 -44 9 -80t19.5 -61.5t32 -47t39 -35.5t48 -27t52 -21 t57.5 -19q13 -4 19 -6q48 -16 83 -30.5t74.5 -37t67 -51.5t51 -67.5t35 -90.5t11.5 -116zM451 1434h309v-95h-307q-246 0 -246 -272h-103q0 176 89.5 271.5t257.5 95.5zM716 1844l-221 -277h-82l-223 277h103l161 -183l160 183h102z" />
<glyph unicode="&#x161;" horiz-adv-x="819" d="M104 690l89 39q6 -31 22 -55.5t33.5 -39.5t49 -29.5t52.5 -21.5t60 -18q71 -20 115 -35.5t87 -39.5t65.5 -52.5t36 -70t13.5 -97.5q0 -128 -82.5 -199t-228.5 -71h-320v88h320q101 0 160 47t59 129q0 49 -14.5 82.5t-50 57t-75 38.5t-108.5 33q-113 30 -159 55 q-100 54 -124 160zM188 768v-20h-92v16q0 118 82.5 189t227.5 71h260v-88h-260q-101 0 -159.5 -47t-58.5 -121zM672 1434l-221 -277h-82l-224 277h103l162 -183l159 183h103z" />
<glyph unicode="&#x162;" horiz-adv-x="815" d="M332 -131l41 131h-17v1292l103 41v-1333h-23l-28 -96q85 -4 123 -47.5t38 -94.5q0 -52 -40.5 -94.5t-120.5 -42.5q-95 0 -152 29l20 55q55 -22 121 -22q36 0 62 19t26 56q0 36 -30 58t-78 22h-12zM756 1339h-697v95h697v-95z" />
<glyph unicode="&#x163;" horiz-adv-x="643" d="M319 -131l43 139q-116 25 -177.5 123t-61.5 238v880h92v-880q0 -58 11 -105t35.5 -88.5t71 -64.5t111.5 -23h138v-88h-158l-29 -96q85 -4 123.5 -47.5t38.5 -94.5q0 -52 -41 -94.5t-121 -42.5q-94 0 -151 29l20 55q55 -22 121 -22q36 0 62 19t26 56q0 36 -30 58t-78 22 h-13zM260 932l-41 82h342v-82h-301z" />
<glyph unicode="&#x164;" horiz-adv-x="815" d="M356 1292l103 41v-1333h-103v1292zM756 1339h-697v95h697v-95zM669 1844l-221 -277h-82l-223 277h103l161 -183l160 183h102z" />
<glyph unicode="&#x165;" horiz-adv-x="643" d="M215 1249v-880q0 -58 11 -105t35.5 -88.5t71 -64.5t111.5 -23h138v-88h-138q-154 0 -237.5 103t-83.5 266v880h92zM260 932l-41 82h342v-82h-301zM584 1319h-59v115h118v-115q0 -69 -28 -110.5t-82 -41.5h-8v54h8q51 0 51 98z" />
<glyph unicode="&#x166;" horiz-adv-x="815" d="M356 1292l103 41v-311h262v-86h-262v-936h-103v936h-260v86h260v270zM756 1339h-697v95h697v-95z" />
<glyph unicode="&#x167;" horiz-adv-x="643" d="M215 1249v-880q0 -58 11 -105t35.5 -88.5t71 -64.5t111.5 -23h138v-88h-138q-154 0 -237.5 103t-83.5 266v880h92zM260 932l-41 82h342v-82h-301zM260 686l-41 82h342v-82h-301z" />
<glyph unicode="&#x168;" horiz-adv-x="980" d="M848 1434v-1127q0 -135 -95.5 -226t-263.5 -91t-263 91t-95 226v1127h102v-1127q0 -95 68 -159t188 -64t188 64t68 159v1127h103zM627 1637q51 0 121 67l49 -45q-101 -90 -166 -90q-50 0 -149 51q-98 52 -125 52q-56 0 -129 -64l-45 45q91 88 172 88q54 0 143 -53 q84 -51 129 -51z" />
<glyph unicode="&#x169;" horiz-adv-x="911" d="M674 1024h92v-748q0 -123 -83 -204.5t-232 -81.5t-232.5 81.5t-83.5 204.5v748h92v-748q0 -86 59 -142t165 -56t164.5 56t58.5 142v748zM592 1227q51 0 121 67l49 -45q-101 -90 -166 -90q-51 0 -150 51q-98 52 -124 52q-56 0 -129 -64l-46 45q91 88 172 88q55 0 144 -53 q84 -51 129 -51z" />
<glyph unicode="&#x16a;" horiz-adv-x="980" d="M848 1434v-1127q0 -135 -95.5 -226t-263.5 -91t-263 91t-95 226v1127h102v-1127q0 -95 68 -159t188 -64t188 64t68 159v1127h103zM179 1616v86h624v-86h-624z" />
<glyph unicode="&#x16b;" horiz-adv-x="911" d="M674 1024h92v-748q0 -123 -83 -204.5t-232 -81.5t-232.5 81.5t-83.5 204.5v748h92v-748q0 -86 59 -142t165 -56t164.5 56t58.5 142v748zM143 1206v86h625v-86h-625z" />
<glyph unicode="&#x16c;" horiz-adv-x="980" d="M848 1434v-1127q0 -135 -95.5 -226t-263.5 -91t-263 91t-95 226v1127h102v-1127q0 -95 68 -159t188 -64t188 64t68 159v1127h103zM655 1788h88q0 -122 -62.5 -178.5t-188.5 -56.5q-127 0 -190.5 56.5t-63.5 178.5h88q0 -87 39.5 -119t126.5 -32q85 0 124 32t39 119z" />
<glyph unicode="&#x16d;" horiz-adv-x="911" d="M674 1024h92v-748q0 -123 -83 -204.5t-232 -81.5t-232.5 81.5t-83.5 204.5v748h92v-748q0 -86 59 -142t1650930988AA3" />
<glyph unicode="&#x16e;" horiz-adv-x="980" d="M848 1434v-1127q0 -135 -95.5 -226t-263.5 -91t-263 91t-95 226v1127h102v-1127q0 -95 68 -159t188 -64t188 64t68 159v1127h103zM305 1659q0 77 54 131t130 54q77 0 131 -54t54 -131q0 -76 -54 -130t-131 -54t-130.5 53.5t-53.5 130.5zM387 1659q0 -43 29.5 -72.5 t72.5 -29.5t73 29.5t30 72.5t-30 73t-73 30t-72.5 -30t-29.5 -73z" />
<glyph unicode="&#x16f;" horiz-adv-x="911" d="M766 1024h-92v-748q0 -86 -58.5 -142t-164.5 -56t-165 56t-59 142v748h-92v-748q0 -123 83.5 -204.5t232.5 -81.5t232 81.5t83 204.5v748zM270 1249q0 77 54 131t131 54q76 0 130 -54t54 -131t-53.5 -130.5t-130.5 -53.5t-131 54t-54 130zM352 1249q0 -43 30 -72.5 t73 -29.5t72.5 29.5t29.5 72.5t-29.5 73t-72.5 30t-73 -30t-30 -73z" />
<glyph unicode="&#x170;" horiz-adv-x="980" d="M848 1434v-1127q0 -135 -95.5 -226t-263.5 -91t-263 91t-95 226v1127h102v-1127q0 -95 68 -159t188 -64t188 64t68 159v1127h103zM606 1844l-226 -277h-81l163 277h144zM843 1844l-225 -277h-82l164 277h143z" />
<glyph unicode="&#x171;" horiz-adv-x="911" d="M766 1024h-92v-748q0 -86 -58.5 -142t-164.5 -56t-165 56t-59 142v748h-92v-748q0 -123 83.5 -204.5t232.5 -81.5t232 81.5t83 204.5v748zM571 1434l-225 -277h-82l164 277h143zM809 1434l-225 -277h-82l164 277h143z" />
<glyph unicode="&#x172;" horiz-adv-x="980" d="M848 1434v-1086q0 -97 -39 -178.5t-111 -130.5q-45 -44 -73.5 -97.5t-28.5 -95.5t24.5 -65t67.5 -23q38 0 100 29l31 -74q-71 -43 -153 -43q-72 0 -118 45.5t-46 112.5q0 77 63 160q-50 -8 -76 -8q-168 0 -263 105.5t-95 262.5v1086h102v-1086q0 -116 68 -195t188 -79 t188 79t68 195v1086h103z" />
<glyph unicode="&#x173;" horiz-adv-x="911" d="M440 -172q0 79 70 166q-36 -4 -59 -4q-149 0 -232.5 81.5t-83.5 204.5v748h92v-748q0 -86 59 -142t165 -5602B37FEAD6" />
<glyph unicode="&#x174;" horiz-adv-x="1454" d="M662 899l-193 -899h-102l-308 1434h101l192 -897q13 -58 23.5 -121t23 -153t17.5 -122h4q6 37 17.5 123.5t22 150.5t23.5 122l193 897h102l193 -897q13 -58 23.5 -122t22 -150.5t17.5 -123.5h4q5 32 17.5 122t23 153t23.5 121l192 897h101l-308 -1434h-102l-192 899 q-13 58 -23.5 120.5t-23 153t-17.5 121.5h-4q-6 -37 -17.5 -123t-22 -150t-23.5 -122zM768 1844l221 -277h-102l-160 182l-161 -182h-103l223 277h82z" />
<glyph unicode="&#x175;" horiz-adv-x="1187" d="M1036 1024h92l-245 -1024h-90l-156 649q-9 36 -16 78.5t-13.5 93.5t-11.5 80h-4q-2 -10 -15.5 -106.5t-25.5 -145.5l-156 -649h-90l-246 1024h93l153 -649q9 -37 16 -78t15 -94.5t12 -79.5h4q4 26 12 79.5t15 94.5t16 78l154 649h90l154 -649q9 -37 16 -78t15 -94.5 t12 -79.5h4q4 26 12 79.5t15 94.5t16 78zM635 1434l221 -277h-102l-160 182l-162 -182h-102l223 277h82z" />
<glyph unicode="&#x176;" horiz-adv-x="919" d="M541 907l213 527h106l-350 -871v-563h-102v563l-349 871h109l209 -527q15 -35 28 -76.5t28 -91t24 -77.5h4q9 28 24 77.5t28 91t28 76.5zM501 1844l221 -277h-102l-160 182l-161 -182h-103l223 277h82z" />
<glyph unicode="&#x177;" horiz-adv-x="849" d="M137 1024l191 -659q22 -74 52.5 -215t37.5 -170h4q9 38 26.5 120.5t31.5 145t30 119.5l180 659h90l-420 -1536h-90l105 379l-332 1157h94zM467 1434l221 -277h-102l-160 182l-162 -182h-102l223 277h82z" />
<glyph unicode="&#x178;" horiz-adv-x="919" d="M541 907l213 527h106l-350 -871v-563h-102v563l-349 871h109l209 -527q15 -35 28 -76.5t28 -91t24 -77.5h4q9 28 24 77.5t28 91t28 76.5zM260 1567v184h92v-184h-92zM567 1567v184h92v-184h-92z" />
<glyph unicode="&#x179;" horiz-adv-x="788" d="M721 1354l-545 -1260h545v-94h-655v80l544 1259h-544v95h655v-80zM639 1844l-246 -277h-82l184 277h144z" />
<glyph unicode="&#x17a;" horiz-adv-x="747" d="M182 88l488 862v74h-594v-88h487l-487 -862v-74h594v88h-488zM618 1434l-245 -277h-82l184 277h143z" />
<glyph unicode="&#x17b;" horiz-adv-x="788" d="M721 1354l-545 -1260h545v-94h-655v80l544 1259h-544v95h655v-80zM349 1567v184h92v-184h-92z" />
<glyph unicode="&#x17c;" horiz-adv-x="747" d="M670 950l-488 -862h488v-88h-594v74l487 862h-487v88h594v-74zM328 1157v184h92v-184h-92z" />
<glyph unicode="&#x17d;" horiz-adv-x="788" d="M721 1354l-545 -1260h545v-94h-655v80l544 1259h-544v95h655v-80zM657 1844l-221 -277h-82l-223 277h103l161 -183l160 183h102z" />
<glyph unicode="&#x17e;" horiz-adv-x="747" d="M670 950l-488 -862h488v-88h-594v74l487 862h-487v88h594v-74zM637 1434l-221 -277h-82l-223 277h102l162 -183l160 183h102z" />
<glyph unicode="&#x192;" horiz-adv-x="688" d="M299 1219v-1321q0 -116 -84 -191.5t-238 -75.5v84q65 0 111.5 15t71.5 41.5t36 57.5t11 69v1034h-164v82h164v205q0 126 83.5 206t237.5 80h76v-84h-76q-65 0 -111.5 -16.5t-71 -46t-35.5 -63.5t-11 -76zM350 932l-41 82h336v-82h-295z" />
<glyph unicode="&#x1fd;" horiz-adv-x="1396" d="M1247 0h-282q-116 0 -187.5 61t-89.5 162q-20 -106 -93 -169.5t-198 -63.5q-161 0 -228 71.5t-67 204.5q0 254 308 303l192 33l37 -84l-215 -39q-229 -38 -229 -215q0 -44 7.5 -74t29 -56t65 -39t109.5 -13q116 0 177.5 63t61.5 162v430q0 85 -56 142t-153 57h-262v88 h262q101 0 166 -57t86 -152q16 102 88 165.5t189 63.5q147 0 230 -76t83 -190v-295h-492l-41 88h441v207q0 77 -58.5 127.5t-162.5 50.5q-110 0 -170 -56t-60 -142v-471q0 -87 60 -143t170 -56h282v-88zM944 1434l-246 -277h-82l184 277h144z" />
<glyph unicode="&#x1ff;" horiz-adv-x="903" d="M686 686v-410q0 -86 -62 -142t-173 -56q-138 0 -199 84l432 614q0 -4 1 -13.5t1 -14.5h92q0 63 -28 124l110 156l-63 47l-95 -135q-91 94 -251 94q-154 0 -241 -81.5t-87 -204.5v-472q0 -66 27 -124l-109 -154l63 -47l93 133q91 -94 254 -94q154 0 240.5 81.5t86.5 204.5 v451zM451 946q135 0 196 -84l-430 -614q-2 8 -2 28v472q0 85 62.5 141.5t173.5 56.5zM702 1434l-245 -277h-82l184 277h143z" />
<glyph unicode="&#x218;" horiz-adv-x="907" d="M805 367q0 -176 -90.5 -271.5t-259.5 -95.5h-334v94h334q247 0 247 268q0 79 -18.5 132.5t-65 87.5t-75 47t-98.5 35q-15 5 -23 8q-45 14 -74.5 25.5t-68.5 31t-65 44t-51 58.5t-39 80.5t-18 104.5l101 41q1 -44 9 -80t19.5 -61.5t32 -47t39 -35.5t48 -27t52 -21 t57.5 -19q13 -4 19 -6q48 -16 83 -30.5t74.5 -37t67 -51.5t51 -67.5t35 -90.5t11.5 -116zM451 1434h309v-95h-307q-246 0 -246 -272h-103q0 176 89.5 271.5t257.5 95.5zM453 -236h-54v103h107v-103q0 -62 -25 -99.5t-73 -37.5h-9v47h9q45 0 45 90z" />
<glyph unicode="&#x219;" horiz-adv-x="819" d="M104 690l89 39q6 -31 22 -55.5t33.5 -39.5t49 -29.5t52.5 -21.5t60 -18q71 -20 115 -35.5t87 -39.5t65.5 -52.5t36 -70t13.5 -97.5q0 -128 -82.5 -199t-228.5 -71h-320v88h320q101 0 160 47t59 129q0 49 -14.5 82.5t-50 57t-75 38.5t-108.5 33q-113 30 -159 55 q-100 54 -124 160zM188 768v-20h-92v16q0 118 82.5 189t227.5 71h260v-88h-260q-101 0 -159.5 -47t-58.5 -121zM356 -236h54q0 -90 -45 -90h-9v-47h9q48 0 73 37.5t25 99.5v103h-107v-103z" />
<glyph unicode="&#x21a;" horiz-adv-x="815" d="M356 1292l103 41v-1333h-103v1292zM756 1339h-697v95h697v-95zM354 -236h54q0 -90 -46 -90h-8v-47h8q48 0 73.5 37.5t25.5 99.5v103h-107v-103z" />
<glyph unicode="&#x21b;" horiz-adv-x="643" d="M215 1249v-880q0 -58 11 -105t35.5 -88.5t71 -64.5t111.5 -23h138v-88h-138q-154 0 -237.5 103t-83.5 266v880h92zM260 932l-41 82h342v-82h-301zM268 -236h54q0 -90 -46 -90h-8v-47h8q48 0 73.5 37.5t25.5 99.5v103h-107v-103z" />
<glyph unicode="&#x2c6;" horiz-adv-x="792" d="M438 1434l221 -277h-102l-160 182l-161 -182h-103l223 277h82z" />
<glyph unicode="&#x2c7;" horiz-adv-x="792" d="M659 1434l-221 -277h-82l-223 277h103l161 -183l160 183h102z" />
<glyph unicode="&#x2d8;" horiz-adv-x="731" d="M530 1378h88q0 -122 -62.5 -178.5t-188.5 -56.5q-127 0 -190.5 56.5t-63.5 178.5h88q0 -87 39.5 -119t126.5 -32q85 0 124 32t39 119z" />
<glyph unicode="&#x2d9;" horiz-adv-x="317" d="M113 1157v184h92v-184h-92z" />
<glyph unicode="&#x2da;" horiz-adv-x="454" d="M43 1249q0 77 54 131t130 54q77 0 131 -54t54 -131q0 -76 -54 -130t-131 -54t-130.5 53.5t-53.5 130.5zM125 1249q0 -43 29.5 -72.5t72.5 -29.5t73 29.5t30 72.5t-30 73t-73 30t-72.5 -30t-29.5 -73z" />
<glyph unicode="&#x2db;" horiz-adv-x="579" d="M131 -172q0 99 115 217l45 -45q-66 -87 -66 -154q0 -42 24.5 -65t67.5 -23q39 0 101 29l31 -74q-71 -43 -154 -43q-72 0 -118 45.5t-46 112.5z" />
<glyph unicode="&#x2dc;" horiz-adv-x="839" d="M557 1227q51 0 121 67l49 -45q-101 -90 -166 -90q-50 0 -149 51q-98 52 -125 52q-56 0 -129 -64l-45 45q91 88 172 88q54 0 143 -53q84 -51 129 -51z" />
<glyph unicode="&#x2dd;" horiz-adv-x="761" d="M416 1434l-226 -277h-81l163 277h144zM653 1434l-225 -277h-82l164 277h143z" />
<glyph unicode="&#x400;" horiz-adv-x="884" d="M303 670l-41 94h420v-94h-379zM784 0h-288q-168 0 -257 95.5t-89 271.5v1067h634v-95h-532v-972q0 -273 246 -273h286v-94zM502 1567l-246 277h143l185 -277h-82z" />
<glyph unicode="&#x401;" horiz-adv-x="884" d="M303 670l-41 94h420v-94h-379zM784 0h-288q-168 0 -257 95.5t-89 271.5v1067h634v-95h-532v-972q0 -273 246 -273h286v-94zM285 1567v184h92v-184h-92zM592 1567v184h92v-184h-92z" />
<glyph unicode="&#x402;" horiz-adv-x="1089" d="M856 348v297q0 144 -60 219.5t-210 75.5q-149 0 -242 -131v-809h-102v1339h-195v95h717v-95h-420v-120q0 -67 -14 -291q96 106 276 106q111 0 192 -54t120.5 -141t39.5 -194v-297q0 -154 -83.5 -251t-237.5 -97h-76v94h76q105 0 162 71t57 183z" />
<glyph unicode="&#x403;" horiz-adv-x="765" d="M252 0h-102v1434h573v-95h-471v-1339zM629 1843l-246 -276h-82l184 276h144z" />
<glyph unicode="&#x404;" horiz-adv-x="847" d="M285 670l-41 94h461v-94h-420zM233 1067v-700q0 -273 246 -273h307v-94h-309q-168 0 -257 95.5t-89 271.5v700q0 176 89 271.5t257 95.5h309v-95h-307q-246 0 -246 -272z" />
<glyph unicode="&#x405;" horiz-adv-x="907" d="M805 367q0 -176 -90.5 -271.5t-259.5 -95.5h-334v94h334q247 0 247 268q0 79 -18.5 132.5t-65 87.5t-75 470A0E502AA1" />
<glyph unicode="&#x406;" horiz-adv-x="401" d="M150 1434h102v-1434h-102v1434z" />
<glyph unicode="&#x407;" horiz-adv-x="401" d="M2 1567v184h92v-184h-92zM309 1567v184h92v-184h-92zM150 1434h102v-1434h-102v1434z" />
<glyph unicode="&#x408;" horiz-adv-x="630" d="M397 367v1067h103v-1067q0 -176 -89 -271.5t-257 -95.5h-105v94h103q245 0 245 273z" />
<glyph unicode="&#x409;" horiz-adv-x="1331" d="M668 1339h-346l4 95h444v-1340h123q114 0 180 67t66 167v235q0 100 -65.5 167t-180.5 67h-72l-41 94h113q163 0 255.5 -94t92.5 -234v-235q0 -140 -92.5 -234t-255.5 -94h-225v1339zM119 0q49 0 88 25t69 73t52 130t38 182.5t27 244.5t18 303.5t11 370.5l-103 -41 q-8 -240 -15.5 -402.5t-19.5 -306t-27 -228t-38 -146.5t-52 -86.5t-69 -24.5h-55v-94h76z" />
<glyph unicode="&#x40a;" horiz-adv-x="1366" d="M303 670l-41 94h438v670h105v-1340h123q114 0 180 67t66 167v235q0 100 -65.5 167t-180.5 67h-92l-21 94h113q163 0 255.5 -94t92.5 -234v-235q0 -140 -92.5 -234t-255.5 -94h-228v670h-397zM252 1434v-1434h-102v1434h102z" />
<glyph unicode="&#x40b;" horiz-adv-x="1003" d="M737 1339h-696v95h696v-95zM358 0h-102v1288l102 41v-1329zM911 0h-102v543q0 108 -65.5 181t-180.5 73h-153l-41 94h194q162 0 255 -100t93 -248v-543z" />
<glyph unicode="&#x40c;" horiz-adv-x="935" d="M713 1843l-246 -276h-82l184 276h144zM303 670l-41 94h92l396 670h110l-411 -699l432 -735h-111l-395 670h-72zM150 1434h102v-1434h-102v1434z" />
<glyph unicode="&#x40d;" horiz-adv-x="1015" d="M788 1257h-4l-532 -1257h-102v1434h102v-627l-25 -633h4l533 1260h102v-1434h-102v627zM502 1567l-246 276h143l185 -276h-82z" />
<glyph unicode="&#x40e;" horiz-adv-x="919" d="M543 735l200 699h105l-338 -1172q-10 -43 -17.5 -70.5t-24.5 -69t-36.5 -65.5t-52 -42.5t-72.5 -18.5h-1060C00BF1A6B" />
<glyph unicode="&#x40f;" horiz-adv-x="1015" d="M160 0v1434h102v-1340h492v1340h102v-1434h-297v-307h-102v307h-297z" />
<glyph unicode="&#x410;" horiz-adv-x="1005" d="M842 0l-105 381h-395l-41 94h410l-142 522q-18 66 -38.5 191t-26.5 153h-4q-5 -23 -26.5 -150.5t-39.5 -193.5l-272 -997h-105l394 1434h102l393 -1434h-104z" />
<glyph unicode="&#x411;" horiz-adv-x="970" d="M303 766l-41 94h215q163 0 255.5 -87.5t92.5 -219.5v-246q0 -132 -92.5 -219.5t-255.5 -87.5h-327v1434h614v-95h-512v-1245h225q127 0 186.5 60t59.5 153v246q0 93 -59.5 153t-186.5 60h-174z" />
<glyph unicode="&#x412;" horiz-adv-x="950" d="M313 764h123q124 0 195 65.5t71 163.5v113q0 100 -65 166.5t-180 66.5h-307v95h307q163 0 255.5 -94t92.5 -234v-113q0 -95 -56.5 -168t-162.5 -106q114 -29 176.5 -104.5t62.5 -174.5v-112q0 -140 -92.5 -234t-255.5 -94h-174l-41 94h215q115 0 180.5 67t65.5 167v112 q0 98 -71 164t-195 66h-103zM150 0v1288l102 41v-1329h-102z" />
<glyph unicode="&#x413;" horiz-adv-x="765" d="M252 0h-102v1434h573v-95h-471v-1339z" />
<glyph unicode="&#x414;" horiz-adv-x="991" d="M43 -307v401h4q35 0 63 13.5t51 46.5t41 79t32.5 119.5t25.5 160t20 208.5t16 256t13 311l103 41q-14 -557 -53.5 -842.5t-131.5 -392.5h717v-401h-92v307h-717v-307h-92zM311 1339l4 95h527v-1289l-103 -41v1235h-428z" />
<glyph unicode="&#x415;" horiz-adv-x="884" d="M303 670l-41 94h420v-94h-379zM784 0h-288q-168 0 -257 95.5t-89 271.5v1067h634v-95h-532v-972q0 -273 246 -273h286v-94z" />
<glyph unicode="&#x416;" horiz-adv-x="1482" d="M844 670l-41 94h92l395 670h111l-412 -699l432 -735h-110l-396 670h-71zM61 0l431 735l-410 699h111l393 -670h53l41 -94h-113l-395 -670h-111zM690 1434h103v-1434h-103v1434z" />
<glyph unicode="&#x417;" horiz-adv-x="864" d="M66 94h309q120 0 191 61.5t71 151.5v133q0 98 -71 164t-191 66h-209l-41 94h246q115 0 180 65.5t65 163.5v133q0 91 -65 152t-180 61h-310v95h310q162 0 255 -88.5t93 -219.5v-133q0 -94 -53.5 -168.5t-151.5 -107.5q107 -32 166 -106.5t59 -170.5v-133 q0 -130 -97.5 -218.5t-266.5 -88.5h-309v94z" />
<glyph unicode="&#x418;" horiz-adv-x="1015" d="M788 1257h-4l-532 -1257h-102v1434h102v-627l-25 -633h4l533 1260h102v-1434h-102v627z" />
<glyph unicode="&#x419;" horiz-adv-x="1015" d="M788 1257h-4l-532 -1257h-102v1434h102v-627l-25 -633h4l533 1260h102v-1434h-102v627zM674 1788h88q0 -120292D37A5D" />
<glyph unicode="&#x41a;" horiz-adv-x="935" d="M303 670l-41 94h92l396 670h110l-411 -699l432 -735h-111l-395 670h-72zM150 1434h102v-1434h-102v1434z" />
<glyph unicode="&#x41b;" horiz-adv-x="980" d="M729 1339h-407l4 95h505v-1434h-102v1339zM119 0h-76v94h55q40 0 69 24.5t52 86.5t38 146.5t27 228t19.5 306t15.5 402.5l103 41q-4 -211 -11 -370.5t-18 -303.5t-27 -244.5t-38 -182.5t-52 -130t-69 -73t-88 -25z" />
<glyph unicode="&#x41c;" horiz-adv-x="1202" d="M696 745l191 689h164v-1434h-103v776q0 95 10 565h-4q-83 -340 -94 -380l-209 -760h-102l-209 760q-11 40 0BA5CF5A68" />
<glyph unicode="&#x41d;" horiz-adv-x="1015" d="M303 668l-41 98h502v668h102v-1434h-102v668h-461zM252 1434v-1434h-102v1434h102z" />
<glyph unicode="&#x41e;" horiz-adv-x="1019" d="M786 1016l103 41v-690q0 -181 -89 -279t-257 -98h-66q-168 0 -257 98t-89 279v700q0 181 89 279t257 98h66q167 0 256.5 -98t89.5 -279h-103q0 283 -245 283h-62q-246 0 -246 -283v-700q0 -283 246 -283h62q120 0 182.5 71t62.5 212v649z" />
<glyph unicode="&#x41f;" horiz-adv-x="995" d="M150 1434h696v-1434h-103v1339h-593v95zM150 1288l102 41v-1329h-102v1288z" />
<glyph unicode="&#x420;" horiz-adv-x="897" d="M303 543l-41 94h195q115 0 180 73t65 181v194q0 108 -65 181t-180 73h-205v-1339h-102v1434h307q162 0 255 -100.5t93 -248.5v-194q0 -148 -93 -248t-255 -100h-154z" />
<glyph unicode="&#x421;" horiz-adv-x="847" d="M131 1016v-649q0 -176 89 -271.5t257 -95.5h309v94h-307q-246 0 -246 273v690zM233 1067h-102q0 176 89 271.5t257 95.5h309v-95h-307q-246 0 -246 -272z" />
<glyph unicode="&#x422;" horiz-adv-x="815" d="M356 1292l103 41v-1333h-103v1292zM756 1339h-697v95h697v-95z" />
<glyph unicode="&#x423;" horiz-adv-x="919" d="M543 735l200 699h105l-338 -1172q-10 -43 -17.5 -70.5t-24.5 -69t-36.5 -65.5t-52 -42.5t-72.5 -18.5h-106v94h106q75 0 109 203l-346 1141h104l213 -699q16 -50 29 -107.5t27.5 -127.5t23.5 -109h4q6 32 20 107.5t25.5 130.5t26.5 106z" />
<glyph unicode="&#x424;" horiz-adv-x="1146" d="M676 184l-41 95h61q120 0 188 66.5t68 166.5v410q0 100 -67.5 166.5t-188.5 66.5h-71v-1155h-103v184h-71q-168 0 -263.5 94t-95.5 234v410q0 139 96 233t263 94h20l41 -94h-61q-120 0 -188 -66.5t-68 -166.5v-410q0 -100 67.5 -166.5t188.5 -66.5h71v1155h103v-185h71 q168 0 263.5 -93.5t95.5 -233.5v-410q0 -140 -96 -234t-263 -94h-20z" />
<glyph unicode="&#x425;" horiz-adv-x="942" d="M319 326l-157 -326h-103l359 737l-338 697h102l158 -322q27 -56 71.5 -163t55.5 -132h4q15 34 40 93.5t46.5 109t42.5 92.5l158 322h102l-340 -697l361 -737h-103l-160 326q-24 49 -48 105t-53.5 126.5t-45.5 106.5h-4q-132 -305 -148 -338z" />
<glyph unicode="&#x426;" horiz-adv-x="995" d="M856 0h-706v1434h102v-1340h696v-401h-92v307zM846 145l-103 -41v1330h103v-1289z" />
<glyph unicode="&#x427;" horiz-adv-x="909" d="M655 1434h103v-1434h-103v1434zM645 543l-41 94h-153q-115 0 -180.5 73t-65.5 181v543h-103v-543q0 -96 39.5 -174t120 -126t189.5 -48h194z" />
<glyph unicode="&#x428;" horiz-adv-x="1323" d="M252 94h819v1340h103v-1434h-1024v1434h102v-1340zM713 145l-103 -41v1330h103v-1289z" />
<glyph unicode="&#x429;" horiz-adv-x="1323" d="M1184 0h-1034v1434h102v-1340h819v1340h103v-1340h102v-401h-92v307zM713 145l-103 -41v1330h103v-1289z" />
<glyph unicode="&#x42a;" horiz-adv-x="1024" d="M379 1434v-95h-369v95h369zM430 797l-41 94h195q162 0 255 -100t93 -248v-195q0 -148 -93 -248t-255 -100h-308v1288l103 41v-1235h205q115 0 180 73t65 181v195q0 108 -65 181t-180 73h-154z" />
<glyph unicode="&#x42b;" horiz-adv-x="1196" d="M942 1434h102v-1434h-102v1434zM305 797l-41 94h195q162 0 255 -100t93 -248v-195q0 -148 -93 -248t-255 -100h-307v1434h102v-1340h205q115 0 180.5 73t65.5 181v195q0 108 -66 181t-180 73h-154z" />
<glyph unicode="&#x42c;" horiz-adv-x="897" d="M303 797l-41 94h195q162 0 255 -100t93 -248v-195q0 -148 -93 -248t-255 -100h-307v1434h102v-1340h205q115 0 180 73t65 181v195q0 108 -65 181t-180 73h-154z" />
<glyph unicode="&#x42d;" horiz-adv-x="847" d="M604 764l-41 -94h-420v94h461zM614 367v700q0 272 -245 272h-308v95h310q168 0 257 -95.5t89 -271.5v-700q0 -176 -89 -271.5t-257 -95.5h-310v94h308q245 0 245 273z" />
<glyph unicode="&#x42e;" horiz-adv-x="1325" d="M303 670l-41 94h236v362q0 140 92 234t256 94q163 0 255.5 -94t92.5 -234v-819q0 -140 -92.5 -233.5t-255.0F4EF86A47" />
<glyph unicode="&#x42f;" horiz-adv-x="913" d="M457 637h143l41 -94h-219l-209 -543h-109l211 567q-99 37 -152.5 124.5t-53.5 199.5v194q0 148 93 248.5t255 100.5h307v-95h-307q-115 0 -180.5 -73t-65.5 -181v-194q0 -108 65.5 -181t180.5 -73zM662 0v1286l102 41v-1327h-102z" />
<glyph unicode="&#x430;" horiz-adv-x="870" d="M172 936v88h262q140 0 220.5 -82t80.5 -205v-737h-47l-37 125q-74 -135 -256 -135q-161 0 -228 71.5t-67 204.5q0 254 308 303l192 33l37 -84l-215 -39q-229 -38 -229 -215q0 -44 7.5 -74t29 -56t64.5 -39t109 -13q117 0 178.5 63t61.5 162v430q0 85 -56 142t-153 57 h-262z" />
<glyph unicode="&#x431;" horiz-adv-x="903" d="M457 1024q149 0 235 -79.5t86 -196.5v-472q0 -123 -86.5 -204.5t-240.5 -81.5t-241 81.5t-87 204.5v814q0 285 307 360l287 70l22 -84l-284 -72q-240 -57 -240 -279v-809q0 -85 62.5 -141.5t173.5 -56.5t173 56t62 142v472q0 81 -62 136.5t-167 55.5h-191l-41 84h232z " />
<glyph unicode="&#x432;" horiz-adv-x="870" d="M465 0h-324v1024h324q134 0 212.5 -66t78.5 -172v-81q0 -131 -129 -185q149 -47 149 -194v-82q0 -115 -83.5 -179.5t-227.5 -64.5zM233 88h236q114 0 164.5 38.5t50.5 115.5v82q0 83 -52.5 116t-172.5 33h-174l-41 88h215q100 0 152.5 33t52.5 108v82q0 71 -48.5 111.5 t-150.5 40.5h-232v-848z" />
<glyph unicode="&#x433;" horiz-adv-x="661" d="M141 0v1024h461v-88h-369v-936h-92z" />
<glyph unicode="&#x434;" horiz-adv-x="862" d="M39 -225v313q54 0 90 39.5t62 137.5t41.5 239.5t29.5 369.5l92 39q-15 -346 -52.5 -544t-108.5 -281h626v-313h-88v225h-604v-225h-88zM629 936h-363l4 88h451v-883l-92 -41v836z" />
<glyph unicode="&#x435;" d="M727 0h-283q-154 0 -237.5 80.5t-83.5 206.5v471q0 120 83.5 198t237.5 78q147 0 230.5 -73.5t83.5 -182.5v-295h-492l-41 88h441v207q0 72 -59 120t-163 48q-109 0 -169 -53.5t-60 -134.5v-471q0 -87 59.5 -143t169.5 -56h283v-88z" />
<glyph unicode="&#x436;" horiz-adv-x="1255" d="M1194 1024l-344 -500l344 -524h-107l-315 483h-45l-41 88h88l313 453h107zM528 571h-47l-313 453h-107l345 -500l-345 -524h107l313 483h88zM582 0v1024h92v-1024h-92z" />
<glyph unicode="&#x437;" horiz-adv-x="743" d="M338 88q102 0 161.5 55t59.5 150q0 94 -55 137t-170 43h-133l-41 88h174q107 0 166 49t59 142q0 87 -60 135.5t-159 48.5h-260v88h260q144 0 227.5 -74.5t83.5 -195.5q0 -174 -155 -236q155 -53 155 -231q0 -129 -85 -208t-230 -79h-260v88h262z" />
<glyph unicode="&#x438;" horiz-adv-x="917" d="M692 864h-4l-448 -864h-99v1024h92v-524q0 -54 -10 -342h6l449 866h98v-1024h-92v524q0 65 3.5 184t4.5 156z" />
<glyph unicode="&#x439;" horiz-adv-x="917" d="M692 864h-4l-448 -864h-99v1024h92v-524q0 -54 -10 -342h6l449 866h98v-1024h-92v524q0 65 3.5 184t4.5 1500D4607AF4" />
<glyph unicode="&#x43a;" horiz-adv-x="837" d="M754 1024l-344 -500l344 -524h-107l-315 483h-45l-41 88h88l313 453h107zM141 0v1024h92v-1024h-92z" />
<glyph unicode="&#x43b;" horiz-adv-x="872" d="M639 936h-363q0 10 5 88h450v-1024h-92v936zM39 88h57q82 0 119 170.5t59 615.5l88 41q-18 -495 -75.5 -705t-186.5 -210h-61v88z" />
<glyph unicode="&#x43c;" horiz-adv-x="1097" d="M637 541l184 483h135v-1024h-92v367q0 95 10 565h-4q-15 -42 -41 -120t-48.5 -141.5t-45.5 -119.5l-145 -300B98B1AD9" />
<glyph unicode="&#x43d;" horiz-adv-x="917" d="M285 469l-41 88h440v467h92v-1024h-92v469h-399zM233 1024v-1024h-92v1024h92z" />
<glyph unicode="&#x43e;" horiz-adv-x="903" d="M686 276v410l92 41v-451q0 -123 -86.5 -204.5t-240.5 -81.5t-241 81.5t-87 204.5v472q0 123 87 204.5t241 81.5t240.5 -81.5t86.5 -204.5h-92q0 86 -62 142t-173 56t-173.5 -56.5t-62.5 -141.5v-472q0 -85 62.5 -141.5t173.5 -56.5t173 56t62 142z" />
<glyph unicode="&#x43f;" horiz-adv-x="917" d="M141 936v88h635v-1024h-92v936h-543zM141 885l92 41v-926h-92v885z" />
<glyph unicode="&#x440;" horiz-adv-x="921" d="M244 88h231q110 0 170 56.5t60 142.5v450q0 86 -60 142.5t-170 56.5h-242v-1448h-92v1536h334q154 0 238 -81.5t84 -205.5v-450q0 -124 -84 -205.5t-238 -81.5h-190z" />
<glyph unicode="&#x441;" horiz-adv-x="851" d="M444 88h222v-88h-222q-153 0 -237 87t-84 220v379l92 41v-420q0 -95 59.5 -157t169.5 -62zM444 936q-100 0 -160 -52.5t-69 -135.5h-92q9 121 92.5 198.5t228.5 77.5h222v-88h-222z" />
<glyph unicode="&#x442;" horiz-adv-x="661" d="M285 874l92 41v-915h-92v874zM623 926h-584v98h584v-98z" />
<glyph unicode="&#x443;" horiz-adv-x="849" d="M137 1024l191 -659q22 -74 52.5 -215t37.5 -170h4q9 38 26.5 120.5t31.5 145t30 119.5l180 659h90l-420 -1536h-90l105 379l-332 1157h94z" />
<glyph unicode="&#x444;" horiz-adv-x="1177" d="M686 0l-41 88h62q121 0 188.5 68.5t67.5 171.5v368q0 103 -67.5 171.5t-188.5 68.5h-72v-1448h-92v512h-72q-164 0 -256 94t-92 234v368q0 140 92 234t256 94h21l40 -88h-61q-121 0 -188.5 -68.5t-67.5 -171.5v-368q0 -103 67.5 -171.5t188.5 -68.5h72v1425l92 15v-504 h72q164 0 256 -94t92 -234v-368q0 -140 -92 -234t-256 -94h-21z" />
<glyph unicode="&#x445;" horiz-adv-x="811" d="M309 289l-168 -289h-108l317 539l-282 485h104l168 -283q17 -28 63 -133q5 10 27.5 59t38.5 74l168 283h100C9E304A94" />
<glyph unicode="&#x446;" horiz-adv-x="917" d="M786 0h-645v1024h92v-936h641v-313h-88v225zM776 1024v-889l-92 -41v930h92z" />
<glyph unicode="&#x447;" horiz-adv-x="860" d="M627 0v1024h92v-1024h-92zM422 457h194l-41 -88h-153q-147 0 -232.5 69.5t-85.5 220.5v365h93v-365q0 -104 60.5 -153t164.5 -49z" />
<glyph unicode="&#x448;" horiz-adv-x="1214" d="M233 88h748v936h92v-1024h-932v1024h92v-936zM653 139l-92 -41v926h92v-885z" />
<glyph unicode="&#x449;" horiz-adv-x="1214" d="M1083 0h-942v1024h92v-936h748v936h92v-936h98v-313h-88v225zM653 139l-92 -41v926h92v-885z" />
<glyph unicode="&#x44a;" horiz-adv-x="942" d="M756 283v82q0 104 -61 153t-165 49h-153l-41 88h194q147 0 232.5 -69.5t85.5 -220.5v-82q0 -130 -84 -206.5t-227 -76.5h-304v936h-194v88h287v-936h211q100 0 159.5 53t59.5 142z" />
<glyph unicode="&#x44b;" horiz-adv-x="1071" d="M653 283v82q0 104 -60.5 153t-164.5 49h-154l-41 88h195q147 0 232 -69.5t85 -220.5v-82q0 -130 -84 -206.5t-227 -76.5h-303v1024h92v-936h211q100 0 159.5 53t59.5 142zM848 0v1024h92v-1024h-92z" />
<glyph unicode="&#x44c;" horiz-adv-x="849" d="M664 283v82q0 104 -61 153t-165 49h-153l-41 88h194q147 0 232.5 -69.5t85.5 -220.5v-82q0 -130 -84.5 -206.5t-227.5 -76.5h-303v1024h92v-936h211q100 0 160 53t60 142z" />
<glyph unicode="&#x44d;" horiz-adv-x="727" d="M504 557l-41 -88h-336v88h377zM61 88h222q109 0 169 68t60 172v368q0 104 -60 172t-169 68h-222v88h222q153 0 237 -93.5t84 -234.5v-368q0 -141 -84 -234.5t-237 -93.5h-222v88z" />
<glyph unicode="&#x44e;" horiz-adv-x="1185" d="M285 469l-41 88h205v201q0 123 81 204.5t226 81.5q144 0 225.5 -82t81.5 -204v-492q0 -122 -81.5 -204t-225.5 -82q-145 0 -226 81.5t-81 204.5v203h-164zM756 68q101 0 158 56.5t57 141.5v492q0 85 -57 141.5t-158 56.5t-158 -56.5t-57 -141.5v-492q0 -85 57 -141.5 t158 -56.5zM233 1024v-1024h-92v1024h92z" />
<glyph unicode="&#x44f;" horiz-adv-x="874" d="M631 369h-225l-213 -369h-99l217 383q-192 51 -192 276v82q0 130 84 206.5t227 76.5h303v-1024h-92v936h-211q-100 0 -159.5 -53t-59.5 -142v-82q0 -105 60 -153.5t165 -48.5h154z" />
<glyph unicode="&#x450;" d="M727 0h-283q-154 0 -237.5 80.5t-83.5 206.5v471q0 120 83.5 198t237.5 78q147 0 230.5 -73.5t83.5 -182.5v-295h-492l-41 88h441v207q0 72 -59 120t-163 48q-109 0 -169 -53.5t-60 -134.5v-471q0 -87 59.5 -143t169.5 -56h283v-88zM440 1157l-245 277h143l184 -277h-82z " />
<glyph unicode="&#x451;" d="M727 0h-283q-154 0 -237.5 80.5t-83.5 206.5v471q0 120 83.5 198t237.5 78q147 0 230.5 -73.5t83.5 -182.5v-295h-492l-41 88h441v207q0 72 -59 120t-163 48q-109 0 -169 -53.5t-60 -134.5v-471q0 -87 59.5 -143t169.5 -56h283v-88zM240 1157v184h92v-184h-92zM547 1157 v184h92v-184h-92z" />
<glyph unicode="&#x452;" horiz-adv-x="976" d="M829 758v-758q0 -163 -65.5 -266t-183.5 -103h-76v95h76q72 0 114.5 77t42.5 197v758q0 79 -52 128.5t-167 49.5h-180l-41 88h238q135 0 214.5 -76.5t79.5 -189.5zM41 1270v82h154v184h92v-1536h-92v1270h-154zM332 1270l-41 82h342v-82h-301z" />
<glyph unicode="&#x453;" horiz-adv-x="661" d="M141 0v1024h461v-88h-369v-936h-92zM575 1434l-245 -277h-82l184 277h143z" />
<glyph unicode="&#x454;" horiz-adv-x="727" d="M264 469l-41 88h377v-88h-336zM444 88h222v-88h-222q-153 0 -237 93.5t-84 234.5v368q0 141 84 234.5t237 93.5h222v-88h-222q-109 0 -169 -68t-60 -172v-368q0 -104 60 -172t169 -68z" />
<glyph unicode="&#x455;" horiz-adv-x="819" d="M104 690l89 39q6 -31 22 -55.5t33.5 -39.5t49 -29.5t52.5 -21.5t60 -18q71 -20 115 -35.5t87 -39.5t65.5 -52.5t36 -70t13.5 -97.5q0 -128 -82.5 -199t-228.5 -71h-320v88h320q101 0 160 47t59 129q0 49 -14.5 82.5t-50 57t-75 38.5t-108.5 33q-113 30 -159 55 q-100 54 -124 160zM188 768v-20h-92v16q0 118 82.5 189t227.5 71h260v-88h-260q-101 0 -159.5 -47t-58.5 -121z" />
<glyph unicode="&#x456;" horiz-adv-x="374" d="M141 0v1024h92v-1024h-92zM141 1249v144h92v-144h-92z" />
<glyph unicode="&#x457;" horiz-adv-x="374" d="M141 0v1024h92v-1024h-92zM-2 1208v185h102v-185h-102zM274 1208v185h103v-185h-103z" />
<glyph unicode="&#x458;" horiz-adv-x="428" d="M285 -471l-92 -41v1536h92v-1495zM193 1249v144h92v-144h-92z" />
<glyph unicode="&#x459;" horiz-adv-x="1255" d="M291 1024h409v-936h150q100 0 159.5 53t59.5 142v82q0 104 -60.5 153t-164.5 49h-92l-41 88h133q147 0 232 -69.5t85 -220.5v-82q0 -130 -84 -206.5t-227 -76.5h-242v936h-321q0 26 4 88zM111 0h-72v98h67q82 0 119.5 169.5t59.5 606.5l88 41q-18 -495 -75.5 -705 t-186.5 -210z" />
<glyph unicode="&#x45a;" horiz-adv-x="1280" d="M1186 365v-82q0 -130 -84.5 -206.5t-227.5 -76.5h-241v469h-348l-41 88h389v467h92v-936h149q100 0 160 53t60 142v82q0 104 -61 153t-165 49h-92l-41 88h133q147 0 232.5 -69.5t85.5 -220.5zM233 1024v-1024h-92v1024h92z" />
<glyph unicode="&#x45b;" horiz-adv-x="976" d="M41 1270v82h154v184h92v-1536h-92v1270h-154zM297 1024h238q135 0 214.5 -76.5t79.5 -189.5v-758h-92v758q0 79 -52 128.5t-167 49.5h-180zM332 1270l-41 82h342v-82h-301z" />
<glyph unicode="&#x45c;" horiz-adv-x="837" d="M754 1024l-344 -500l344 -524h-107l-315 483h-45l-41 88h88l313 453h107zM141 0v1024h92v-1024h-92zM664 1434l-246 -277h-82l184 277h144z" />
<glyph unicode="&#x45d;" horiz-adv-x="917" d="M692 864h-4l-448 -864h-99v1024h92v-524q0 -54 -10 -342h6l449 866h98v-1024h-92v524q0 65 3.5 184t4.5 156zM453 1157l-246 277h143l185 -277h-82z" />
<glyph unicode="&#x45e;" horiz-adv-x="849" d="M137 1024l191 -659q22 -74 52.5 -215t37.5 -170h4q9 38 26.5 120.5t31.5 145t30 119.5l180 659h90l-420 -1536h-90l105 379l-332 1157h94zM589 1378h88q0 -122 -62.5 -178.5t-188.5 -56.5q-127 0 -190.5 56.5t-63.5 178.5h88q0 -87 39.5 -119t126.5 -32q85 0 124 32 t39 119z" />
<glyph unicode="&#x45f;" horiz-adv-x="917" d="M141 0v1024h92v-936h451v936h92v-1024h-270v-307h-94v307h-271z" />
<glyph unicode="&#x462;" horiz-adv-x="1003" d="M369 891h194q162 0 255 -100t93 -248v-195q0 -148 -93 -248t-255 -100h-307v1135h-215v94h215v264l102 41v-305h379v-94h-379v-1041h205q115 0 180.5 73t65.5 181v195q0 108 -65.5 181t-180.5 73h-153z" />
<glyph unicode="&#x463;" horiz-adv-x="942" d="M756 283v82q0 104 -61 153t-165 49h-153l-41 88h194q147 0 232.5 -69.5t85.5 -220.5v-82q0 -130 -84 -206.5t-227 -76.5h-304v936l58 88h-58v473l93 41v-1450h211q100 0 159.5 53t59.5 142zM393 936l-57 88h252v-88h-195zM39 936v88h194v-88h-194z" />
<glyph unicode="&#x490;" horiz-adv-x="765" d="M631 1434v307h92v-402h-471v-1339h-102v1434h481z" />
<glyph unicode="&#x491;" horiz-adv-x="661" d="M514 1024v236h88v-324h-369v-936h-92v1024h373z" />
<glyph unicode="&#x492;" horiz-adv-x="851" d="M23 680v86h213v668h573v-95h-471v-573h309v-86h-309v-680h-102v680h-213z" />
<glyph unicode="&#x493;" horiz-adv-x="731" d="M23 471v86h188v467h461v-88h-369v-379h242v-86h-242v-471h-92v471h-188z" />
<glyph unicode="&#x498;" horiz-adv-x="864" d="M66 94h309q120 0 191 61.5t71 151.5v133q0 98 -71 164t-191 66h-209l-41 94h246q115 0 180 65.5t65 163.5v133q0 91 -65 152t-180 61h-310v95h310q162 0 255 -88.5t93 -219.5v-133q0 -94 -53.5 -168.5t-151.5 -107.5q107 -32 166 -106.5t59 -170.5v-133 q0 -118 -81.5 -203t-225.5 -102q49 -88 49 -174q0 -67 -46 -112.5t-118 -45.5q-82 0 -153 43l31 74q62 -29 100 -29q43 0 67.5 23t24.5 65q0 35 -25 154h-296v94z" />
<glyph unicode="&#x499;" horiz-adv-x="743" d="M338 88q102 0 161.5 55t59.5 150q0 94 -55 137t-170 43h-133l-41 88h174q107 0 166 49t59 142q0 87 -60 135.5t-159 48.5h-260v88h260q144 0 227.5 -74.5t83.5 -195.5q0 -174 -155 -236q155 -53 155 -231q0 -116 -69.5 -193t-190.5 -92q49 -88 49 -174q0 -67 -46 -112.5 t-118 -45.5q-82 0 -153 43l31 74q62 -29 100 -29q43 0 67.5 23t24.5 65q0 40 -24 154h-246v88h262z" />
<glyph unicode="&#x4a0;" horiz-adv-x="1064" d="M432 670l-41 94h92l396 670h110l-411 -699l432 -735h-111l-395 670h-72zM381 1329v-1329h-102v1288zM381 1434v-95h-369v95h369z" />
<glyph unicode="&#x4a1;" horiz-adv-x="911" d="M827 1024l-344 -500l344 -524h-106l-315 483h-46l-41 88h89l313 453h106zM307 1024v-1024h-92v936h-195v88h287z" />
<glyph unicode="&#x4a2;" horiz-adv-x="1015" d="M303 668l-41 98h502v668h102v-1254h92v-487h-92v307h-102v668h-461zM252 1434v-1434h-102v1434h102z" />
<glyph unicode="&#x4a3;" horiz-adv-x="917" d="M776 -307v307h-92v469h-399l-41 88h440v467h92v-844h92v-487h-92zM233 1024v-1024h-92v1024h92z" />
<glyph unicode="&#x4aa;" horiz-adv-x="847" d="M471 -172q0 82 47 172h-41q-168 0 -257 95.5t-89 271.5v649l102 41v-690q0 -273 246 -273h307v-94h-196q-25 -89 -25 -154q0 -42 24.5 -65t67.5 -23q39 0 101 29l30 -74q-71 -43 -153 -43q-72 0 -118 45.5t-46 112.5zM233 1067h-102q0 176 89 271.5t257 95.5h309v-95 h-307q-246 0 -246 -272z" />
<glyph unicode="&#x4ab;" horiz-adv-x="727" d="M389 -172q0 82 47 172q-149 1 -231 88.5t-82 218.5v379l92 41v-420q0 -95 59.5 -157t169.5 -62h222v-88h-158q-25 -89 -25 -154q0 -42 24.5 -65t67.5 -23q39 0 101 29l31 -74q-71 -43 -154 -43q-72 0 -118 45.5t-46 112.5zM444 936q-100 0 -160 -52.5t-69 -135.5h-92 q9 121 92.5 198.5t228.5 77.5h222v-88h-222z" />
<glyph unicode="&#x4ae;" horiz-adv-x="919" d="M541 907l213 527h106l-350 -871v-563h-102v563l-349 871h109l209 -527q15 -35 28 -76.5t28 -91t24 -77.5h4q9 28 24 77.5t28 91t28 76.5z" />
<glyph unicode="&#x4af;" horiz-adv-x="833" d="M371 -512v512l-320 1024h92l185 -592q21 -65 51.5 -192t34.5 -142h4q4 15 34.5 142t51.5 192l184 592h92l-317 -1024v-512h-92z" />
<glyph unicode="&#x4b0;" horiz-adv-x="919" d="M541 907l213 527h106l-350 -871v-119h262v-86h-262v-358h-102v358h-261v86h261v119l-349 871h109l209 -527q15 -35 28 -76.5t28 -91t24 -77.5h4q9 28 24 77.5t28 91t28 76.5z" />
<glyph unicode="&#x4b1;" horiz-adv-x="833" d="M104 -289v86h267v203l-320 1024h92l185 -592q21 -65 51.5 -192t34.5 -142h4q4 15 34.5 142t51.5 192l184 592h92l-317 -1024v-203h266v-86h-266v-223h-92v223h-267z" />
<glyph unicode="&#x4ba;" horiz-adv-x="909" d="M244 0h-103v1434h103v-1434zM254 891l41 -94h154q115 0 180 -73t65 -181v-543h103v543q0 148 -93 248t-255 100h-195z" />
<glyph unicode="&#x4bb;" horiz-adv-x="923" d="M141 1520l92 16v-1536h-92v1520zM244 819h237q135 0 215 -76.5t80 -189.5v-553h-92v553q0 79 -52 128.5t-167 49.5h-180z" />
<glyph unicode="&#x4c1;" horiz-adv-x="1482" d="M844 670l-41 94h92l395 670h111l-412 -699l432 -735h-110l-396 670h-71zM61 0l431 735l-410 699h111l393 -00CD133ADB" />
<glyph unicode="&#x4c2;" horiz-adv-x="1255" d="M1194 1024l-344 -500l344 -524h-107l-315 483h-45l-41 88h88l313 453h107zM481 571h47l41 -88h-88l-313 -4023C034A79" />
<glyph unicode="&#x4d0;" horiz-adv-x="1005" d="M842 0l-105 381h-395l-41 94h410l-142 522q-18 66 -38.5 191t-26.5 153h-4q-5 -23 -26.5 -150.5t-39.5 -190DDADB5A55" />
<glyph unicode="&#x4d1;" horiz-adv-x="860" d="M174 936v88h262q140 0 220.5 -82t80.5 -205v-737h-47l-37 125q-74 -135 -256 -135q-161 0 -228 71.5t-67 204.5q0 254 308 303l192 33l37 -84l-215 -39q-229 -38 -229 -215q0 -44 7.5 -74t29 -56t65 -39t109.5 -13q116 0 177.5 63t61.5 162v430q0 85 -56 142t-153 57 h-262zM573 1378h88q0 -122 -62.5 -178.5t-188.5 -56.5q-127 0 -190.5 56.5t-63.5 178.5h88q0 -87 39.5 -119t126.5 -32q85 0 124 32t39 119z" />
<glyph unicode="&#x4d2;" horiz-adv-x="1005" d="M842 0l-105 381h-395l-41 94h410l-142 522q-18 66 -38.5 191t-26.5 153h-4q-5 -23 -26.5 -150.5t-39.5 -193.5l-272 -997h-105l394 1434h102l393 -1434h-104zM303 1567v184h92v-184h-92zM610 1567v184h92v-184h-92z" />
<glyph unicode="&#x4d3;" horiz-adv-x="860" d="M174 936v88h262q140 0 220.5 -82t80.5 -205v-737h-47l-37 125q-74 -135 -256 -135q-161 0 -228 71.5t-67 204.5q0 254 308 303l192 33l37 -84l-215 -39q-229 -38 -229 -215q0 -44 7.5 -74t29 -56t65 -39t109.5 -13q116 0 177.5 63t61.5 162v430q0 85 -56 142t-153 57 h-262zM231 1157v184h93v-184h-93zM539 1157v184h92v-184h-92z" />
<glyph unicode="&#x4d4;" horiz-adv-x="1257" d="M725 94h430v-94h-532v381h-357l-104 -381h-105l394 1434h704v-95h-430v-575h328v-94h-328v-576zM434 997l-143 -522h332v866h-123q-5 -23 -26.5 -150.5t-39.5 -193.5z" />
<glyph unicode="&#x4d5;" horiz-adv-x="1396" d="M1247 0h-282q-116 0 -187.5 61t-89.5 162q-20 -106 -93 -169.5t-198 -63.5q-161 0 -228 71.5t-67 204.5q0 254 308 303l192 33l37 -84l-215 -39q-229 -38 -229 -215q0 -44 7.5 -74t29 -56t65 -39t109.5 -13q116 0 177.5 63t61.5 162v430q0 85 -56 142t-153 57h-262v88 h262q101 0 166 -57t86 -152q16 102 88 165.5t189 63.5q147 0 230 -76t83 -190v-295h-492l-41 88h441v207q0 77 -58.5 127.5t-162.5 50.5q-110 0 -170 -56t-60 -142v-471q0 -87 60 -143t170 -56h282v-88z" />
<glyph unicode="&#x4d6;" horiz-adv-x="884" d="M303 670l-41 94h420v-94h-379zM784 0h-288q-168 0 -257 95.5t-89 271.5v1067h634v-95h-532v-972q0 -273 246 -273h286v-94zM653 1788h88q0 -122 -62.5 -178.5t-188.5 -56.5q-127 0 -190.5 56.5t-63.5 178.5h88q0 -87 39.5 -119t126.5 -32q85 0 124 32t39 119z" />
<glyph unicode="&#x4d7;" d="M727 0h-283q-154 0 -237.5 80.5t-83.5 206.5v471q0 120 83.5 198t237.5 78q147 0 230.5 -73.5t83.5 -182.5059A2D1AE4" />
<glyph unicode="&#x4d8;" horiz-adv-x="931" d="M696 764l41 -94h-504v-303q0 -273 246 -273h21q245 0 245 273v700q0 272 -245 272h-307v95h309q168 0 257 -95.5t89 -271.5v-700q0 -176 -89 -271.5t-257 -95.5h-25q-168 0 -257 95.5t-89 271.5v397h565z" />
<glyph unicode="&#x4d9;" d="M154 1024h282q154 0 238 -80.5t84 -206.5v-471q0 -120 -84 -198t-238 -78q-147 0 -230 73.5t-83 182.5v295h491l41 -88h-440v-207q0 -72 59 -120t162 -48q109 0 169.5 53.5t60.5 134.5v471q0 87 -60 143t-170 56h-282v88z" />
<glyph unicode="&#x4da;" horiz-adv-x="931" d="M696 764l41 -94h-504v-303q0 -273 246 -273h21q245 0 245 273v700q0 272 -245 272h-307v95h309q168 0 257 -95.5t89 -271.5v-700q0 -176 -89 -271.5t-257 -95.5h-25q-168 0 -257 95.5t-89 271.5v397h565zM266 1567v184h92v-184h-92zM573 1567v184h93v-184h-93z" />
<glyph unicode="&#x4db;" d="M154 1024h282q154 0 238 -80.5t84 -206.5v-471q0 -120 -84 -198t-238 -78q-147 0 -230 73.5t-83 182.5v295h491l41 -88h-440v-207q0 -72 59 -120t162 -48q109 0 169.5 53.5t60.5 134.5v471q0 87 -60 143t-170 56h-282v88zM240 1157v184h92v-184h-92zM547 1157v184h92 v-184h-92z" />
<glyph unicode="&#x4dc;" horiz-adv-x="1482" d="M844 670l-41 94h92l395 670h111l-412 -699l432 -735h-110l-396 670h-71zM61 0l431 735l-410 699h111l393 -670h53l41 -94h-113l-395 -670h-111zM690 1434h103v-1434h-103v1434zM543 1567v184h92v-184h-92zM850 1567v184h92v-184h-92z" />
<glyph unicode="&#x4dd;" horiz-adv-x="1255" d="M1194 1024l-344 -500l344 -524h-107l-315 483h-45l-41 88h88l313 453h107zM481 571h47l41 -88h-88l-313 -483h-107l345 524l-345 500h107zM582 0v1024h92v-1024h-92zM428 1157v184h92v-184h-92zM735 1157v184h92v-184h-92z" />
<glyph unicode="&#x4de;" horiz-adv-x="864" d="M66 94h309q120 0 191 61.5t71 151.5v133q0 98 -71 164t-191 66h-209l-41 94h246q115 0 180 65.5t65 163.5v133q0 91 -65 152t-180 61h-310v95h310q162 0 255 -88.5t93 -219.5v-133q0 -94 -53.5 -168.5t-151.5 -107.5q107 -32 166 -106.5t59 -170.5v-133 q0 -130 -97.5 -218.5t-266.5 -88.5h-309v94zM168 1567v184h92v-184h-92zM475 1567v184h92v-184h-92z" />
<glyph unicode="&#x4df;" horiz-adv-x="743" d="M338 88q102 0 161.5 55t59.5 150q0 94 -55 137t-170 43h-133l-41 88h174q107 0 166 49t59 142q0 87 -60 135.5t-159 48.5h-260v88h260q144 0 227.5 -74.5t83.5 -195.5q0 -174 -155 -236q155 -53 155 -231q0 -129 -85 -208t-230 -79h-260v88h262zM131 1157v184h92v-184 h-92zM438 1157v184h92v-184h-92z" />
<glyph unicode="&#x4e2;" horiz-adv-x="1015" d="M788 1257h-4l-532 -1257h-102v1434h102v-627l-25 -633h4l533 1260h102v-1434h-102v627zM197 1616v86h624v-86h-624z" />
<glyph unicode="&#x4e3;" horiz-adv-x="917" d="M692 864h-4l-448 -864h-99v1024h92v-524q0 -54 -10 -342h6l449 866h98v-1024h-92v524q0 65 3.5 184t4.5 156zM147 1206v86h625v-86h-625z" />
<glyph unicode="&#x4e4;" horiz-adv-x="1015" d="M788 1257h-4l-532 -1257h-102v1434h102v-627l-25 -633h4l533 1260h102v-1434h-102v627zM309 1567v184h92v-184h-92zM616 1567v184h93v-184h-93z" />
<glyph unicode="&#x4e5;" horiz-adv-x="917" d="M692 864h-4l-448 -864h-99v1024h92v-524q0 -54 -10 -342h6l449 866h98v-1024h-92v524q0 65 3.5 184t4.5 156zM260 1157v184h92v-184h-92zM567 1157v184h92v-184h-92z" />
<glyph unicode="&#x4e6;" horiz-adv-x="1019" d="M786 1016l103 41v-690q0 -181 -89 -279t-257 -98h-66q-168 0 -257 98t-89 279v700q0 181 89 279t257 98h66q167 0 256.5 -98t89.5 -279h-103q0 283 -245 283h-62q-246 0 -246 -283v-700q0 -283 246 -283h62q120 0 182.5 71t62.5 212v649zM312 1567v184h92v-184h-92z M619 1567v184h92v-184h-92z" />
<glyph unicode="&#x4e7;" horiz-adv-x="903" d="M686 276v410l92 41v-451q0 -123 -86.5 -204.5t-240.5 -81.5t-241 81.5t-87 204.5v472q0 123 87 204.5t241 81.5t240.5 -81.5t86.5 -204.5h-92q0 86 -62 142t-173 56t-173.5 -56.5t-62.5 -141.5v-472q0 -85 62.5 -141.5t173.5 -56.5t173 56t62 142zM252 1157v184h92v-184 h-92zM559 1157v184h92v-184h-92z" />
<glyph unicode="&#x4e8;" horiz-adv-x="1019" d="M303 668l-41 98h524v250l103 41v-690q0 -181 -89 -279t-257 -98h-66q-168 0 -257 98t-89 279v700q0 181 89 279t257 98h66q167 0 256.5 -98t89.5 -279h-103q0 283 -245 283h-62q-246 0 -246 -283v-700q0 -283 246 -283h62q120 0 182.5 71t62.5 212v301h-483z" />
<glyph unicode="&#x4e9;" horiz-adv-x="903" d="M285 469l-41 88h442v129l92 41v-451q0 -123 -86.5 -204.5t-240.5 -81.5t-241 81.5t-87 204.5v472q0 123 87 204.5t241 81.5t240.5 -81.5t86.5 -204.5h-92q0 86 -62 142t-173 56t-173.5 -56.5t-62.5 -141.5v-472q0 -85 62.5 -141.5t173.5 -56.5t173 56t62 142v193h-401z " />
<glyph unicode="&#x4ea;" horiz-adv-x="1019" d="M303 668l-41 98h524v250l103 41v-690q0 -181 -89 -279t-257 -98h-66q-168 0 -257 98t-89 279v700q0 181 89 279t257 98h66q167 0 256.5 -98t89.5 -279h-103q0 283 -245 283h-62q-246 0 -246 -283v-700q0 -283 246 -283h62q120 0 182.5 71t62.5 212v301h-483zM309 1567 v184h92v-184h-92zM616 1567v184h93v-184h-93z" />
<glyph unicode="&#x4eb;" horiz-adv-x="903" d="M285 469l-41 88h442v129l92 41v-451q0 -123 -86.5 -204.5t-240.5 -81.5t-241 81.5t-87 204.5v472q0 123 87 204.5t241 81.5t240.5 -81.5t86.5 -204.5h-92q0 86 -62 142t-173 56t-173.5 -56.5t-62.5 -141.5v-472q0 -85 62.5 -141.5t173.5 -56.5t173 56t62 142v193h-401z M252 1157v184h92v-184h-92zM559 1157v184h92v-184h-92z" />
<glyph unicode="&#x4ec;" horiz-adv-x="847" d="M604 764l-41 -94h-420v94h461zM614 367v700q0 272 -245 272h-308v95h310q168 0 257 -95.5t89 -271.5v-700q0 -176 -89 -271.5t-257 -95.5h-310v94h308q245 0 245 273zM170 1567v184h92v-184h-92zM477 1567v184h92v-184h-92z" />
<glyph unicode="&#x4ed;" horiz-adv-x="727" d="M504 557l-41 -88h-336v88h377zM61 88h222q109 0 169 68t60 172v368q0 104 -60 172t-169 68h-222v88h222q153 0 237 -93.5t84 -234.5v-368q0 -141 -84 -234.5t-237 -93.5h-222v88zM117 1157v184h92v-184h-92zM424 1157v184h92v-184h-92z" />
<glyph unicode="&#x4ee;" horiz-adv-x="919" d="M543 735l200 699h105l-338 -1172q-10 -43 -17.5 -70.5t-24.5 -69t-36.5 -65.5t-52 -42.5t-72.5 -18.5h-106v94h106q75 0 109 203l-346 1141h104l213 -699q16 -50 29 -107.5t27.5 -127.5t23.5 -109h4q6 32 20 107.5t25.5 130.5t26.5 106zM147 1616v86h625v-86h-625z" />
<glyph unicode="&#x4ef;" horiz-adv-x="849" d="M137 1024l191 -659q22 -74 52.5 -215t37.5 -170h4q9 38 26.5 120.5t31.5 145t30 119.5l180 659h90l-420 -1536h-90l105 379l-332 1157h94zM113 1206v86h624v-86h-624z" />
<glyph unicode="&#x4f0;" horiz-adv-x="919" d="M543 735l200 699h105l-338 -1172q-10 -43 -17.5 -70.5t-24.5 -69t-36.5 -65.5t-52 -42.5t-72.5 -18.5h-106v94h106q75 0 109 203l-346 1141h104l213 -699q16 -50 29 -107.5t27.5 -127.5t23.5 -109h4q6 32 20 107.5t25.5 130.5t26.5 106zM260 1567v184h92v-184h-92z M567 1567v184h92v-184h-92z" />
<glyph unicode="&#x4f1;" horiz-adv-x="849" d="M137 1024l191 -659q22 -74 52.5 -215t37.5 -170h4q9 38 26.5 120.5t31.5 145t30 119.5l180 659h90l-420 -1536h-90l105 379l-332 1157h94zM226 1157v184h92v-184h-92zM533 1157v184h92v-184h-92z" />
<glyph unicode="&#x4f2;" horiz-adv-x="919" d="M543 735l200 699h105l-338 -1172q-10 -43 -17.5 -70.5t-24.5 -69t-36.5 -65.5t-52 -42.5t-72.5 -18.5h-106v94h106q75 0 109 203l-346 1141h104l213 -699q16 -50 29 -107.5t27.5 -127.5t23.5 -109h4q6 32 20 107.5t25.5 130.5t26.5 106zM584 1843l-246 -276h-82l184 276 h144zM844 1843l-246 -276h-82l184 276h144z" />
<glyph unicode="&#x4f3;" horiz-adv-x="849" d="M137 1024l191 -659q22 -74 52.5 -215t37.5 -170h4q9 38 26.5 120.5t31.5 145t30 119.5l180 659h90l-420 -1536h-90l105 379l-332 1157h94zM526 1434l-245 -277h-82l184 277h143zM786 1434l-245 -277h-82l184 277h143z" />
<glyph unicode="&#x4f4;" horiz-adv-x="909" d="M655 1434h103v-1434h-103v1434zM604 637l41 -94h-194q-109 0 -189.5 48t-120 126t-39.5 174v543h103v-543q0 -108 65.5 -181t180.5 -73h153zM231 1567v184h93v-184h-93zM539 1567v184h92v-184h-92z" />
<glyph unicode="&#x4f5;" horiz-adv-x="860" d="M627 0v1024h92v-1024h-92zM422 457h194l-41 -88h-153q-147 0 -232.5 69.5t-85.5 220.5v365h93v-365q0 -104 60.5 -153t164.5 -49zM231 1157v184h93v-184h-93zM539 1157v184h92v-184h-92z" />
<glyph unicode="&#x4f8;" horiz-adv-x="1196" d="M942 1434h102v-1434h-102v1434zM305 797l-41 94h195q162 0 255 -100t93 -248v-195q0 -148 -93 -248t-255 -100h-307v1434h102v-1340h205q115 0 180.5 73t65.5 181v195q0 108 -66 181t-180 73h-154zM399 1567v184h93v-184h-93zM707 1567v184h92v-184h-92z" />
<glyph unicode="&#x4f9;" horiz-adv-x="1071" d="M653 283v82q0 104 -60.5 153t-164.5 49h-154l-41 88h195q147 0 232 -69.5t85 -220.5v-82q0 -130 -84 -206.5t-227 -76.5h-303v1024h92v-936h211q100 0 159.5 53t59.5 142zM848 0v1024h92v-1024h-92zM336 1157v184h92v-184h-92zM643 1157v184h92v-184h-92z" />
<glyph unicode="&#x1e80;" horiz-adv-x="1454" d="M662 899l-193 -899h-102l-308 1434h101l192 -897q13 -58 23.5 -121t23 -153t17.5 -122h4q6 37 17.5 123.5t22 150.5t23.5 122l193 897h102l193 -897q13 -58 23.5 -122t22 -150.5t17.5 -123.5h4q5 32 17.5 122t23 153t23.5 121l192 897h101l-308 -1434h-102l-192 899 q-13 58 -23.5 120.5t-23 153t-17.5 121.5h-4q-6 -37 -17.5 -123t-22 -150t-23.5 -122zM727 1567l-246 277h143l185 -277h-82z" />
<glyph unicode="&#x1e81;" horiz-adv-x="1187" d="M1036 1024h92l-245 -1024h-90l-156 649q-9 36 -16 78.5t-13.5 93.5t-11.5 80h-4q-2 -10 -15.5 -106.5t-25.5 -145.5l-156 -649h-90l-246 1024h93l153 -649q9 -37 16 -78t15 -94.5t12 -79.5h4q4 26 12 79.5t15 94.5t16 78l154 649h90l154 -649q9 -37 16 -78t15 -94.5 t12 -79.5h4q4 26 12 79.5t15 94.5t16 78zM594 1157l-246 277h144l184 -277h-82z" />
<glyph unicode="&#x1e82;" horiz-adv-x="1454" d="M662 899l-193 -899h-102l-308 1434h101l192 -897q13 -58 23.5 -121t23 -153t17.5 -122h4q6 37 17.5 123.5t22 150.5t23.5 122l193 897h102l193 -897q13 -58 23.5 -122t22 -150.5t17.5 -123.5h4q5 32 17.5 122t23 153t23.5 121l192 897h101l-308 -1434h-102l-192 899 q-13 58 -23.5 120.5t-23 153t-17.5 121.5h-4q-6 -37 -17.5 -123t-22 -150t-23.5 -122zM973 1844l-246 -277h-82l184 277h144z" />
<glyph unicode="&#x1e83;" horiz-adv-x="1187" d="M1036 1024h92l-245 -1024h-90l-156 649q-9 36 -16 78.5t-13.5 93.5t-11.5 80h-4q-2 -10 -15.5 -106.5t-25.5 -145.5l-156 -649h-90l-246 1024h93l153 -649q9 -37 16 -78t15 -94.5t12 -79.5h4q4 26 12 79.5t15 94.5t16 78l154 649h90l154 -649q9 -37 16 -78t15 -94.5 t12 -79.5h4q4 26 12 79.5t15 94.5t16 78zM840 1434l-246 -277h-82l184 277h144z" />
<glyph unicode="&#x1e84;" horiz-adv-x="1454" d="M662 899l-193 -899h-102l-308 1434h101l192 -897q13 -58 23.5 -121t23 -153t17.5 -122h4q6 37 17.5 123.5t22 150.5t23.5 122l193 897h102l193 -897q13 -58 23.5 -122t22 -150.5t17.5 -123.5h4q5 32 17.5 122t23 153t23.5 121l192 897h101l-308 -1434h-102l-192 899 q-13 58 -23.5 120.5t-23 153t-17.5 121.5h-4q-6 -37 -17.5 -123t-22 -150t-23.5 -122zM527 1567v184h92v-184h-92zM834 1567v184h92v-184h-92z" />
<glyph unicode="&#x1e85;" horiz-adv-x="1187" d="M1036 1024h92l-245 -1024h-90l-156 649q-9 36 -16 78.5t-13.5 93.5t-11.5 80h-4q-2 -10 -15.5 -106.5t-25.5 -145.5l-156 -649h-90l-246 1024h93l153 -649q9 -37 16 -78t15 -94.5t12 -79.5h4q4 26 12 79.5t15 94.5t16 78l154 649h90l154 -649q9 -37 16 -78t15 -94.5 t12 -79.5h4q4 26 12 79.5t15 94.5t16 78zM393 1157v184h92v-184h-92zM700 1157v184h93v-184h-93z" />
<glyph unicode="&#x1ef2;" horiz-adv-x="919" d="M541 907l213 527h106l-350 -871v-563h-102v563l-349 871h109l209 -527q15 -35 28 -76.5t28 -91t24 -77.5h4q9 28 24 77.5t28 91t28 76.5zM459 1567l-246 277h143l185 -277h-82z" />
<glyph unicode="&#x1ef3;" horiz-adv-x="849" d="M137 1024l191 -659q22 -74 52.5 -215t37.5 -170h4q9 38 26.5 120.5t31.5 145t30 119.5l180 659h90l-420 -1536h-90l105 379l-332 1157h94zM424 1157l-246 277h144l184 -277h-82z" />
<glyph unicode="&#x2013;" horiz-adv-x="985" d="M836 469h-686v88h686v-88z" />
<glyph unicode="&#x2014;" horiz-adv-x="1292" d="M1143 469h-993v88h993v-88z" />
<glyph unicode="&#x2018;" horiz-adv-x="344" d="M172 1282h59v-115h-118v115q0 69 28 110.5t82 41.5h8v-54h-8q-51 0 -51 -98z" />
<glyph unicode="&#x2019;" horiz-adv-x="344" d="M172 1319h-59v115h118v-115q0 -69 -28 -110.5t-82 -41.5h-8v54h8q51 0 51 98z" />
<glyph unicode="&#x201a;" horiz-adv-x="344" d="M172 0h-59v115h118v-115q0 -69 -28 -110.5t-82 -41.5h-8v54h8q51 0 51 98z" />
<glyph unicode="&#x201c;" horiz-adv-x="548" d="M377 1282h59v-115h-119v115q0 68 28.5 110t82.5 42h8v-54h-8q-51 0 -51 -98zM172 1282h59v-115h-118v115q0 69 28 110.5t82 41.5h8v-54h-8q-51 0 -51 -98z" />
<glyph unicode="&#x201d;" horiz-adv-x="548" d="M172 1319h-59v115h118v-115q0 -69 -28 -110.5t-82 -41.5h-8v54h8q51 0 51 98zM377 1319h-60v115h119v-115q0 -69 -28 -110.5t-82 -41.5h-9v54h9q51 0 51 98z" />
<glyph unicode="&#x201e;" horiz-adv-x="548" d="M172 0h-59v115h118v-115q0 -69 -28 -110.5t-82 -41.5h-8v54h8q51 0 51 98zM377 0h-60v115h119v-115q0 -69 -28 -110.5t-82 -41.5h-9v54h9q51 0 51 98z" />
<glyph unicode="&#x2022;" horiz-adv-x="626" d="M150 676q0 69 47 116.5t116 47.5t116.5 -47.5t47.5 -116.5t-47.5 -116.5t-116.5 -47.5t-116 47.5t-47 116.5z" />
<glyph unicode="&#x2026;" horiz-adv-x="1271" d="M276 0h-133v129h133v-129zM700 0h-133v129h133v-129zM1124 0h-133v129h133v-129z" />
<glyph unicode="&#x2039;" horiz-adv-x="634" d="M102 498v59l324 467h106l-344 -500l344 -524h-106z" />
<glyph unicode="&#x203a;" horiz-adv-x="634" d="M532 557v-59l-323 -498h-107l344 524l-344 500h107z" />
<glyph unicode="&#x20ac;" horiz-adv-x="966" d="M352 1067v-176h422l-41 -90h-381v-168h422l-41 -90h-381v-176q0 -273 246 -273h307v-94h-309q-168 0 -257 95.5t-89 271.5v176h-203l41 90h162v168h-203l41 90h162v176q0 176 89 271.5t257 95.5h309v-95h-307q-246 0 -246 -272z" />
<glyph unicode="&#x20b4;" horiz-adv-x="923" d="M459 0q-176 0 -258 70.5t-82 208.5q0 155 100 264h-172v90h270l168 168h-438v90h533q54 48 88 123t34 151q0 84 -54.5 129t-180.5 45h-348v95h346q340 0 340 -273q0 -145 -100 -270h172v-90h-269l-168 -168h437v-90h-533q-55 -54 -89 -122.5t-34 -137.5 q0 -96 53.5 -142.5t182.5 -46.5h348v-94h-346z" />
<glyph unicode="&#x20bd;" horiz-adv-x="997" d="M47 547l41 90h162v797h307q162 0 255 -100.5t93 -248.5v-194q0 -148 -93 -248t-255 -100h-154l-41 94h195q115 0 180.5 73t65.5 181v194q0 108 -65.5 181t-180.5 73h-205v-960h422l-41 -90h-381v-289h-102v289h-203l41 90h162v168h-203z" />
<glyph unicode="&#x2122;" horiz-adv-x="962" d="M627 1206q23 -87 47 -207h2q24 120 47 207l61 228h82v-615h-51v285l6 282h-2l-47 -190l-72 -262h-51l-71 262l-48 190h-2q0 -24 3.5 -125.5t3.5 -156.5v-285h-52v615h82zM240 819h-52v567h-147v48h348v-48h-149v-567z" />
<glyph unicode="&#x25fc;" horiz-adv-x="1024" d="M0 1024h1024v-1024h-1024v1024z" />
</font>
</defs>
</svg>
