<?xml version="1.0" standalone="no"?>
<!DOCTYPE svg PUBLIC "-//W3C//DTD SVG 1.1//EN" "http://www.w3.org/Graphics/SVG/1.1/DTD/svg11.dtd" >
<svg>
<metadata>
Created by FontForge 20110222 at Fri Jul 25 04:00:44 2014
 By Orthosie Webhosting
Copyright (c) 2009 by Karl Nawrot &#38; Radim Pesko. All rights reserved.
</metadata>
<defs>
<font id="LynoStanCYR" horiz-adv-x="568" >
  <font-face 
    font-family="Lyno Stan CYR"
    font-weight="400"
    font-stretch="normal"
    units-per-em="1000"
    panose-1="2 0 0 0 0 0 0 0 0 0"
    ascent="800"
    descent="-200"
    x-height="750"
    cap-height="750"
    bbox="-106 -285 1030 1199"
    underline-thickness="50"
    underline-position="-50"
    unicode-range="U+000D-FB02"
  />
<missing-glyph horiz-adv-x="500" 
 />
    <glyph glyph-name=".notdef" horiz-adv-x="500" 
 />
    <glyph glyph-name=".null" horiz-adv-x="0" 
 />
    <glyph glyph-name=".null" horiz-adv-x="0" 
 />
    <glyph glyph-name="nonmarkingreturn" horiz-adv-x="333" 
 />
    <glyph glyph-name="CR" unicode="&#xd;" horiz-adv-x="0" 
 />
    <glyph glyph-name="space" unicode=" " horiz-adv-x="500" 
 />
    <glyph glyph-name="exclam" unicode="!" horiz-adv-x="243" 
d="M223 119l-39 -119h-126l-38 117l97 70l-71 563h150l-71 -563z" />
    <glyph glyph-name="quotedbl" unicode="&#x22;" horiz-adv-x="341" 
d="M131 454h-72l-39 296h150zM282 454h-72l-39 296h150z" />
    <glyph glyph-name="numbersign" unicode="#" horiz-adv-x="545" 
d="M93 187h-73v70h73v236h-73v70h73v187h71v-187h217v187h71v-187h73v-70h-73v-236h73v-70h-73v-187h-71v187h-217v-187h-71v187zM164 493v-236h217v236h-217z" />
    <glyph glyph-name="dollar" unicode="$" horiz-adv-x="324" 
d="M124 603v60h74v-59q33 -10 62 -35t43 -54l-58 -55q-35 73 -83 73q-25 0 -41.5 -15t-16.5 -40q0 -21 19.5 -35.5t58.5 -33.5q6 -3 9 -4q25 -12 40.5 -21.5t34.5 -26t28.5 -37.5t9.5 -48q0 -48 -30 -83t-76 -45v-57h-74v60q-34 11 -62.5 35.5t-41.5 53.5l57 55
q14 -30 37 -52t50 -22q26 0 43 14.5t17 39.5q0 27 -69 62q-2 2 -3.5 2.5t-3.5 1.5q-29 15 -43.5 23.5t-37 26t-32.5 40t-10 51.5q0 45 28 79.5t71 45.5z" />
    <glyph glyph-name="percent" unicode="%" horiz-adv-x="598" 
d="M20 0l483 750h75l-483 -750h-75zM281 177q0 63 42.5 105t105.5 42t105.5 -42t42.5 -105t-42.5 -105t-105.5 -42t-105.5 42t-42.5 105zM511 177q0 36 -23 59t-59 23t-59 -23t-23 -59t23 -59t59 -23t59 23t23 59zM21 574q0 63 42.5 105t105.5 42t105.5 -42t42.5 -105
t-42.5 -105t-105.5 -42t-105.5 42t-42.5 105zM251 574q0 36 -23 59t-59 23t-59 -23t-23 -59t23 -59t59 -23t59 23t23 59z" />
    <glyph glyph-name="ampersand" unicode="&#x26;" horiz-adv-x="657" 
d="M302 438h335v-124h-52q-43 0 -70 -25.5t-27 -72.5q0 -98 -67.5 -165t-166.5 -67q-102 0 -168 66.5t-66 165.5q0 100 79 167q-68 66 -68 160q0 95 63 159t160 64q57 0 107 -27.5t80 -73.5l-94 -93q-9 30 -35 50t-58 20q-39 0 -67.5 -29.5t-28.5 -69.5q0 -41 28 -73t68 -32
h6v-120h-6q-46 0 -74.5 -29t-28.5 -73t29.5 -74.5t73.5 -30.5t73.5 30.5t29.5 75.5q0 79 39 101h-94v120z" />
    <glyph glyph-name="quotesingle" unicode="'" horiz-adv-x="190" 
d="M131 454h-72l-39 296h150z" />
    <glyph glyph-name="parenleft" unicode="(" horiz-adv-x="220" 
d="M20 375q0 116 50 219.5t130 171.5v-100q-108 -124 -108 -291t108 -291v-100q-80 68 -130 171.5t-50 219.5z" />
    <glyph glyph-name="parenright" unicode=")" horiz-adv-x="220" 
d="M200 375q0 -116 -50 -219.5t-130 -171.5v100q108 124 108 291t-108 291v100q80 -68 130 -171.5t50 -219.5z" />
    <glyph glyph-name="asterisk" unicode="*" horiz-adv-x="550" 
d="M530 531l-175 -57l130 -177h-125l-85 120l-85 -120h-125l130 177l-175 57v104l205 -66v181h100v-181l205 66v-104z" />
    <glyph glyph-name="plus" unicode="+" horiz-adv-x="545" 
d="M335 123h-125v190h-190v125h190v190h125v-190h190v-125h-190v-190z" />
    <glyph glyph-name="comma" unicode="," horiz-adv-x="243" 
d="M127 0h-68l-39 117l102 73l101 -73q-14 -63 -32 -117q-19 -57 -50.5 -80.5t-88.5 -25.5v53q26 0 49.5 12t25.5 41z" />
    <glyph glyph-name="hyphen" unicode="-" horiz-adv-x="345" 
d="M20 313v125h305v-125h-305z" />
    <glyph glyph-name="period" unicode="." horiz-adv-x="243" 
d="M184 190l39 -117l-102 -73l-101 73l38 117h126z" />
    <glyph glyph-name="slash" unicode="/" horiz-adv-x="430" 
d="M20 0l318 750h72l-318 -750h-72z" />
    <glyph glyph-name="zero" unicode="0" horiz-adv-x="618" 
d="M151 375q0 -113 44 -190.5t114 -77.5t114 77.5t44 190.5t-44 190.5t-114 77.5v123q125 0 207 -113.5t82 -277.5t-82.5 -277.5t-206.5 -113.5t-206.5 113.5t-82.5 277.5q0 133 56 236t148 139l84 -107q-70 0 -113.5 -77.5t-43.5 -190.5z" />
    <glyph glyph-name="one" unicode="1" horiz-adv-x="436" 
d="M416 0h-396v125h132v449l-132 -134v171l135 139h129v-625h132v-125z" />
    <glyph glyph-name="two" unicode="2" horiz-adv-x="594" 
d="M288 766q121 0 203.5 -76.5t82.5 -199.5q0 -209 -268 -287q-63 -18 -93 -35.5t-38 -42.5h375v-125h-530v120q21 73 84 120t173 78q165 46 165 173q0 69 -43.5 110.5t-111.5 41.5q-60 0 -105.5 -36.5t-56.5 -91.5l-105 92q36 72 109.5 115.5t158.5 43.5z" />
    <glyph glyph-name="three" unicode="3" horiz-adv-x="614" 
d="M349 625h-270v125h438v-125l-108 -108q79 -29 127 -97.5t48 -159.5q0 -118 -83.5 -197t-203.5 -79q-85 0 -158 43.5t-109 115.5l105 92q11 -55 56.5 -91.5t105.5 -36.5q68 0 112 42.5t44 111.5q0 66 -43.5 109t-109.5 43h-168z" />
    <glyph glyph-name="four" unicode="4" horiz-adv-x="601" 
d="M581 237h-111v-237h-130v237h-320v124l310 389h140v-389h111v-124zM163 361h179v222z" />
    <glyph glyph-name="five" unicode="5" horiz-adv-x="594" 
d="M20 536l106 214h382v-125h-307l-49 -88h139q120 0 201.5 -77.5t81.5 -199.5q0 -118 -83.5 -197t-203.5 -79q-85 0 -158 43.5t-109 115.5l105 92q11 -55 56.5 -91.5t105.5 -36.5q68 0 112 42.5t44 111.5q0 68 -45 110t-115 42h-263v123z" />
    <glyph glyph-name="six" unicode="6" horiz-adv-x="619" 
d="M69 433l205 317h146l-129 -193q5 1 17 1q120 0 205.5 -83t85.5 -203q0 -121 -85 -204.5t-206 -83.5q-119 0 -203.5 83.5t-84.5 204.5q0 84 49 161zM149 273q0 -70 45.5 -118t113.5 -48q70 0 115 47.5t45 118.5q0 68 -45.5 115.5t-114.5 47.5q-68 0 -113.5 -47.5
t-45.5 -115.5z" />
    <glyph glyph-name="seven" unicode="7" horiz-adv-x="588" 
d="M79 750h489v-125l-394 -625h-154l399 625h-340v125z" />
    <glyph glyph-name="eight" unicode="8" horiz-adv-x="509" 
d="M20 216q0 103 79 170q-68 65 -68 159q0 93 66 157t158 64t157.5 -64t65.5 -157t-68 -159q79 -67 79 -170q0 -97 -69.5 -164.5t-164.5 -67.5t-165 67.5t-70 164.5zM255 322q-45 0 -74.5 -30.5t-29.5 -75.5t29.5 -75t74.5 -30q44 0 73.5 30.5t29.5 74.5q0 45 -29 75.5
t-74 30.5zM255 445q41 0 68.5 29.5t27.5 70.5q0 40 -28 69t-68 29t-68.5 -29t-28.5 -69t28 -70t69 -30z" />
    <glyph glyph-name="nine" unicode="9" horiz-adv-x="619" 
d="M550 317l-205 -317h-146l129 193q-5 -1 -17 -1q-120 0 -205.5 83t-85.5 203q0 121 85 204.5t206 83.5q119 0 203.5 -83.5t84.5 -204.5q0 -84 -49 -161zM470 477q0 70 -45.5 118t-113.5 48q-70 0 -115 -47.5t-45 -118.5q0 -68 45.5 -115.5t114.5 -47.5q68 0 113.5 47.5
t45.5 115.5z" />
    <glyph glyph-name="colon" unicode=":" horiz-adv-x="243" 
d="M184 0l39 117l-102 73l-101 -73l38 -117h126zM184 569l39 -117l-102 -73l-101 73l38 117h126z" />
    <glyph glyph-name="semicolon" unicode=";" horiz-adv-x="243" 
d="M127 0h-68l-39 117l102 73l101 -73q-14 -63 -32 -117q-19 -57 -50.5 -80.5t-88.5 -25.5v53q26 0 49.5 12t25.5 41zM184 569l39 -117l-102 -73l-101 73l38 117h126z" />
    <glyph glyph-name="less" unicode="&#x3c;" horiz-adv-x="545" 
d="M20 323v104l505 201v-135l-331 -118l331 -118v-134z" />
    <glyph glyph-name="equal" unicode="=" horiz-adv-x="545" 
d="M20 188v125h505v-125h-505zM20 438v125h505v-125h-505z" />
    <glyph glyph-name="greater" unicode="&#x3e;" horiz-adv-x="545" 
d="M525 427v-104l-505 -200v134l331 118l-331 118v135z" />
    <glyph glyph-name="question" unicode="?" horiz-adv-x="495" 
d="M248 766q97 0 162 -64.5t65 -159.5q0 -102 -65.5 -160.5t-169.5 -69.5q-35 -4 -56 -23t-21 -50q0 -26 19 -49q-89 57 -89 127q-1 46 33.5 77t91.5 37q52 5 91 33t39 78q0 42 -28.5 68t-72.5 26q-41 0 -71 -27t-30 -66h-126q0 91 67 157t161 66zM245 0l39 119l-102 71
l-101 -73l38 -117h126z" />
    <glyph glyph-name="at" unicode="@" horiz-adv-x="727" 
d="M408 -16q-168 2 -278 109.5t-110 279.5t111 282.5t279 110.5q122 0 210 -75t88 -192q0 -155 -137 -223l46 -125h-78l-36 101q-41 -10 -92 -10q-39 0 -85 12l-35 -103h-78l159 447h83l91 -253q90 47 90 154q0 84 -65 141t-161 57q-142 0 -230 -90t-88 -234t87 -232
t229 -88q127 0 215 77l27 -72q-49 -35 -113.5 -55t-128.5 -19zM413 508l-64 -185q32 -8 62 -8q35 0 68 6z" />
    <glyph glyph-name="A" unicode="A" horiz-adv-x="816" 
d="M477 750l319 -750h-139l-103 242l-401 -242h-133l319 750h138zM407 588l-174 -404l270 179z" />
    <glyph glyph-name="B" unicode="B" horiz-adv-x="524" 
d="M20 0v750h245q100 0 169.5 -60t69.5 -158q0 -101 -73 -158q73 -60 73 -156q0 -98 -69.5 -158t-169.5 -60h-245zM372 218q0 45 -29.5 70t-74.5 25h-116v-188h116q45 0 74.5 24t29.5 69zM372 532q0 45 -29.5 69t-74.5 24h-116v-187h116q45 0 74.5 24.5t29.5 69.5z" />
    <glyph glyph-name="C" unicode="C" horiz-adv-x="745" 
d="M411 108q74 0 131 33.5t91 93.5l92 -92q-54 -74 -136.5 -116.5t-177.5 -42.5q-163 0 -277 113t-114 278t114 278t277 113q97 0 178.5 -42t135.5 -117l-92 -92q-34 60 -91.5 94t-130.5 34q-113 0 -189 -77t-76 -191q0 -113 76 -190t189 -77z" />
    <glyph glyph-name="D" unicode="D" horiz-adv-x="664" 
d="M20 0v750h232q164 0 278 -106.5t114 -268.5t-114 -268.5t-278 -106.5h-232zM152 125h100q115 -1 187.5 68t72.5 182t-72 181.5t-188 68.5h-100v-500z" />
    <glyph glyph-name="E" unicode="E" horiz-adv-x="508" 
d="M20 0v750h468v-125h-336v-187h336v-125h-336v-188h336v-125h-468z" />
    <glyph glyph-name="F" unicode="F" horiz-adv-x="508" 
d="M20 0v750h468v-125h-336v-187h336v-125h-336v-313h-132z" />
    <glyph glyph-name="G" unicode="G" horiz-adv-x="783" 
d="M411 -16q-163 0 -277 113t-114 278t114 278t277 113q97 0 178.5 -42t135.5 -117l-92 -92q-34 60 -91.5 94t-130.5 34q-113 0 -189 -77t-76 -191q0 -113 76 -190t189 -77q75 0 135 34t88 93v17h-223v123h352v-375h-131v57q-102 -73 -221 -73z" />
    <glyph glyph-name="H" unicode="H" 
d="M416 438v312h132v-750h-132v313h-264v-313h-132v750h132v-312h264z" />
    <glyph glyph-name="I" unicode="I" horiz-adv-x="172" 
d="M20 0v750h132v-750h-132z" />
    <glyph glyph-name="J" unicode="J" horiz-adv-x="304" 
d="M284 750v-498q0 -114 -73 -185t-191 -67v125q61 -4 96.5 28.5t35.5 92.5v504h132z" />
    <glyph glyph-name="K" unicode="K" horiz-adv-x="674" 
d="M152 476l502 274v-147l-433 -228l433 -228v-147l-502 274v-274h-132v750h132v-274z" />
    <glyph glyph-name="L" unicode="L" horiz-adv-x="628" 
d="M608 0h-588v125l265 625h145l-273 -625h451v-125z" />
    <glyph glyph-name="M" unicode="M" horiz-adv-x="656" 
d="M234 750l94 -457l94 457h214v-750h-129v552l-123 -552h-112l-123 552v-552h-129v750h214z" />
    <glyph glyph-name="N" unicode="N" horiz-adv-x="588" 
d="M438 244v506h130v-750h-142l-276 505v-505h-130v750h143z" />
    <glyph glyph-name="O" unicode="O" horiz-adv-x="822" 
d="M20 375q0 165 114 278t277 113t277 -113t114 -278t-114 -278t-277 -113t-277 113t-114 278zM145 375q0 -113 77.5 -190t188.5 -77q112 0 189.5 77t77.5 190t-78 190.5t-189 77.5t-188.5 -77.5t-77.5 -190.5z" />
    <glyph glyph-name="P" unicode="P" horiz-adv-x="605" 
d="M346 313h-194v-313h-132v750h326q100 0 169.5 -60t69.5 -158t-70 -158.5t-169 -60.5zM453 532q0 45 -29.5 69t-74.5 24h-197v-187h197q44 0 74 25t30 69z" />
    <glyph glyph-name="Q" unicode="Q" horiz-adv-x="822" 
d="M20 375q0 165 114 278t277 113t277 -113t114 -278q0 -106 -53 -199l53 -32v-144l-133 80q-110 -96 -258 -96q-163 0 -277 113t-114 278zM145 375q0 -113 77.5 -190t188.5 -77q78 0 144 41l-209 126v149l297 -183q35 62 35 134q0 113 -78 190.5t-189 77.5t-188.5 -77.5
t-77.5 -190.5z" />
    <glyph glyph-name="R" unicode="R" horiz-adv-x="585" 
d="M565 -1l-413 185v-184h-132v750h306q100 0 169.5 -59t69.5 -157t-69.5 -157.5t-169.5 -59.5h-162l401 -173v-145zM433 534q0 44 -29.5 67.5t-74.5 23.5h-177v-183h177q45 0 74.5 24t29.5 68z" />
    <glyph glyph-name="S" unicode="S" horiz-adv-x="514" 
d="M257 639q-41 0 -68.5 -25t-27.5 -67q0 -19 10.5 -35.5t30 -30t42 -25.5t50.5 -26q7 -3 11 -5q34 -16 54.5 -27.5t49 -32.5t45 -42t28.5 -52t12 -67q0 -97 -66 -158t-170 -61q-71 0 -140 47.5t-98 110.5l95 92q23 -49 62 -86t83 -37q43 0 71.5 23.5t28.5 65.5q0 31 -28 53
t-86 51q-9 4 -13 6q-29 15 -40 20.5t-38.5 21.5t-40 27t-32.5 30.5t-29 38t-16.5 44t-7.5 53.5q0 94 64.5 156.5t165.5 62.5q71 0 137.5 -47t95.5 -110l-96 -92q-62 123 -139 123z" />
    <glyph glyph-name="T" unicode="T" 
d="M20 625v125h528v-125h-198v-625h-132v625h-198z" />
    <glyph glyph-name="U" unicode="U" 
d="M548 750v-511q0 -112 -76.5 -183.5t-187.5 -71.5t-187.5 71.5t-76.5 183.5v511h132v-513q0 -57 37.5 -93.5t94.5 -36.5t94.5 36.5t37.5 93.5v513h132z" />
    <glyph glyph-name="V" unicode="V" horiz-adv-x="641" 
d="M251 0l-231 750h139l161 -558l162 558h139l-232 -750h-138z" />
    <glyph glyph-name="W" unicode="W" horiz-adv-x="993" 
d="M973 750l-303 -750h-132l-42 207l-41 -207h-132l-303 750h143l212 -549l43 237h157l43 -237l212 549h143z" />
    <glyph glyph-name="X" unicode="X" horiz-adv-x="497" 
d="M248 212l-90 -212h-138l159 375l-159 375h139l89 -211l90 211h139l-159 -375l159 -375h-138z" />
    <glyph glyph-name="Y" unicode="Y" horiz-adv-x="541" 
d="M521 750l-177 -437l133 -313h-138l-319 750h146l110 -282l104 282h141z" />
    <glyph glyph-name="Z" unicode="Z" horiz-adv-x="497" 
d="M477 0h-457v125l314 500h-308v125h451v-125l-316 -500h316v-125z" />
    <glyph glyph-name="bracketleft" unicode="[" horiz-adv-x="220" 
d="M200 0h-180v750h180v-69h-108v-612h108v-69z" />
    <glyph glyph-name="backslash" unicode="\" horiz-adv-x="430" 
d="M92 750l318 -750h-72l-318 750h72z" />
    <glyph glyph-name="bracketright" unicode="]" horiz-adv-x="220" 
d="M200 0h-180v69h108v612h-108v69h180v-750z" />
    <glyph glyph-name="asciicircum" unicode="^" horiz-adv-x="545" 
d="M222 750h104l199 -505h-132l-119 331l-119 -331h-135z" />
    <glyph glyph-name="underscore" unicode="_" horiz-adv-x="545" 
d="M525 -72h-505v72h505v-72z" />
    <glyph glyph-name="grave" unicode="`" horiz-adv-x="364" 
d="M152 790l-102 60v119l264 -179h-162z" />
    <glyph glyph-name="a" unicode="a" horiz-adv-x="816" 
d="M796 442v-132l-110 -53l110 -257h-139l-86 201l-418 -201h-133l319 750h138l163 -384zM407 588l-180 -420l297 143z" />
    <glyph glyph-name="b" unicode="b" horiz-adv-x="585" 
d="M433 532q0 45 -29.5 69t-74.5 24h-177v-187h177q45 0 74.5 24.5t29.5 69.5zM457 350q48 -54 48 -132q0 -98 -69.5 -158t-169.5 -60h-246v750h306q100 0 169.5 -60t69.5 -158q0 -119 -108 -182zM373 218q0 45 -29.5 70t-74.5 25h-116v-188h116q45 0 74.5 24t29.5 69z" />
    <glyph glyph-name="c" unicode="c" horiz-adv-x="745" 
d="M411 108q74 0 131 33.5t91 93.5l92 -92q-54 -74 -136.5 -116.5t-177.5 -42.5q-163 0 -277 113t-114 278t114 278t277 113q97 0 178.5 -42t135.5 -117l-92 -92q-34 60 -91.5 94t-130.5 34q-113 0 -189 -77t-76 -191q0 -113 76 -190t189 -77z" />
    <glyph glyph-name="d" unicode="d" horiz-adv-x="597" 
d="M20 0v750h172q164 0 279.5 -106t115.5 -269t-115.5 -269t-279.5 -106h-172zM152 125h43q116 -1 188.5 68t72.5 182t-72.5 181.5t-188.5 68.5h-43v-500z" />
    <glyph glyph-name="e" unicode="e" horiz-adv-x="508" 
d="M20 0v750h468v-125h-336v-187h336v-125h-336v-188h336v-125h-468z" />
    <glyph glyph-name="f" unicode="f" 
d="M288 750l170 -152v-155l-174 154v-159h264v-125h-264v-313h-132v313h-132v125h132v312h136z" />
    <glyph glyph-name="g" unicode="g" horiz-adv-x="773" 
d="M401 -16q-163 0 -277 113t-114 278t114 278t277 113q97 0 178.5 -42t135.5 -117l-92 -92q-34 60 -91.5 94t-130.5 34q-113 0 -189 -77t-76 -191h617v-375h-131v57q-102 -73 -221 -73zM401 108q75 0 135.5 34t88.5 93v17h-461q33 -66 95.5 -105t141.5 -39z" />
    <glyph glyph-name="h" unicode="h" 
d="M416 438v312h132v-750h-132v313h-264v-313h-132v750h132v-312h264z" />
    <glyph glyph-name="i" unicode="i" 
d="M548 0h-528v125h198v500h-198v125h528v-125h-198v-500h198v-125z" />
    <glyph glyph-name="j" unicode="j" horiz-adv-x="509" 
d="M152 315v-98q0 -46 27 -75.5t75 -29.5q47 0 75 29.5t28 75.5v533h132v-533q0 -101 -66.5 -166.5t-168.5 -65.5t-168 65.5t-66 166.5v98h132z" />
    <glyph glyph-name="k" unicode="k" horiz-adv-x="691" 
d="M152 474l502 276v-147l-432 -228l449 -375h-198l-321 269v-269h-132v750h132v-276z" />
    <glyph glyph-name="l" unicode="l" horiz-adv-x="520" 
d="M20 0v750h132v-600l348 220v-148l-348 -222h-132z" />
    <glyph glyph-name="m" unicode="m" horiz-adv-x="700" 
d="M680 750v-750h-127v569l-134 -292h-138l-134 292v-569h-127v750h182l148 -329l148 329h182z" />
    <glyph glyph-name="n" unicode="n" horiz-adv-x="588" 
d="M438 244v506h130v-750h-142l-276 505v-505h-130v750h143z" />
    <glyph glyph-name="o" unicode="o" horiz-adv-x="822" 
d="M20 375q0 165 114 278t277 113t277 -113t114 -278t-114 -278t-277 -113t-277 113t-114 278zM145 375q0 -113 77.5 -190t188.5 -77q112 0 189.5 77t77.5 190t-78 190.5t-189 77.5t-188.5 -77.5t-77.5 -190.5z" />
    <glyph glyph-name="p" unicode="p" horiz-adv-x="575" 
d="M316 313h-164v-313h-132v750h296q100 0 169.5 -60t69.5 -158t-70 -158.5t-169 -60.5zM423 532q0 45 -29.5 69t-74.5 24h-167v-187h167q44 0 74 25t30 69z" />
    <glyph glyph-name="q" unicode="q" horiz-adv-x="822" 
d="M20 375q0 165 114 278t277 113t277 -113t114 -278q0 -143 -90 -251l89 -124h-145l-33 45q-95 -61 -212 -61q-163 0 -277 113t-114 278zM145 375q0 -113 77.5 -190t188.5 -77q76 0 138 37l-121 167h150l58 -82q42 68 42 145q0 113 -78 190.5t-189 77.5t-188.5 -77.5
t-77.5 -190.5z" />
    <glyph glyph-name="r" unicode="r" horiz-adv-x="624" 
d="M326 313h-174v-313h-132v750h306q100 0 169.5 -60t69.5 -158q0 -97 -79 -162q76 -60 89 -186q9 -82 29 -184h-137q-15 86 -26 181q-14 132 -115 132zM433 532q0 45 -29.5 69t-74.5 24h-177v-187h177q45 0 74.5 24.5t29.5 69.5z" />
    <glyph glyph-name="s" unicode="s" horiz-adv-x="514" 
d="M257 639q-41 0 -68.5 -25t-27.5 -67q0 -19 10.5 -35.5t30 -30t42 -25.5t50.5 -26q7 -3 11 -5q34 -16 54.5 -27.5t49 -32.5t45 -42t28.5 -52t12 -67q0 -97 -66 -158t-170 -61q-71 0 -140 47.5t-98 110.5l95 92q23 -49 62 -86t83 -37q43 0 71.5 23.5t28.5 65.5q0 31 -28 53
t-86 51q-9 4 -13 6q-29 15 -40 20.5t-38.5 21.5t-40 27t-32.5 30.5t-29 38t-16.5 44t-7.5 53.5q0 94 64.5 156.5t165.5 62.5q71 0 137.5 -47t95.5 -110l-96 -92q-62 123 -139 123z" />
    <glyph glyph-name="t" unicode="t" 
d="M20 625v125h528v-125h-198v-625h-132v625h-198z" />
    <glyph glyph-name="u" unicode="u" 
d="M548 750v-511q0 -112 -76.5 -183.5t-187.5 -71.5t-187.5 71.5t-76.5 183.5v511h132v-513q0 -57 37.5 -93.5t94.5 -36.5t94.5 36.5t37.5 93.5v513h132z" />
    <glyph glyph-name="v" unicode="v" horiz-adv-x="641" 
d="M251 0l-231 750h139l161 -558l162 558h139l-232 -750h-138z" />
    <glyph glyph-name="w" unicode="w" horiz-adv-x="993" 
d="M973 750l-303 -750h-132l-42 207l-41 -207h-132l-303 750h143l212 -549l43 237h157l43 -237l212 549h143z" />
    <glyph glyph-name="x" unicode="x" horiz-adv-x="497" 
d="M248 212l-90 -212h-138l159 375l-159 375h139l89 -211l90 211h139l-159 -375l159 -375h-138z" />
    <glyph glyph-name="y" unicode="y" horiz-adv-x="541" 
d="M198 313l-178 437h141l105 -283l111 283h144l-319 -750h-138z" />
    <glyph glyph-name="z" unicode="z" horiz-adv-x="497" 
d="M477 0h-457v125l314 500h-308v125h451v-125l-316 -500h316v-125z" />
    <glyph glyph-name="braceleft" unicode="{" horiz-adv-x="235" 
d="M20 339v72q64 17 88 77t11 149q-6 38 2 76.5t22 52.5h72q-13 -13 -19 -54.5t-3 -74.5q22 -220 -110 -262q132 -42 110 -262q-3 -33 3 -74.5t19 -54.5h-72q-14 14 -22 52.5t-2 76.5q13 89 -11 149t-88 77z" />
    <glyph glyph-name="bar" unicode="|" horiz-adv-x="112" 
d="M92 750v-750h-72v750h72z" />
    <glyph glyph-name="braceright" unicode="}" horiz-adv-x="235" 
d="M215 411v-72q-64 -17 -88 -77t-11 -149q6 -38 -2 -76.5t-22 -52.5h-72q13 13 19 54.5t3 74.5q-22 220 110 262q-132 42 -110 262q3 33 -3 74.5t-19 54.5h72q14 -14 22 -52.5t2 -76.5q-13 -89 11 -149t88 -77z" />
    <glyph glyph-name="asciitilde" unicode="~" horiz-adv-x="545" 
d="M386 274q-47 0 -120.5 41.5t-106.5 41.5q-34 0 -63 -13t-43.5 -27t-32.5 -36v133q59 61 138 61q47 0 123 -42t109 -42q34 0 62.5 14t40.5 26.5t32 37.5v-135q-60 -60 -139 -60z" />
    <glyph glyph-name="nbspace" unicode="&#xa0;" horiz-adv-x="500" 
 />
    <glyph glyph-name="exclamdown" unicode="&#xa1;" horiz-adv-x="243" 
d="M184 750l39 -119l-98 -68l71 -563h-150l71 563l-97 70l38 117h126z" />
    <glyph glyph-name="cent" unicode="&#xa2;" horiz-adv-x="388" 
d="M217 607v56h74v-56q43 -6 77 -27l-38 -64q-21 12 -39 16v-313q18 4 38 17l39 -66q-36 -22 -77 -28v-55h-74v56q-85 13 -141 78t-56 154t56 153.5t141 78.5zM96 375q0 -58 33.5 -101t87.5 -55v313q-55 -12 -88 -55t-33 -102z" />
    <glyph glyph-name="sterling" unicode="&#xa3;" horiz-adv-x="401" 
d="M381 407h-139v24q-2 47 -28 74.5t-57 27.5q-25 0 -41.5 -15t-16.5 -40q0 -23 18 -39t56 -35q46 -23 69.5 -49t21.5 -68q-1 -33 -29 -62h146v-75h-339v76q143 -9 143 50q0 37 -54 63q-55 27 -83 57.5t-28 81.5q0 56 40.5 93.5t97.5 37.5q55 0 97 -37.5t51 -89.5h75v-75z
" />
    <glyph glyph-name="yen" unicode="&#xa5;" horiz-adv-x="404" 
d="M163 339h-119v73h107l-131 188h89l93 -141l93 141h89l-131 -188h107v-73h-119v-115h119v-74h-316v74h119v115z" />
    <glyph glyph-name="brokenbar" unicode="&#xa6;" horiz-adv-x="112" 
d="M92 750v-296h-72v296h72zM92 296v-296h-72v296h72z" />
    <glyph glyph-name="dieresis" unicode="&#xa8;" horiz-adv-x="426" 
d="M181 936l32 -94l-82 -58l-81 58l31 94h100zM344 936l32 -94l-82 -58l-81 58l31 94h100z" />
    <glyph glyph-name="copyright" unicode="&#xa9;" horiz-adv-x="822" 
d="M20 375q0 165 114 278t277 113t277 -113t114 -278t-114 -278t-277 -113t-277 113t-114 278zM92 375q0 -135 92.5 -228t226.5 -93q133 0 226.5 93t93.5 228t-93.5 228t-226.5 93q-134 0 -226.5 -93t-92.5 -228zM417 215q89 0 133 76l55 -55q-33 -44 -82 -70t-106 -26
q-98 0 -166.5 68t-68.5 167t68.5 167t166.5 68q118 0 188 -96l-55 -55q-44 77 -133 77q-68 0 -113.5 -46.5t-45.5 -114.5t45.5 -114t113.5 -46z" />
    <glyph glyph-name="guillemotleft" unicode="&#xab;" horiz-adv-x="455" 
d="M272 463l163 162v-162l-91 -88l91 -88v-162l-163 162v176zM20 375l252 250v-162l-92 -88l92 -88v-162z" />
    <glyph glyph-name="logicalnot" unicode="&#xac;" horiz-adv-x="545" 
d="M525 0h-125v313h-380v125h505v-438z" />
    <glyph glyph-name="uni00AD" unicode="&#xad;" horiz-adv-x="345" 
d="M20 313v125h305v-125h-305z" />
    <glyph glyph-name="registered" unicode="&#xae;" horiz-adv-x="822" 
d="M20 375q0 165 114 278t277 113t277 -113t114 -278t-114 -278t-277 -113t-277 113t-114 278zM92 375q0 -135 92.5 -228t226.5 -93q133 0 226.5 93t93.5 228t-93.5 228t-226.5 93q-134 0 -226.5 -93t-92.5 -228zM434 338h-104v-188h-79v450h183q60 0 102 -36t42 -95
q0 -58 -48 -97q45 -35 54 -112q4 -46 17 -110h-82q-8 45 -16 109q-7 79 -69 79zM499 469q0 27 -18 41.5t-45 14.5h-106v-112h106q27 0 45 14.5t18 41.5z" />
    <glyph glyph-name="macron" unicode="&#xaf;" horiz-adv-x="395" 
d="M50 811v95h295v-95h-295z" />
    <glyph glyph-name="degree" unicode="&#xb0;" horiz-adv-x="336" 
d="M20 602q0 62 43 105t105 43t105 -43t43 -105t-43 -105t-105 -43t-105 43t-43 105zM251 602q0 34 -24.5 58.5t-58.5 24.5t-58.5 -24.5t-24.5 -58.5t24.5 -58.5t58.5 -24.5t58.5 24.5t24.5 58.5z" />
    <glyph glyph-name="plusminus" unicode="&#xb1;" horiz-adv-x="545" 
d="M335 245h-125v190h-190v125h190v190h125v-190h190v-125h-190v-190zM20 0v125h505v-125h-505z" />
    <glyph glyph-name="acute" unicode="&#xb4;" horiz-adv-x="364" 
d="M314 850l-102 -60h-162l264 179v-119z" />
    <glyph glyph-name="paragraph" unicode="&#xb6;" horiz-adv-x="533" 
d="M265 343h-42q-87 0 -145 59.5t-58 144.5t58 144t145 59h290v-126h-116v-724h-132v443z" />
    <glyph glyph-name="periodcentered" unicode="&#xb7;" horiz-adv-x="243" 
d="M223 307l-39 -117h-126l-38 117l101 73z" />
    <glyph glyph-name="cedilla" unicode="&#xb8;" horiz-adv-x="316" 
d="M50 -215l28 92q25 -22 55 -22q32 0 32 26q0 34 -65 27v107h95v-49q29 -7 50 -31t21 -60q0 -53 -36 -82t-86 -29q-57 0 -94 21z" />
    <glyph glyph-name="guillemotright" unicode="&#xbb;" horiz-adv-x="455" 
d="M183 625l252 -250l-252 -250v162l-163 -162v162l91 88l-91 88v162l163 -162v162zM275 375l-92 88v-176z" />
    <glyph glyph-name="questiondown" unicode="&#xbf;" horiz-adv-x="495" 
d="M247 -16q-97 0 -162 64.5t-65 159.5q0 102 65.5 160.5t169.5 69.5q35 4 56 23t21 50q0 26 -19 49q89 -57 89 -127q1 -46 -33.5 -77t-91.5 -37q-52 -5 -91 -33t-39 -78q0 -42 28.5 -68t72.5 -26q41 0 71 27t30 66h126q0 -91 -67 -157t-161 -66zM211 631l39 119h126
l38 -117l-101 -73z" />
    <glyph glyph-name="Agrave" unicode="&#xc0;" horiz-adv-x="816" 
d="M477 750l319 -750h-139l-103 242l-401 -242h-133l319 750h138zM407 588l-174 -404l270 179zM310 790l-102 60v119l264 -179h-162z" />
    <glyph glyph-name="Aacute" unicode="&#xc1;" horiz-adv-x="816" 
d="M796 0l-319 750h-138l-319 -750h133l401 242l103 -242h139zM233 184l174 404l96 -225zM612 850l-102 -60h-162l264 179v-119z" />
    <glyph glyph-name="Acircumflex" unicode="&#xc2;" horiz-adv-x="816" 
d="M477 750l319 -750h-139l-103 242l-401 -242h-133l319 750h138zM407 588l-174 -404l270 179zM408 865l-148 -96v110l93 64h109l93 -64v-110z" />
    <glyph glyph-name="Atilde" unicode="&#xc3;" horiz-adv-x="816" 
d="M796 0l-319 750h-138l-319 -750h133l401 242l103 -242h139zM233 184l174 404l96 -225zM479 785q-25 0 -76 22.5t-69 22.5q-19 0 -34.5 -7t-22.5 -14.5t-17 -20.5v103q32 32 76 32q25 0 76 -22.5t69 -22.5q43 0 74 42v-103q-32 -32 -76 -32z" />
    <glyph glyph-name="Adieresis" unicode="&#xc4;" horiz-adv-x="816" 
d="M796 0l-319 750h-138l-319 -750h133l401 242l103 -242h139zM233 184l174 404l96 -225zM376 936l32 -94l-82 -58l-81 58l31 94h100zM539 936l32 -94l-82 -58l-81 58l31 94h100z" />
    <glyph glyph-name="Aring" unicode="&#xc5;" horiz-adv-x="816" 
d="M477 750l319 -750h-139l-103 242l-401 -242h-133l319 750h138zM407 588l-174 -404l270 179zM297 884q0 46 32.5 78.5t78.5 32.5t78.5 -32.5t32.5 -78.5t-32.5 -78.5t-78.5 -32.5t-78.5 32.5t-32.5 78.5zM369 884q0 -16 11.5 -27.5t27.5 -11.5t27.5 11.5t11.5 27.5
t-11.5 27.5t-27.5 11.5t-27.5 -11.5t-11.5 -27.5z" />
    <glyph glyph-name="AE" unicode="&#xc6;" horiz-adv-x="930" 
d="M621 414l289 172v-144l-241 -141l76 -176h165v-125h-255l-99 235l-403 -235h-133l319 750h571v-125h-380zM407 588l-174 -404l275 163z" />
    <glyph glyph-name="Ccedilla" unicode="&#xc7;" horiz-adv-x="745" 
d="M304 -215l28 92q25 -22 55 -22q32 0 32 26q0 34 -65 27v80q-143 20 -238.5 129t-95.5 258q0 165 114 278t277 113q97 0 178.5 -42t135.5 -117l-92 -92q-34 60 -91.5 94t-130.5 34q-113 0 -189 -77t-76 -191q0 -113 76 -190t189 -77q74 0 131 33.5t91 93.5l92 -92
q-48 -67 -120 -108t-156 -49v-20q29 -7 50 -31t21 -60q0 -53 -36 -82t-86 -29q-57 0 -94 21z" />
    <glyph glyph-name="Egrave" unicode="&#xc8;" horiz-adv-x="508" 
d="M20 0v750h468v-125h-336v-187h336v-125h-336v-188h336v-125h-468zM214 790l-102 60v119l264 -179h-162z" />
    <glyph glyph-name="Eacute" unicode="&#xc9;" horiz-adv-x="508" 
d="M20 750v-750h468v125h-336v188h336v125h-336v187h336v125h-468zM406 850l-102 -60h-162l264 179v-119z" />
    <glyph glyph-name="Ecircumflex" unicode="&#xca;" horiz-adv-x="508" 
d="M20 0v750h468v-125h-336v-187h336v-125h-336v-188h336v-125h-468zM254 865l-148 -96v110l93 64h109l93 -64v-110z" />
    <glyph glyph-name="Edieresis" unicode="&#xcb;" horiz-adv-x="508" 
d="M20 750v-750h468v125h-336v188h336v125h-336v187h336v125h-468zM386 936l32 -94l-82 -58l-81 58l31 94h100zM223 936l32 -94l-82 -58l-81 58l31 94h100z" />
    <glyph glyph-name="Igrave" unicode="&#xcc;" horiz-adv-x="172" 
d="M20 0v750h132v-750h-132zM-4 790l-102 60v119l264 -179h-162z" />
    <glyph glyph-name="Iacute" unicode="&#xcd;" horiz-adv-x="172" 
d="M20 750v-750h132v750h-132zM284 850l-102 -60h-162l264 179v-119z" />
    <glyph glyph-name="Icircumflex" unicode="&#xce;" horiz-adv-x="172" 
d="M20 0v750h132v-750h-132zM87 865l-148 -96v110l93 64h109l93 -64v-110z" />
    <glyph glyph-name="Idieresis" unicode="&#xcf;" horiz-adv-x="172" 
d="M20 750v-750h132v750h-132zM217 936l32 -94l-82 -58l-81 58l31 94h100zM54 936l32 -94l-82 -58l-81 58l31 94h100z" />
    <glyph glyph-name="Eth" unicode="&#xd0;" horiz-adv-x="664" 
d="M20 312v125h40v313h192q164 0 278 -106.5t114 -268.5t-114 -268.5t-278 -106.5h-192v312h-40zM192 125h60q115 -1 187.5 68t72.5 182t-72 181.5t-188 68.5h-60v-188h164v-125h-164v-187z" />
    <glyph glyph-name="Ntilde" unicode="&#xd1;" horiz-adv-x="588" 
d="M438 750v-506l-275 506h-143v-750h130v505l276 -505h142v750h-130zM365 785q-25 0 -76 22.5t-69 22.5q-19 0 -34.5 -7t-22.5 -14.5t-17 -20.5v103q32 32 76 32q25 0 76 -22.5t69 -22.5q43 0 74 42v-103q-32 -32 -76 -32z" />
    <glyph glyph-name="Ograve" unicode="&#xd2;" horiz-adv-x="822" 
d="M20 375q0 165 114 278t277 113t277 -113t114 -278t-114 -278t-277 -113t-277 113t-114 278zM145 375q0 -113 77.5 -190t188.5 -77q112 0 189.5 77t77.5 190t-78 190.5t-189 77.5t-188.5 -77.5t-77.5 -190.5zM341 790l-102 60v119l264 -179h-162z" />
    <glyph glyph-name="Oacute" unicode="&#xd3;" horiz-adv-x="822" 
d="M20 375q0 -165 114 -278t277 -113t277 113t114 278t-114 278t-277 113t-277 -113t-114 -278zM145 375q0 113 77.5 190.5t188.5 77.5t189 -77.5t78 -190.5t-77.5 -190t-189.5 -77q-111 0 -188.5 77t-77.5 190zM586 850l-102 -60h-162l264 179v-119z" />
    <glyph glyph-name="Ocircumflex" unicode="&#xd4;" horiz-adv-x="822" 
d="M20 375q0 165 114 278t277 113t277 -113t114 -278t-114 -278t-277 -113t-277 113t-114 278zM145 375q0 -113 77.5 -190t188.5 -77q112 0 189.5 77t77.5 190t-78 190.5t-189 77.5t-188.5 -77.5t-77.5 -190.5zM411 865l-148 -96v110l93 64h109l93 -64v-110z" />
    <glyph glyph-name="Otilde" unicode="&#xd5;" horiz-adv-x="822" 
d="M20 375q0 -165 114 -278t277 -113t277 113t114 278t-114 278t-277 113t-277 -113t-114 -278zM145 375q0 113 77.5 190.5t188.5 77.5t189 -77.5t78 -190.5t-77.5 -190t-189.5 -77q-111 0 -188.5 77t-77.5 190zM482 785q-25 0 -76 22.5t-69 22.5q-43 0 -74 -42v103
q32 32 76 32q25 0 76 -22.5t69 -22.5q19 0 34.5 7t22.5 14.5t17 20.5v-103q-32 -32 -76 -32z" />
    <glyph glyph-name="Odieresis" unicode="&#xd6;" horiz-adv-x="822" 
d="M20 375q0 -165 114 -278t277 -113t277 113t114 278t-114 278t-277 113t-277 -113t-114 -278zM145 375q0 113 77.5 190.5t188.5 77.5t189 -77.5t78 -190.5t-77.5 -190t-189.5 -77q-111 0 -188.5 77t-77.5 190zM379 936l32 -94l-82 -58l-81 58l31 94h100zM542 936l32 -94
l-82 -58l-81 58l31 94h100z" />
    <glyph glyph-name="multiply" unicode="&#xd7;" horiz-adv-x="545" 
d="M360 375l165 -164l-88 -88l-165 164l-164 -164l-88 88l164 164l-164 165l88 88l164 -165l165 165l88 -88z" />
    <glyph glyph-name="Oslash" unicode="&#xd8;" horiz-adv-x="822" 
d="M20 375q0 165 114 278t277 113q109 0 204 -57l46 57h140l-102 -125q103 -111 103 -266q0 -165 -114 -278t-277 -113q-112 0 -205 56l-46 -56h-140l102 125q-102 112 -102 266zM411 108q112 0 189.5 77t77.5 190q0 96 -59 169l-333 -406q55 -30 125 -30zM145 375
q0 -97 57 -168l333 406q-58 30 -124 30q-111 0 -188.5 -77.5t-77.5 -190.5z" />
    <glyph glyph-name="Ugrave" unicode="&#xd9;" 
d="M548 750v-511q0 -112 -76.5 -183.5t-187.5 -71.5t-187.5 71.5t-76.5 183.5v511h132v-513q0 -57 37.5 -93.5t94.5 -36.5t94.5 36.5t37.5 93.5v513h132zM224 790l-102 60v119l264 -179h-162z" />
    <glyph glyph-name="Uacute" unicode="&#xda;" 
d="M548 239v511h-132v-513q0 -57 -37.5 -93.5t-94.5 -36.5t-94.5 36.5t-37.5 93.5v513h-132v-511q0 -112 76.5 -183.5t187.5 -71.5t187.5 71.5t76.5 183.5zM456 850l-102 -60h-162l264 179v-119z" />
    <glyph glyph-name="Ucircumflex" unicode="&#xdb;" 
d="M548 750v-511q0 -112 -76.5 -183.5t-187.5 -71.5t-187.5 71.5t-76.5 183.5v511h132v-513q0 -57 37.5 -93.5t94.5 -36.5t94.5 36.5t37.5 93.5v513h132zM284 865l-148 -96v110l93 64h109l93 -64v-110z" />
    <glyph glyph-name="Udieresis" unicode="&#xdc;" 
d="M548 239v511h-132v-513q0 -57 -37.5 -93.5t-94.5 -36.5t-94.5 36.5t-37.5 93.5v513h-132v-511q0 -112 76.5 -183.5t187.5 -71.5t187.5 71.5t76.5 183.5zM415 936l32 -94l-82 -58l-81 58l31 94h100zM252 936l32 -94l-82 -58l-81 58l31 94h100z" />
    <glyph glyph-name="Yacute" unicode="&#xdd;" horiz-adv-x="541" 
d="M344 313l177 437h-141l-104 -282l-110 282h-146l319 -750h138zM451 850l-102 -60h-162l264 179v-119z" />
    <glyph glyph-name="Thorn" unicode="&#xde;" horiz-adv-x="605" 
d="M20 0v750h132v-156h194q100 0 169.5 -60t69.5 -158t-70 -158.5t-169 -60.5h-194v-157h-132zM453 376q0 45 -29.5 69t-74.5 24h-197v-187h197q44 0 74 25t30 69z" />
    <glyph glyph-name="germandbls" unicode="&#xdf;" horiz-adv-x="585" 
d="M309 0v125h20q45 0 74.5 25t29.5 68q0 44 -30 69t-74 25h-170v-312h-132v529q0 98 70 159.5t169 61.5q100 0 169.5 -60t69.5 -158q0 -78 -48 -132q108 -63 108 -182q0 -98 -69.5 -158t-169.5 -60h-17zM159 437h110q45 0 74.5 25t29.5 70q0 44 -31 69t-76 25
q-47 0 -77 -26t-30 -71v-92z" />
    <glyph glyph-name="agrave" unicode="&#xe0;" horiz-adv-x="816" 
d="M796 442v-132l-110 -53l110 -257h-139l-86 201l-418 -201h-133l319 750h138l163 -384zM407 588l-180 -420l297 143zM309 790l-102 60v119l264 -179h-162z" />
    <glyph glyph-name="aacute" unicode="&#xe1;" horiz-adv-x="816" 
d="M796 310v132l-156 -76l-163 384h-138l-319 -750h133l418 201l86 -201h139l-110 257zM227 168l180 420l117 -277zM608 850l-102 -60h-162l264 179v-119z" />
    <glyph glyph-name="acircumflex" unicode="&#xe2;" horiz-adv-x="816" 
d="M796 442v-132l-110 -53l110 -257h-139l-86 201l-418 -201h-133l319 750h138l163 -384zM407 588l-180 -420l297 143zM408 865l-148 -96v110l93 64h109l93 -64v-110z" />
    <glyph glyph-name="atilde" unicode="&#xe3;" horiz-adv-x="816" 
d="M796 310v132l-156 -76l-163 384h-138l-319 -750h133l418 201l86 -201h139l-110 257zM227 168l180 420l117 -277zM479 785q-25 0 -76 22.5t-69 22.5q-19 0 -34.5 -7t-22.5 -14.5t-17 -20.5v103q32 32 76 32q25 0 76 -22.5t69 -22.5q43 0 74 42v-103q-32 -32 -76 -32z" />
    <glyph glyph-name="adieresis" unicode="&#xe4;" horiz-adv-x="816" 
d="M796 310v132l-156 -76l-163 384h-138l-319 -750h133l418 201l86 -201h139l-110 257zM227 168l180 420l117 -277zM376 936l32 -94l-82 -58l-81 58l31 94h100zM539 936l32 -94l-82 -58l-81 58l31 94h100z" />
    <glyph glyph-name="aring" unicode="&#xe5;" horiz-adv-x="816" 
d="M796 442v-132l-110 -53l110 -257h-139l-86 201l-418 -201h-133l319 750h138l163 -384zM407 588l-180 -420l297 143zM297 884q0 46 32.5 78.5t78.5 32.5t78.5 -32.5t32.5 -78.5t-32.5 -78.5t-78.5 -32.5t-78.5 32.5t-32.5 78.5zM369 884q0 -16 11.5 -27.5t27.5 -11.5
t27.5 11.5t11.5 27.5t-11.5 27.5t-27.5 11.5t-27.5 -11.5t-11.5 -27.5z" />
    <glyph glyph-name="ae" unicode="&#xe6;" horiz-adv-x="931" 
d="M621 414l289 172v-144l-241 -141l81 -187l161 97v-145l-112 -66h-144l-99 235l-403 -235h-133l319 750h571v-125h-380zM407 588l-174 -404l275 163z" />
    <glyph glyph-name="ccedilla" unicode="&#xe7;" horiz-adv-x="745" 
d="M310 -215l28 92q25 -22 55 -22q32 0 32 26q0 34 -65 27v80q-146 18 -243 127t-97 260q0 165 114 278t277 113q97 0 178.5 -42t135.5 -117l-92 -92q-34 60 -91.5 94t-130.5 34q-113 0 -189 -77t-76 -191q0 -113 76 -190t189 -77q74 0 131 33.5t91 93.5l92 -92
q-48 -65 -118 -106t-152 -50v-21q29 -7 50 -31t21 -60q0 -53 -36 -82t-86 -29q-57 0 -94 21z" />
    <glyph glyph-name="egrave" unicode="&#xe8;" horiz-adv-x="508" 
d="M20 0v750h468v-125h-336v-187h336v-125h-336v-188h336v-125h-468zM224 790l-102 60v119l264 -179h-162z" />
    <glyph glyph-name="eacute" unicode="&#xe9;" horiz-adv-x="508" 
d="M20 750v-750h468v125h-336v188h336v125h-336v187h336v125h-468zM416 850l-102 -60h-162l264 179v-119z" />
    <glyph glyph-name="ecircumflex" unicode="&#xea;" horiz-adv-x="508" 
d="M20 0v750h468v-125h-336v-187h336v-125h-336v-188h336v-125h-468zM254 865l-148 -96v110l93 64h109l93 -64v-110z" />
    <glyph glyph-name="edieresis" unicode="&#xeb;" horiz-adv-x="508" 
d="M20 750v-750h468v125h-336v188h336v125h-336v187h336v125h-468zM385 936l32 -94l-82 -58l-81 58l31 94h100zM222 936l32 -94l-82 -58l-81 58l31 94h100z" />
    <glyph glyph-name="igrave" unicode="&#xec;" 
d="M548 0h-528v125h198v500h-198v125h528v-125h-198v-500h198v-125zM214 790l-102 60v119l264 -179h-162z" />
    <glyph glyph-name="iacute" unicode="&#xed;" 
d="M20 0h528v125h-198v500h198v125h-528v-125h198v-500h-198v-125zM468 850l-102 -60h-162l264 179v-119z" />
    <glyph glyph-name="icircumflex" unicode="&#xee;" 
d="M548 0h-528v125h198v500h-198v125h528v-125h-198v-500h198v-125zM284 865l-148 -96v110l93 64h109l93 -64v-110z" />
    <glyph glyph-name="idieresis" unicode="&#xef;" 
d="M20 0h528v125h-198v500h198v125h-528v-125h198v-500h-198v-125zM415 936l32 -94l-82 -58l-81 58l31 94h100zM252 936l32 -94l-82 -58l-81 58l31 94h100z" />
    <glyph glyph-name="eth" unicode="&#xf0;" horiz-adv-x="607" 
d="M20 312v125h40v313h132q164 0 279.5 -106t115.5 -269t-115.5 -269t-279.5 -106h-132v312h-40zM192 125h3q116 -1 188.5 68t72.5 182t-72.5 181.5t-188.5 68.5h-3v-188h164v-125h-164v-187z" />
    <glyph glyph-name="ntilde" unicode="&#xf1;" horiz-adv-x="588" 
d="M438 750v-506l-275 506h-143v-750h130v505l276 -505h142v750h-130zM365 785q-25 0 -76 22.5t-69 22.5q-19 0 -34.5 -7t-22.5 -14.5t-17 -20.5v103q32 32 76 32q25 0 76 -22.5t69 -22.5q43 0 74 42v-103q-32 -32 -76 -32z" />
    <glyph glyph-name="ograve" unicode="&#xf2;" horiz-adv-x="822" 
d="M20 375q0 165 114 278t277 113t277 -113t114 -278t-114 -278t-277 -113t-277 113t-114 278zM145 375q0 -113 77.5 -190t188.5 -77q112 0 189.5 77t77.5 190t-78 190.5t-189 77.5t-188.5 -77.5t-77.5 -190.5zM341 790l-102 60v119l264 -179h-162z" />
    <glyph glyph-name="oacute" unicode="&#xf3;" horiz-adv-x="822" 
d="M20 375q0 -165 114 -278t277 -113t277 113t114 278t-114 278t-277 113t-277 -113t-114 -278zM145 375q0 113 77.5 190.5t188.5 77.5t189 -77.5t78 -190.5t-77.5 -190t-189.5 -77q-111 0 -188.5 77t-77.5 190zM599 850l-102 -60h-162l264 179v-119z" />
    <glyph glyph-name="ocircumflex" unicode="&#xf4;" horiz-adv-x="822" 
d="M20 375q0 165 114 278t277 113t277 -113t114 -278t-114 -278t-277 -113t-277 113t-114 278zM145 375q0 -113 77.5 -190t188.5 -77q112 0 189.5 77t77.5 190t-78 190.5t-189 77.5t-188.5 -77.5t-77.5 -190.5zM413 865l-148 -96v110l93 64h109l93 -64v-110z" />
    <glyph glyph-name="otilde" unicode="&#xf5;" horiz-adv-x="822" 
d="M20 375q0 -165 114 -278t277 -113t277 113t114 278t-114 278t-277 113t-277 -113t-114 -278zM145 375q0 113 77.5 190.5t188.5 77.5t189 -77.5t78 -190.5t-77.5 -190t-189.5 -77q-111 0 -188.5 77t-77.5 190zM482 785q-25 0 -76 22.5t-69 22.5q-43 0 -74 -42v103
q32 32 76 32q25 0 76 -22.5t69 -22.5q19 0 34.5 7t22.5 14.5t17 20.5v-103q-32 -32 -76 -32z" />
    <glyph glyph-name="odieresis" unicode="&#xf6;" horiz-adv-x="822" 
d="M20 375q0 -165 114 -278t277 -113t277 113t114 278t-114 278t-277 113t-277 -113t-114 -278zM145 375q0 113 77.5 190.5t188.5 77.5t189 -77.5t78 -190.5t-77.5 -190t-189.5 -77q-111 0 -188.5 77t-77.5 190zM379 936l32 -94l-82 -58l-81 58l31 94h100zM542 936l32 -94
l-82 -58l-81 58l31 94h100z" />
    <glyph glyph-name="divide" unicode="&#xf7;" horiz-adv-x="545" 
d="M374 240l-39 -117h-126l-38 117l101 73h-252v125h505v-125h-253zM209 628h126l39 -117l-102 -73l-101 73z" />
    <glyph glyph-name="oslash" unicode="&#xf8;" horiz-adv-x="822" 
d="M20 375q0 165 114 278t277 113q109 0 204 -57l46 57h140l-102 -125q103 -111 103 -266q0 -165 -114 -278t-277 -113q-112 0 -205 56l-46 -56h-140l102 125q-102 112 -102 266zM411 108q112 0 189.5 77t77.5 190q0 96 -59 169l-333 -406q55 -30 125 -30zM145 375
q0 -97 57 -168l333 406q-58 30 -124 30q-111 0 -188.5 -77.5t-77.5 -190.5z" />
    <glyph glyph-name="ugrave" unicode="&#xf9;" 
d="M548 750v-511q0 -112 -76.5 -183.5t-187.5 -71.5t-187.5 71.5t-76.5 183.5v511h132v-513q0 -57 37.5 -93.5t94.5 -36.5t94.5 36.5t37.5 93.5v513h132zM234 790l-102 60v119l264 -179h-162z" />
    <glyph glyph-name="uacute" unicode="&#xfa;" 
d="M548 239v511h-132v-513q0 -57 -37.5 -93.5t-94.5 -36.5t-94.5 36.5t-37.5 93.5v513h-132v-511q0 -112 76.5 -183.5t187.5 -71.5t187.5 71.5t76.5 183.5zM446 850l-102 -60h-162l264 179v-119z" />
    <glyph glyph-name="ucircumflex" unicode="&#xfb;" 
d="M548 750v-511q0 -112 -76.5 -183.5t-187.5 -71.5t-187.5 71.5t-76.5 183.5v511h132v-513q0 -57 37.5 -93.5t94.5 -36.5t94.5 36.5t37.5 93.5v513h132zM284 865l-148 -96v110l93 64h109l93 -64v-110z" />
    <glyph glyph-name="udieresis" unicode="&#xfc;" 
d="M548 239v511h-132v-513q0 -57 -37.5 -93.5t-94.5 -36.5t-94.5 36.5t-37.5 93.5v513h-132v-511q0 -112 76.5 -183.5t187.5 -71.5t187.5 71.5t76.5 183.5zM415 936l32 -94l-82 -58l-81 58l31 94h100zM252 936l32 -94l-82 -58l-81 58l31 94h100z" />
    <glyph glyph-name="yacute" unicode="&#xfd;" horiz-adv-x="541" 
d="M198 313l-178 437h141l105 -283l111 283h144l-319 -750h-138zM452 850l-102 -60h-162l264 179v-119z" />
    <glyph glyph-name="thorn" unicode="&#xfe;" horiz-adv-x="575" 
d="M20 0v750h132v-156h164q100 0 169.5 -60t69.5 -158t-70 -158.5t-169 -60.5h-164v-157h-132zM423 376q0 45 -29.5 69t-74.5 24h-167v-187h167q44 0 74 25t30 69z" />
    <glyph glyph-name="ydieresis" unicode="&#xff;" horiz-adv-x="541" 
d="M198 313l-178 437h141l105 -283l111 283h144l-319 -750h-138zM401 936l32 -94l-82 -58l-81 58l31 94h100zM238 936l32 -94l-82 -58l-81 58l31 94h100z" />
    <glyph glyph-name="Amacron" unicode="&#x100;" horiz-adv-x="816" 
d="M796 0l-319 750h-138l-319 -750h133l401 242l103 -242h139zM233 184l174 404l96 -225zM260 811v95h295v-95h-295z" />
    <glyph glyph-name="amacron" unicode="&#x101;" horiz-adv-x="816" 
d="M796 310v132l-156 -76l-163 384h-138l-319 -750h133l418 201l86 -201h139l-110 257zM227 168l180 420l117 -277zM260 811v95h295v-95h-295z" />
    <glyph glyph-name="Abreve" unicode="&#x102;" horiz-adv-x="816" 
d="M477 750l319 -750h-139l-103 242l-401 -242h-133l319 750h138zM407 588l-174 -404l270 179zM407 874q23 0 38 15.5t17 40.5h98q-2 -67 -44.5 -106.5t-108.5 -39.5t-108 39.5t-44 106.5h98q2 -25 16.5 -40.5t37.5 -15.5z" />
    <glyph glyph-name="abreve" unicode="&#x103;" horiz-adv-x="816" 
d="M796 442v-132l-110 -53l110 -257h-139l-86 201l-418 -201h-133l319 750h138l163 -384zM407 588l-180 -420l297 143zM407 874q23 0 38 15.5t17 40.5h98q-2 -67 -44.5 -106.5t-108.5 -39.5t-108 39.5t-44 106.5h98q2 -25 16.5 -40.5t37.5 -15.5z" />
    <glyph glyph-name="Aogonek" unicode="&#x104;" horiz-adv-x="816" 
d="M829 -109l50 -86q-44 -36 -97 -36q-54 0 -83 28.5t-29 83.5v119h-13l-103 242l-401 -242h-133l319 750h138l319 -750h-22v-105q0 -21 20 -21q15 0 35 17zM407 588l-174 -404l270 179z" />
    <glyph glyph-name="aogonek" unicode="&#x105;" horiz-adv-x="816" 
d="M826 -109l50 -86q-44 -36 -97 -36q-54 0 -83 28.5t-29 83.5v119h-10l-86 201l-418 -201h-133l319 750h138l163 -384l156 76v-132l-110 -53l110 -257h-25v-105q0 -21 20 -21q15 0 35 17zM407 588l-180 -420l297 143z" />
    <glyph glyph-name="Cacute" unicode="&#x106;" horiz-adv-x="745" 
d="M411 108q74 0 131 33.5t91 93.5l92 -92q-54 -74 -136.5 -116.5t-177.5 -42.5q-163 0 -277 113t-114 278t114 278t277 113q97 0 178.5 -42t135.5 -117l-92 -92q-34 60 -91.5 94t-130.5 34q-113 0 -189 -77t-76 -191q0 -113 76 -190t189 -77zM604 850l-102 -60h-162
l264 179v-119z" />
    <glyph glyph-name="cacute" unicode="&#x107;" horiz-adv-x="745" 
d="M411 108q74 0 131 33.5t91 93.5l92 -92q-54 -74 -136.5 -116.5t-177.5 -42.5q-163 0 -277 113t-114 278t114 278t277 113q97 0 178.5 -42t135.5 -117l-92 -92q-34 60 -91.5 94t-130.5 34q-113 0 -189 -77t-76 -191q0 -113 76 -190t189 -77zM593 850l-102 -60h-162
l264 179v-119z" />
    <glyph glyph-name="Ccircumflex" unicode="&#x108;" horiz-adv-x="745" 
d="M411 108q74 0 131 33.5t91 93.5l92 -92q-54 -74 -136.5 -116.5t-177.5 -42.5q-163 0 -277 113t-114 278t114 278t277 113q97 0 178.5 -42t135.5 -117l-92 -92q-34 60 -91.5 94t-130.5 34q-113 0 -189 -77t-76 -191q0 -113 76 -190t189 -77zM403 865l-148 -96v110l93 64
h109l93 -64v-110z" />
    <glyph glyph-name="ccircumflex" unicode="&#x109;" horiz-adv-x="745" 
d="M411 108q74 0 131 33.5t91 93.5l92 -92q-54 -74 -136.5 -116.5t-177.5 -42.5q-163 0 -277 113t-114 278t114 278t277 113q97 0 178.5 -42t135.5 -117l-92 -92q-34 60 -91.5 94t-130.5 34q-113 0 -189 -77t-76 -191q0 -113 76 -190t189 -77zM413 865l-148 -96v110l93 64
h109l93 -64v-110z" />
    <glyph glyph-name="Cdotaccent" unicode="&#x10a;" horiz-adv-x="745" 
d="M411 108q74 0 131 33.5t91 93.5l92 -92q-54 -74 -136.5 -116.5t-177.5 -42.5q-163 0 -277 113t-114 278t114 278t277 113q97 0 178.5 -42t135.5 -117l-92 -92q-34 60 -91.5 94t-130.5 34q-113 0 -189 -77t-76 -191q0 -113 76 -190t189 -77zM462 936l32 -94l-82 -58
l-81 58l31 94h100z" />
    <glyph glyph-name="cdotaccent" unicode="&#x10b;" horiz-adv-x="745" 
d="M411 108q74 0 131 33.5t91 93.5l92 -92q-54 -74 -136.5 -116.5t-177.5 -42.5q-163 0 -277 113t-114 278t114 278t277 113q97 0 178.5 -42t135.5 -117l-92 -92q-34 60 -91.5 94t-130.5 34q-113 0 -189 -77t-76 -191q0 -113 76 -190t189 -77zM462 936l32 -94l-82 -58
l-81 58l31 94h100z" />
    <glyph glyph-name="Ccaron" unicode="&#x10c;" horiz-adv-x="745" 
d="M411 108q74 0 131 33.5t91 93.5l92 -92q-54 -74 -136.5 -116.5t-177.5 -42.5q-163 0 -277 113t-114 278t114 278t277 113q97 0 178.5 -42t135.5 -117l-92 -92q-34 60 -91.5 94t-130.5 34q-113 0 -189 -77t-76 -191q0 -113 76 -190t189 -77zM265 964l148 -96l147 96v-110
l-93 -64h-109l-93 64v110z" />
    <glyph glyph-name="ccaron" unicode="&#x10d;" horiz-adv-x="745" 
d="M411 108q74 0 131 33.5t91 93.5l92 -92q-54 -74 -136.5 -116.5t-177.5 -42.5q-163 0 -277 113t-114 278t114 278t277 113q97 0 178.5 -42t135.5 -117l-92 -92q-34 60 -91.5 94t-130.5 34q-113 0 -189 -77t-76 -191q0 -113 76 -190t189 -77zM265 964l148 -96l147 96v-110
l-93 -64h-109l-93 64v110z" />
    <glyph glyph-name="Dcaron" unicode="&#x10e;" horiz-adv-x="664" 
d="M20 0v750h232q164 0 278 -106.5t114 -268.5t-114 -268.5t-278 -106.5h-232zM152 125h100q115 -1 187.5 68t72.5 182t-72 181.5t-188 68.5h-100v-500zM104 964l148 -96l147 96v-110l-93 -64h-109l-93 64v110z" />
    <glyph glyph-name="dcaron" unicode="&#x10f;" horiz-adv-x="597" 
d="M20 0v750h172q164 0 279.5 -106t115.5 -269t-115.5 -269t-279.5 -106h-172zM152 125h43q116 -1 188.5 68t72.5 182t-72.5 181.5t-188.5 68.5h-43v-500zM70 964l148 -96l147 96v-110l-93 -64h-109l-93 64v110z" />
    <glyph glyph-name="Dcroat" unicode="&#x110;" horiz-adv-x="664" 
d="M20 312v125h40v313h192q164 0 278 -106.5t114 -268.5t-114 -268.5t-278 -106.5h-192v312h-40zM192 125h60q115 -1 187.5 68t72.5 182t-72 181.5t-188 68.5h-60v-188h164v-125h-164v-187z" />
    <glyph glyph-name="dcroat" unicode="&#x111;" horiz-adv-x="597" 
d="M-30 327v95h50v328h172q164 0 279.5 -106t115.5 -269t-115.5 -269t-279.5 -106h-172v327h-50zM152 125h43q116 -1 188.5 68t72.5 182t-72.5 181.5t-188.5 68.5h-43v-203h133v-95h-133v-202z" />
    <glyph glyph-name="Emacron" unicode="&#x112;" horiz-adv-x="508" 
d="M20 750v-750h468v125h-336v188h336v125h-336v187h336v125h-468zM106 811v95h295v-95h-295z" />
    <glyph glyph-name="emacron" unicode="&#x113;" horiz-adv-x="508" 
d="M20 750v-750h468v125h-336v188h336v125h-336v187h336v125h-468zM106 811v95h295v-95h-295z" />
    <glyph glyph-name="Ebreve" unicode="&#x114;" horiz-adv-x="508" 
d="M20 0v750h468v-125h-336v-187h336v-125h-336v-188h336v-125h-468zM253 874q23 0 38 15.5t17 40.5h98q-2 -67 -44.5 -106.5t-108.5 -39.5t-108 39.5t-44 106.5h98q2 -25 16.5 -40.5t37.5 -15.5z" />
    <glyph glyph-name="ebreve" unicode="&#x115;" horiz-adv-x="508" 
d="M20 0v750h468v-125h-336v-187h336v-125h-336v-188h336v-125h-468zM263 874q23 0 38 15.5t17 40.5h98q-2 -67 -44.5 -106.5t-108.5 -39.5t-108 39.5t-44 106.5h98q2 -25 16.5 -40.5t37.5 -15.5z" />
    <glyph glyph-name="Edotaccent" unicode="&#x116;" horiz-adv-x="508" 
d="M20 750v-750h468v125h-336v188h336v125h-336v187h336v125h-468zM303 936l32 -94l-82 -58l-81 58l31 94h100z" />
    <glyph glyph-name="edotaccent" unicode="&#x117;" horiz-adv-x="508" 
d="M20 750v-750h468v125h-336v188h336v125h-336v187h336v125h-468zM303 936l32 -94l-82 -58l-81 58l31 94h100z" />
    <glyph glyph-name="Eogonek" unicode="&#x118;" horiz-adv-x="508" 
d="M438 -109l50 -86q-44 -36 -97 -36q-54 0 -83 28.5t-29 83.5v119h-259v750h468v-125h-336v-187h336v-125h-336v-188h336v-125h-105v-105q0 -21 20 -21q15 0 35 17z" />
    <glyph glyph-name="eogonek" unicode="&#x119;" horiz-adv-x="508" 
d="M448 -109l50 -86q-44 -36 -97 -36q-54 0 -83 28.5t-29 83.5v119h-269v750h468v-125h-336v-187h336v-125h-336v-188h336v-125h-95v-105q0 -21 20 -21q15 0 35 17z" />
    <glyph glyph-name="Ecaron" unicode="&#x11a;" horiz-adv-x="508" 
d="M20 0v750h468v-125h-336v-187h336v-125h-336v-188h336v-125h-468zM106 964l148 -96l147 96v-110l-93 -64h-109l-93 64v110z" />
    <glyph glyph-name="ecaron" unicode="&#x11b;" horiz-adv-x="508" 
d="M20 0v750h468v-125h-336v-187h336v-125h-336v-188h336v-125h-468zM106 964l148 -96l147 96v-110l-93 -64h-109l-93 64v110z" />
    <glyph glyph-name="Gcircumflex" unicode="&#x11c;" horiz-adv-x="783" 
d="M411 -16q-163 0 -277 113t-114 278t114 278t277 113q97 0 178.5 -42t135.5 -117l-92 -92q-34 60 -91.5 94t-130.5 34q-113 0 -189 -77t-76 -191q0 -113 76 -190t189 -77q75 0 135 34t88 93v17h-223v123h352v-375h-131v57q-102 -73 -221 -73zM392 865l-148 -96v110l93 64
h109l93 -64v-110z" />
    <glyph glyph-name="gcircumflex" unicode="&#x11d;" horiz-adv-x="773" 
d="M401 -16q-163 0 -277 113t-114 278t114 278t277 113q97 0 178.5 -42t135.5 -117l-92 -92q-34 60 -91.5 94t-130.5 34q-113 0 -189 -77t-76 -191h617v-375h-131v57q-102 -73 -221 -73zM401 108q75 0 135.5 34t88.5 93v17h-461q33 -66 95.5 -105t141.5 -39zM390 865
l-148 -96v110l93 64h109l93 -64v-110z" />
    <glyph glyph-name="Gbreve" unicode="&#x11e;" horiz-adv-x="783" 
d="M411 -16q-163 0 -277 113t-114 278t114 278t277 113q97 0 178.5 -42t135.5 -117l-92 -92q-34 60 -91.5 94t-130.5 34q-113 0 -189 -77t-76 -191q0 -113 76 -190t189 -77q75 0 135 34t88 93v17h-223v123h352v-375h-131v57q-102 -73 -221 -73zM391 874q23 0 38 15.5
t17 40.5h98q-2 -67 -44.5 -106.5t-108.5 -39.5t-108 39.5t-44 106.5h98q2 -25 16.5 -40.5t37.5 -15.5z" />
    <glyph glyph-name="gbreve" unicode="&#x11f;" horiz-adv-x="773" 
d="M401 -16q-163 0 -277 113t-114 278t114 278t277 113q97 0 178.5 -42t135.5 -117l-92 -92q-34 60 -91.5 94t-130.5 34q-113 0 -189 -77t-76 -191h617v-375h-131v57q-102 -73 -221 -73zM401 108q75 0 135.5 34t88.5 93v17h-461q33 -66 95.5 -105t141.5 -39zM406 874
q23 0 38 15.5t17 40.5h98q-2 -67 -44.5 -106.5t-108.5 -39.5t-108 39.5t-44 106.5h98q2 -25 16.5 -40.5t37.5 -15.5z" />
    <glyph glyph-name="Gdotaccent" unicode="&#x120;" horiz-adv-x="783" 
d="M411 -16q119 0 221 73v-57h131v375h-352v-123h223v-17q-28 -59 -88 -93t-135 -34q-113 0 -189 77t-76 190q0 114 76 191t189 77q73 0 130.5 -34t91.5 -94l92 92q-54 75 -135.5 117t-178.5 42q-163 0 -277 -113t-114 -278t114 -278t277 -113zM441 936l32 -94l-82 -58
l-81 58l31 94h100z" />
    <glyph glyph-name="gdotaccent" unicode="&#x121;" horiz-adv-x="773" 
d="M401 -16q119 0 221 73v-57h131v375h-617q0 114 76 191t189 77q73 0 130.5 -34t91.5 -94l92 92q-54 75 -135.5 117t-178.5 42q-163 0 -277 -113t-114 -278t114 -278t277 -113zM401 108q-79 0 -141.5 39t-95.5 105h461v-17q-28 -59 -88.5 -93t-135.5 -34zM446 936l32 -94
l-82 -58l-81 58l31 94h100z" />
    <glyph glyph-name="Gcommaaccent" unicode="&#x122;" horiz-adv-x="783" 
d="M411 -16q-163 0 -277 113t-114 278t114 278t277 113q97 0 178.5 -42t135.5 -117l-92 -92q-34 60 -91.5 94t-130.5 34q-113 0 -189 -77t-76 -191q0 -113 76 -190t189 -77q75 0 135 34t88 93v17h-223v123h352v-375h-131v57q-102 -73 -221 -73zM397 -199h-46l-32 94l83 60
l82 -60l-26 -94q-12 -46 -36.5 -66t-70.5 -20v48q44 0 46 38z" />
    <glyph glyph-name="gcommaaccent" unicode="&#x123;" horiz-adv-x="773" 
d="M401 -16q-163 0 -277 113t-114 278t114 278t277 113q97 0 178.5 -42t135.5 -117l-92 -92q-34 60 -91.5 94t-130.5 34q-113 0 -189 -77t-76 -191h617v-375h-131v57q-102 -73 -221 -73zM401 108q75 0 135.5 34t88.5 93v17h-461q33 -66 95.5 -105t141.5 -39zM382 -199h-46
l-32 94l83 60l82 -60l-26 -94q-12 -46 -36.5 -66t-70.5 -20v48q44 0 46 38z" />
    <glyph glyph-name="Hcircumflex" unicode="&#x124;" 
d="M416 438v312h132v-750h-132v313h-264v-313h-132v750h132v-312h264zM284 865l-148 -96v110l93 64h109l93 -64v-110z" />
    <glyph glyph-name="hcircumflex" unicode="&#x125;" 
d="M416 438v312h132v-750h-132v313h-264v-313h-132v750h132v-312h264zM284 865l-148 -96v110l93 64h109l93 -64v-110z" />
    <glyph glyph-name="Hbar" unicode="&#x126;" 
d="M-44 541v95h64v114h132v-114h264v114h132v-114h63v-95h-63v-541h-132v313h-264v-313h-132v541h-64zM152 438h264v103h-264v-103z" />
    <glyph glyph-name="hbar" unicode="&#x127;" 
d="M-44 541v95h64v114h132v-114h264v114h132v-114h63v-95h-63v-541h-132v313h-264v-313h-132v541h-64zM152 438h264v103h-264v-103z" />
    <glyph glyph-name="Itilde" unicode="&#x128;" horiz-adv-x="172" 
d="M20 750v-750h132v750h-132zM158 785q-25 0 -76 22.5t-69 22.5q-19 0 -34.5 -7t-22.5 -14.5t-17 -20.5v103q32 32 76 32q25 0 76 -22.5t69 -22.5q19 0 34.5 7t22.5 14.5t17 20.5v-103q-32 -32 -76 -32z" />
    <glyph glyph-name="itilde" unicode="&#x129;" 
d="M20 0h528v125h-198v500h198v125h-528v-125h198v-500h-198v-125zM355 785q-25 0 -76 22.5t-69 22.5q-19 0 -34.5 -7t-22.5 -14.5t-17 -20.5v103q32 32 76 32q25 0 76 -22.5t69 -22.5q43 0 74 42v-103q-32 -32 -76 -32z" />
    <glyph glyph-name="Imacron" unicode="&#x12a;" horiz-adv-x="172" 
d="M20 750v-750h132v750h-132zM-61 811v95h295v-95h-295z" />
    <glyph glyph-name="imacron" unicode="&#x12b;" 
d="M20 0h528v125h-198v500h198v125h-528v-125h198v-500h-198v-125zM136 811v95h295v-95h-295z" />
    <glyph glyph-name="Ibreve" unicode="&#x12c;" horiz-adv-x="172" 
d="M20 0v750h132v-750h-132zM86 874q23 0 38 15.5t17 40.5h98q-2 -67 -44.5 -106.5t-108.5 -39.5t-108 39.5t-44 106.5h98q2 -25 16.5 -40.5t37.5 -15.5z" />
    <glyph glyph-name="ibreve" unicode="&#x12d;" 
d="M548 0h-528v125h198v500h-198v125h528v-125h-198v-500h198v-125zM283 874q23 0 38 15.5t17 40.5h98q-2 -67 -44.5 -106.5t-108.5 -39.5t-108 39.5t-44 106.5h98q2 -25 16.5 -40.5t37.5 -15.5z" />
    <glyph glyph-name="Iogonek" unicode="&#x12e;" horiz-adv-x="172" 
d="M193 -109l50 -86q-44 -36 -97 -36q-54 0 -83 28.5t-29 83.5v119h-14v750h132v-750h-14v-105q0 -21 20 -21q15 0 35 17z" />
    <glyph glyph-name="iogonek" unicode="&#x12f;" 
d="M390 -109l50 -86q-44 -36 -97 -36q-54 0 -83 28.5t-29 83.5v119h-211v125h198v500h-198v125h528v-125h-198v-500h198v-125h-213v-105q0 -21 20 -21q15 0 35 17z" />
    <glyph glyph-name="Idotaccent" unicode="&#x130;" horiz-adv-x="172" 
d="M20 750v-750h132v750h-132zM136 936l32 -94l-82 -58l-81 58l31 94h100z" />
    <glyph glyph-name="dotlessi" unicode="&#x131;" 
d="M548 0h-528v125h198v500h-198v125h528v-125h-198v-500h198v-125z" />
    <glyph glyph-name="I_J" unicode="&#x132;" horiz-adv-x="618" 
d="M361 313h-341v125h109v188h-109v125h342v-125h-101v-188h100v-125zM261 217v61h-132v-61q0 -97 70 -164.5t165 -67.5t164.5 67.5t69.5 164.5v534l-132 -1v-533q0 -45 -29 -75t-73 -30q-45 0 -74 30t-29 75z" />
    <glyph glyph-name="Jcircumflex" unicode="&#x134;" horiz-adv-x="304" 
d="M284 750v-498q0 -114 -73 -185t-191 -67v125q61 -4 96.5 28.5t35.5 92.5v504h132zM138 865l-148 -96v110l93 64h109l93 -64v-110z" />
    <glyph glyph-name="jcircumflex" unicode="&#x135;" horiz-adv-x="509" 
d="M152 315v-98q0 -46 27 -75.5t75 -29.5q47 0 75 29.5t28 75.5v533h132v-533q0 -101 -66.5 -166.5t-168.5 -65.5t-168 65.5t-66 166.5v98h132zM286 865l-148 -96v110l93 64h109l93 -64v-110z" />
    <glyph glyph-name="Kcommaaccent" unicode="&#x136;" horiz-adv-x="674" 
d="M152 476l502 274v-147l-433 -228l433 -228v-147l-502 274v-274h-132v750h132v-274zM332 -199h-46l-32 94l83 60l82 -60l-26 -94q-12 -46 -36.5 -66t-70.5 -20v48q44 0 46 38z" />
    <glyph glyph-name="kcommaaccent" unicode="&#x137;" horiz-adv-x="691" 
d="M152 474l502 276v-147l-432 -228l449 -375h-198l-321 269v-269h-132v750h132v-276zM301 -199h-46l-32 94l83 60l82 -60l-26 -94q-12 -46 -36.5 -66t-70.5 -20v48q44 0 46 38z" />
    <glyph glyph-name="Lacute" unicode="&#x139;" horiz-adv-x="628" 
d="M20 0h588v125h-451l273 625h-145l-265 -625v-125zM562 850l-102 -60h-162l264 179v-119z" />
    <glyph glyph-name="lacute" unicode="&#x13a;" horiz-adv-x="520" 
d="M20 0v750h132v-600l348 220v-148l-348 -222h-132zM283 850l-102 -60h-162l264 179v-119z" />
    <glyph glyph-name="Lcommaaccent" unicode="&#x13b;" horiz-adv-x="628" 
d="M608 0h-588v125l265 625h145l-273 -625h451v-125zM329 -199h-46l-32 94l83 60l82 -60l-26 -94q-12 -46 -36.5 -66t-70.5 -20v48q44 0 46 38z" />
    <glyph glyph-name="lcommaaccent" unicode="&#x13c;" horiz-adv-x="520" 
d="M20 0v750h132v-600l348 220v-148l-348 -222h-132zM255 -199h-46l-32 94l83 60l82 -60l-26 -94q-12 -46 -36.5 -66t-70.5 -20v48q44 0 46 38z" />
    <glyph glyph-name="Lcaron" unicode="&#x13d;" horiz-adv-x="643" 
d="M20 0h588v125h-451l273 625h-145l-265 -625v-125zM543 595h-49l-39 109l92 66l91 -66l-28 -96q-20 -70 -43 -93.5t-77 -25.5v53q49 0 53 53z" />
    <glyph glyph-name="lcaron" unicode="&#x13e;" horiz-adv-x="520" 
d="M20 0v750h132v-600l348 220v-148l-348 -222h-132zM305 645h-49l-39 109l92 66l91 -66l-28 -96q-20 -70 -43 -93.5t-77 -25.5v53q49 0 53 53z" />
    <glyph glyph-name="Ldot" unicode="&#x13f;" horiz-adv-x="628" 
d="M608 0h-588v125l265 625h145l-273 -625h451v-125zM545 377l-39 -117h-126l-38 117l101 73z" />
    <glyph glyph-name="ldot" unicode="&#x140;" horiz-adv-x="520" 
d="M20 0v750h132v-600l348 220v-148l-348 -222h-132zM372 360l39 117l-102 73l-101 -73l38 -117h126z" />
    <glyph glyph-name="Lslash" unicode="&#x141;" horiz-adv-x="628" 
d="M608 0h-588v125l119 281l-84 32v129l131 -50l99 233h145l-122 -279l177 -67v-129l-225 85l-103 -235h451v-125z" />
    <glyph glyph-name="lslash" unicode="&#x142;" horiz-adv-x="476" 
d="M20 439v129l40 -16v198h132v-249l103 -39v-129l-103 39v-226l264 166v-144l-264 -168h-132v423z" />
    <glyph glyph-name="Nacute" unicode="&#x143;" horiz-adv-x="588" 
d="M438 750v-506l-275 506h-143v-750h130v505l276 -505h142v750h-130zM466 850l-102 -60h-162l264 179v-119z" />
    <glyph glyph-name="nacute" unicode="&#x144;" horiz-adv-x="588" 
d="M438 750v-506l-275 506h-143v-750h130v505l276 -505h142v750h-130zM456 850l-102 -60h-162l264 179v-119z" />
    <glyph glyph-name="Ncommaaccent" unicode="&#x145;" horiz-adv-x="588" 
d="M438 244v506h130v-750h-142l-276 505v-505h-130v750h143zM299 -199h-46l-32 94l83 60l82 -60l-26 -94q-12 -46 -36.5 -66t-70.5 -20v48q44 0 46 38z" />
    <glyph glyph-name="ncommaaccent" unicode="&#x146;" horiz-adv-x="588" 
d="M438 244v506h130v-750h-142l-276 505v-505h-130v750h143zM289 -199h-46l-32 94l83 60l82 -60l-26 -94q-12 -46 -36.5 -66t-70.5 -20v48q44 0 46 38z" />
    <glyph glyph-name="Ncaron" unicode="&#x147;" horiz-adv-x="588" 
d="M438 244v506h130v-750h-142l-276 505v-505h-130v750h143zM146 964l148 -96l147 96v-110l-93 -64h-109l-93 64v110z" />
    <glyph glyph-name="ncaron" unicode="&#x148;" horiz-adv-x="588" 
d="M438 244v506h130v-750h-142l-276 505v-505h-130v750h143zM146 964l148 -96l147 96v-110l-93 -64h-109l-93 64v110z" />
    <glyph glyph-name="Omacron" unicode="&#x14c;" horiz-adv-x="822" 
d="M20 375q0 -165 114 -278t277 -113t277 113t114 278t-114 278t-277 113t-277 -113t-114 -278zM145 375q0 113 77.5 190.5t188.5 77.5t189 -77.5t78 -190.5t-77.5 -190t-189.5 -77q-111 0 -188.5 77t-77.5 190zM263 811v95h295v-95h-295z" />
    <glyph glyph-name="omacron" unicode="&#x14d;" horiz-adv-x="822" 
d="M20 375q0 -165 114 -278t277 -113t277 113t114 278t-114 278t-277 113t-277 -113t-114 -278zM145 375q0 113 77.5 190.5t188.5 77.5t189 -77.5t78 -190.5t-77.5 -190t-189.5 -77q-111 0 -188.5 77t-77.5 190zM263 811v95h295v-95h-295z" />
    <glyph glyph-name="Obreve" unicode="&#x14e;" horiz-adv-x="822" 
d="M20 375q0 165 114 278t277 113t277 -113t114 -278t-114 -278t-277 -113t-277 113t-114 278zM145 375q0 -113 77.5 -190t188.5 -77q112 0 189.5 77t77.5 190t-78 190.5t-189 77.5t-188.5 -77.5t-77.5 -190.5zM410 874q23 0 38 15.5t17 40.5h98q-2 -67 -44.5 -106.5
t-108.5 -39.5t-108 39.5t-44 106.5h98q2 -25 16.5 -40.5t37.5 -15.5z" />
    <glyph glyph-name="obreve" unicode="&#x14f;" horiz-adv-x="822" 
d="M20 375q0 165 114 278t277 113t277 -113t114 -278t-114 -278t-277 -113t-277 113t-114 278zM145 375q0 -113 77.5 -190t188.5 -77q112 0 189.5 77t77.5 190t-78 190.5t-189 77.5t-188.5 -77.5t-77.5 -190.5zM411 874q23 0 38 15.5t17 40.5h98q-2 -67 -44.5 -106.5
t-108.5 -39.5t-108 39.5t-44 106.5h98q2 -25 16.5 -40.5t37.5 -15.5z" />
    <glyph glyph-name="Ohungarumlaut" unicode="&#x150;" horiz-adv-x="822" 
d="M20 375q0 -165 114 -278t277 -113t277 113t114 278t-114 278t-277 113t-277 -113t-114 -278zM145 375q0 113 77.5 190.5t188.5 77.5t189 -77.5t78 -190.5t-77.5 -190t-189.5 -77q-111 0 -188.5 77t-77.5 190zM462 849l-80 -59h-136l216 173v-114zM636 849l-84 -59h-136
l220 173v-114z" />
    <glyph glyph-name="ohungarumlaut" unicode="&#x151;" horiz-adv-x="822" 
d="M20 375q0 -165 114 -278t277 -113t277 113t114 278t-114 278t-277 113t-277 -113t-114 -278zM145 375q0 113 77.5 190.5t188.5 77.5t189 -77.5t78 -190.5t-77.5 -190t-189.5 -77q-111 0 -188.5 77t-77.5 190zM472 849l-80 -59h-136l216 173v-114zM646 849l-84 -59h-136
l220 173v-114z" />
    <glyph glyph-name="OE" unicode="&#x152;" horiz-adv-x="1040" 
d="M20 375q0 165 114 278t277 113q54 0 112 -16h497v-125h-307q68 -82 84 -187h223v-125h-223q-16 -106 -84 -188h307v-125h-497q-58 -16 -112 -16q-163 0 -277 113t-114 278zM145 375q0 -113 77.5 -190t188.5 -77q112 0 189.5 77t77.5 190t-78 190.5t-189 77.5
t-188.5 -77.5t-77.5 -190.5z" />
    <glyph glyph-name="oe" unicode="&#x153;" horiz-adv-x="1040" 
d="M20 375q0 165 114 278t277 113q54 0 112 -16h497v-125h-307q68 -82 84 -187h223v-125h-223q-16 -106 -84 -188h307v-125h-497q-58 -16 -112 -16q-163 0 -277 113t-114 278zM145 375q0 -113 77.5 -190t188.5 -77q112 0 189.5 77t77.5 190t-78 190.5t-189 77.5
t-188.5 -77.5t-77.5 -190.5z" />
    <glyph glyph-name="Racute" unicode="&#x154;" horiz-adv-x="585" 
d="M565 -1l-413 185v-184h-132v750h306q100 0 169.5 -59t69.5 -157t-69.5 -157.5t-169.5 -59.5h-162l401 -173v-145zM433 534q0 44 -29.5 67.5t-74.5 23.5h-177v-183h177q45 0 74.5 24t29.5 68zM414 850l-102 -60h-162l264 179v-119z" />
    <glyph glyph-name="racute" unicode="&#x155;" horiz-adv-x="624" 
d="M326 313h-174v-313h-132v750h306q100 0 169.5 -60t69.5 -158q0 -97 -79 -162q76 -60 89 -186q9 -82 29 -184h-137q-15 86 -26 181q-14 132 -115 132zM433 532q0 45 -29.5 69t-74.5 24h-177v-187h177q45 0 74.5 24.5t29.5 69.5zM444 850l-102 -60h-162l264 179v-119z" />
    <glyph glyph-name="Rcommaaccent" unicode="&#x156;" horiz-adv-x="585" 
d="M565 -1l-413 185v-184h-132v750h306q100 0 169.5 -59t69.5 -157t-69.5 -157.5t-169.5 -59.5h-162l401 -173v-145zM433 534q0 44 -29.5 67.5t-74.5 23.5h-177v-183h177q45 0 74.5 24t29.5 68zM298 -199h-46l-32 94l83 60l82 -60l-26 -94q-12 -46 -36.5 -66t-70.5 -20v48
q44 0 46 38z" />
    <glyph glyph-name="rcommaaccent" unicode="&#x157;" horiz-adv-x="624" 
d="M326 313h-174v-313h-132v750h306q100 0 169.5 -60t69.5 -158q0 -97 -79 -162q76 -60 89 -186q9 -82 29 -184h-137q-15 86 -26 181q-14 132 -115 132zM433 532q0 45 -29.5 69t-74.5 24h-177v-187h177q45 0 74.5 24.5t29.5 69.5zM307 -199h-46l-32 94l83 60l82 -60l-26 -94
q-12 -46 -36.5 -66t-70.5 -20v48q44 0 46 38z" />
    <glyph glyph-name="Rcaron" unicode="&#x158;" horiz-adv-x="585" 
d="M565 -1l-413 185v-184h-132v750h306q100 0 169.5 -59t69.5 -157t-69.5 -157.5t-169.5 -59.5h-162l401 -173v-145zM433 534q0 44 -29.5 67.5t-74.5 23.5h-177v-183h177q45 0 74.5 24t29.5 68zM105 964l148 -96l147 96v-110l-93 -64h-109l-93 64v110z" />
    <glyph glyph-name="rcaron" unicode="&#x159;" horiz-adv-x="624" 
d="M326 313h-174v-313h-132v750h306q100 0 169.5 -60t69.5 -158q0 -97 -79 -162q76 -60 89 -186q9 -82 29 -184h-137q-15 86 -26 181q-14 132 -115 132zM433 532q0 45 -29.5 69t-74.5 24h-177v-187h177q45 0 74.5 24.5t29.5 69.5zM114 964l148 -96l147 96v-110l-93 -64h-109
l-93 64v110z" />
    <glyph glyph-name="Sacute" unicode="&#x15a;" horiz-adv-x="514" 
d="M257 639q-41 0 -68.5 -25t-27.5 -67q0 -19 10.5 -35.5t30 -30t42 -25.5t50.5 -26q7 -3 11 -5q34 -16 54.5 -27.5t49 -32.5t45 -42t28.5 -52t12 -67q0 -97 -66 -158t-170 -61q-71 0 -140 47.5t-98 110.5l95 92q23 -49 62 -86t83 -37q43 0 71.5 23.5t28.5 65.5q0 31 -28 53
t-86 51q-9 4 -13 6q-29 15 -40 20.5t-38.5 21.5t-40 27t-32.5 30.5t-29 38t-16.5 44t-7.5 53.5q0 94 64.5 156.5t165.5 62.5q71 0 137.5 -47t95.5 -110l-96 -92q-62 123 -139 123zM439 850l-102 -60h-162l264 179v-119z" />
    <glyph glyph-name="sacute" unicode="&#x15b;" horiz-adv-x="514" 
d="M257 639q-41 0 -68.5 -25t-27.5 -67q0 -19 10.5 -35.5t30 -30t42 -25.5t50.5 -26q7 -3 11 -5q34 -16 54.5 -27.5t49 -32.5t45 -42t28.5 -52t12 -67q0 -97 -66 -158t-170 -61q-71 0 -140 47.5t-98 110.5l95 92q23 -49 62 -86t83 -37q43 0 71.5 23.5t28.5 65.5q0 31 -28 53
t-86 51q-9 4 -13 6q-29 15 -40 20.5t-38.5 21.5t-40 27t-32.5 30.5t-29 38t-16.5 44t-7.5 53.5q0 94 64.5 156.5t165.5 62.5q71 0 137.5 -47t95.5 -110l-96 -92q-62 123 -139 123zM449 850l-102 -60h-162l264 179v-119z" />
    <glyph glyph-name="Scircumflex" unicode="&#x15c;" horiz-adv-x="514" 
d="M257 639q-41 0 -68.5 -25t-27.5 -67q0 -19 10.5 -35.5t30 -30t42 -25.5t50.5 -26q7 -3 11 -5q34 -16 54.5 -27.5t49 -32.5t45 -42t28.5 -52t12 -67q0 -97 -66 -158t-170 -61q-71 0 -140 47.5t-98 110.5l95 92q23 -49 62 -86t83 -37q43 0 71.5 23.5t28.5 65.5q0 31 -28 53
t-86 51q-9 4 -13 6q-29 15 -40 20.5t-38.5 21.5t-40 27t-32.5 30.5t-29 38t-16.5 44t-7.5 53.5q0 94 64.5 156.5t165.5 62.5q71 0 137.5 -47t95.5 -110l-96 -92q-62 123 -139 123zM257 865l-148 -96v110l93 64h109l93 -64v-110z" />
    <glyph glyph-name="scircumflex" unicode="&#x15d;" horiz-adv-x="514" 
d="M257 639q-41 0 -68.5 -25t-27.5 -67q0 -19 10.5 -35.5t30 -30t42 -25.5t50.5 -26q7 -3 11 -5q34 -16 54.5 -27.5t49 -32.5t45 -42t28.5 -52t12 -67q0 -97 -66 -158t-170 -61q-71 0 -140 47.5t-98 110.5l95 92q23 -49 62 -86t83 -37q43 0 71.5 23.5t28.5 65.5q0 31 -28 53
t-86 51q-9 4 -13 6q-29 15 -40 20.5t-38.5 21.5t-40 27t-32.5 30.5t-29 38t-16.5 44t-7.5 53.5q0 94 64.5 156.5t165.5 62.5q71 0 137.5 -47t95.5 -110l-96 -92q-62 123 -139 123zM257 865l-148 -96v110l93 64h109l93 -64v-110z" />
    <glyph glyph-name="Scedilla" unicode="&#x15e;" horiz-adv-x="514" 
d="M166 -215l28 92q25 -22 55 -22q32 0 32 26q0 34 -65 27v82q-62 13 -117 56.5t-79 96.5l95 92q23 -49 62 -86t83 -37q43 0 71.5 23.5t28.5 65.5q0 31 -28 53t-86 51q-9 4 -13 6q-29 15 -40 20.5t-38.5 21.5t-40 27t-32.5 30.5t-29 38t-16.5 44t-7.5 53.5q0 94 64.5 156.5
t165.5 62.5q71 0 137.5 -47t95.5 -110l-96 -92q-62 123 -139 123q-41 0 -68.5 -25t-27.5 -67q0 -19 10.5 -35.5t30 -30t42 -25.5t50.5 -26q7 -3 11 -5q34 -16 54.5 -27.5t49 -32.5t45 -42t28.5 -52t12 -67q0 -84 -50 -142t-133 -72v-24q29 -7 50 -31t21 -60q0 -53 -36 -82
t-86 -29q-57 0 -94 21z" />
    <glyph glyph-name="scedilla" unicode="&#x15f;" horiz-adv-x="514" 
d="M159 -215l28 92q25 -22 55 -22q32 0 32 26q0 34 -65 27v83q-60 14 -112.5 57t-76.5 95l95 92q23 -49 62 -86t83 -37q43 0 71.5 23.5t28.5 65.5q0 31 -28 53t-86 51q-9 4 -13 6q-29 15 -40 20.5t-38.5 21.5t-40 27t-32.5 30.5t-29 38t-16.5 44t-7.5 53.5q0 94 64.5 156.5
t165.5 62.5q71 0 137.5 -47t95.5 -110l-96 -92q-62 123 -139 123q-41 0 -68.5 -25t-27.5 -67q0 -19 10.5 -35.5t30 -30t42 -25.5t50.5 -26q7 -3 11 -5q34 -16 54.5 -27.5t49 -32.5t45 -42t28.5 -52t12 -67q0 -86 -52 -144t-138 -71v-23q29 -7 50 -31t21 -60q0 -53 -36 -82
t-86 -29q-57 0 -94 21z" />
    <glyph glyph-name="Scaron" unicode="&#x160;" horiz-adv-x="514" 
d="M257 639q-41 0 -68.5 -25t-27.5 -67q0 -19 10.5 -35.5t30 -30t42 -25.5t50.5 -26q7 -3 11 -5q34 -16 54.5 -27.5t49 -32.5t45 -42t28.5 -52t12 -67q0 -97 -66 -158t-170 -61q-71 0 -140 47.5t-98 110.5l95 92q23 -49 62 -86t83 -37q43 0 71.5 23.5t28.5 65.5q0 31 -28 53
t-86 51q-9 4 -13 6q-29 15 -40 20.5t-38.5 21.5t-40 27t-32.5 30.5t-29 38t-16.5 44t-7.5 53.5q0 94 64.5 156.5t165.5 62.5q71 0 137.5 -47t95.5 -110l-96 -92q-62 123 -139 123zM105 964l148 -96l147 96v-110l-93 -64h-109l-93 64v110z" />
    <glyph glyph-name="scaron" unicode="&#x161;" horiz-adv-x="514" 
d="M257 639q-41 0 -68.5 -25t-27.5 -67q0 -19 10.5 -35.5t30 -30t42 -25.5t50.5 -26q7 -3 11 -5q34 -16 54.5 -27.5t49 -32.5t45 -42t28.5 -52t12 -67q0 -97 -66 -158t-170 -61q-71 0 -140 47.5t-98 110.5l95 92q23 -49 62 -86t83 -37q43 0 71.5 23.5t28.5 65.5q0 31 -28 53
t-86 51q-9 4 -13 6q-29 15 -40 20.5t-38.5 21.5t-40 27t-32.5 30.5t-29 38t-16.5 44t-7.5 53.5q0 94 64.5 156.5t165.5 62.5q71 0 137.5 -47t95.5 -110l-96 -92q-62 123 -139 123zM109 964l148 -96l147 96v-110l-93 -64h-109l-93 64v110z" />
    <glyph glyph-name="uni0162" unicode="&#x162;" 
d="M188 -215l28 92q25 -22 55 -22q32 0 32 26q0 34 -65 27v92h-20v625h-198v125h528v-125h-198v-625h-17v-34q29 -7 50 -31t21 -60q0 -53 -36 -82t-86 -29q-57 0 -94 21z" />
    <glyph glyph-name="uni0163" unicode="&#x163;" 
d="M188 -215l28 92q25 -22 55 -22q32 0 32 26q0 34 -65 27v92h-20v625h-198v125h528v-125h-198v-625h-17v-34q29 -7 50 -31t21 -60q0 -53 -36 -82t-86 -29q-57 0 -94 21z" />
    <glyph glyph-name="Tcaron" unicode="&#x164;" 
d="M20 625v125h528v-125h-198v-625h-132v625h-198zM138 964l148 -96l147 96v-110l-93 -64h-109l-93 64v110z" />
    <glyph glyph-name="tcaron" unicode="&#x165;" 
d="M20 625v125h528v-125h-198v-625h-132v625h-198zM135 964l148 -96l147 96v-110l-93 -64h-109l-93 64v110z" />
    <glyph glyph-name="Tbar" unicode="&#x166;" 
d="M20 625v125h528v-125h-198v-187h106v-125h-106v-313h-132v313h-107v125h107v187h-198z" />
    <glyph glyph-name="tbar" unicode="&#x167;" 
d="M20 625v125h528v-125h-198v-187h106v-125h-106v-313h-132v313h-107v125h107v187h-198z" />
    <glyph glyph-name="Utilde" unicode="&#x168;" 
d="M548 239v511h-132v-513q0 -57 -37.5 -93.5t-94.5 -36.5t-94.5 36.5t-37.5 93.5v513h-132v-511q0 -112 76.5 -183.5t187.5 -71.5t187.5 71.5t76.5 183.5zM355 785q-25 0 -76 22.5t-69 22.5q-19 0 -34.5 -7t-22.5 -14.5t-17 -20.5v103q32 32 76 32q25 0 76 -22.5t69 -22.5
q43 0 74 42v-103q-32 -32 -76 -32z" />
    <glyph glyph-name="utilde" unicode="&#x169;" 
d="M548 239v511h-132v-513q0 -57 -37.5 -93.5t-94.5 -36.5t-94.5 36.5t-37.5 93.5v513h-132v-511q0 -112 76.5 -183.5t187.5 -71.5t187.5 71.5t76.5 183.5zM355 785q-25 0 -76 22.5t-69 22.5q-19 0 -34.5 -7t-22.5 -14.5t-17 -20.5v103q32 32 76 32q25 0 76 -22.5t69 -22.5
q43 0 74 42v-103q-32 -32 -76 -32z" />
    <glyph glyph-name="Umacron" unicode="&#x16a;" 
d="M548 239v511h-132v-513q0 -57 -37.5 -93.5t-94.5 -36.5t-94.5 36.5t-37.5 93.5v513h-132v-511q0 -112 76.5 -183.5t187.5 -71.5t187.5 71.5t76.5 183.5zM136 811v95h295v-95h-295z" />
    <glyph glyph-name="umacron" unicode="&#x16b;" 
d="M548 239v511h-132v-513q0 -57 -37.5 -93.5t-94.5 -36.5t-94.5 36.5t-37.5 93.5v513h-132v-511q0 -112 76.5 -183.5t187.5 -71.5t187.5 71.5t76.5 183.5zM136 811v95h295v-95h-295z" />
    <glyph glyph-name="Ubreve" unicode="&#x16c;" 
d="M548 750v-511q0 -112 -76.5 -183.5t-187.5 -71.5t-187.5 71.5t-76.5 183.5v511h132v-513q0 -57 37.5 -93.5t94.5 -36.5t94.5 36.5t37.5 93.5v513h132zM283 874q23 0 38 15.5t17 40.5h98q-2 -67 -44.5 -106.5t-108.5 -39.5t-108 39.5t-44 106.5h98q2 -25 16.5 -40.5
t37.5 -15.5z" />
    <glyph glyph-name="ubreve" unicode="&#x16d;" 
d="M548 750v-511q0 -112 -76.5 -183.5t-187.5 -71.5t-187.5 71.5t-76.5 183.5v511h132v-513q0 -57 37.5 -93.5t94.5 -36.5t94.5 36.5t37.5 93.5v513h132zM283 874q23 0 38 15.5t17 40.5h98q-2 -67 -44.5 -106.5t-108.5 -39.5t-108 39.5t-44 106.5h98q2 -25 16.5 -40.5
t37.5 -15.5z" />
    <glyph glyph-name="Uring" unicode="&#x16e;" 
d="M548 750v-511q0 -112 -76.5 -183.5t-187.5 -71.5t-187.5 71.5t-76.5 183.5v511h132v-513q0 -57 37.5 -93.5t94.5 -36.5t94.5 36.5t37.5 93.5v513h132zM173 884q0 46 32.5 78.5t78.5 32.5t78.5 -32.5t32.5 -78.5t-32.5 -78.5t-78.5 -32.5t-78.5 32.5t-32.5 78.5zM245 884
q0 -16 11.5 -27.5t27.5 -11.5t27.5 11.5t11.5 27.5t-11.5 27.5t-27.5 11.5t-27.5 -11.5t-11.5 -27.5z" />
    <glyph glyph-name="uring" unicode="&#x16f;" 
d="M548 750v-511q0 -112 -76.5 -183.5t-187.5 -71.5t-187.5 71.5t-76.5 183.5v511h132v-513q0 -57 37.5 -93.5t94.5 -36.5t94.5 36.5t37.5 93.5v513h132zM173 864q0 46 32.5 78.5t78.5 32.5t78.5 -32.5t32.5 -78.5t-32.5 -78.5t-78.5 -32.5t-78.5 32.5t-32.5 78.5zM245 864
q0 -16 11.5 -27.5t27.5 -11.5t27.5 11.5t11.5 27.5t-11.5 27.5t-27.5 11.5t-27.5 -11.5t-11.5 -27.5z" />
    <glyph glyph-name="Uhungarumlaut" unicode="&#x170;" 
d="M548 239v511h-132v-513q0 -57 -37.5 -93.5t-94.5 -36.5t-94.5 36.5t-37.5 93.5v513h-132v-511q0 -112 76.5 -183.5t187.5 -71.5t187.5 71.5t76.5 183.5zM325 849l-80 -59h-136l216 173v-114zM499 849l-84 -59h-136l220 173v-114z" />
    <glyph glyph-name="uhungarumlaut" unicode="&#x171;" 
d="M548 239v511h-132v-513q0 -57 -37.5 -93.5t-94.5 -36.5t-94.5 36.5t-37.5 93.5v513h-132v-511q0 -112 76.5 -183.5t187.5 -71.5t187.5 71.5t76.5 183.5zM335 849l-80 -59h-136l216 173v-114zM509 849l-84 -59h-136l220 173v-114z" />
    <glyph glyph-name="Uogonek" unicode="&#x172;" 
d="M459 -109l50 -86q-44 -36 -97 -36q-54 0 -83 28.5t-29 83.5v104q-6 -1 -16 -1q-111 0 -187.5 71.5t-76.5 183.5v511h132v-513q0 -57 37.5 -93.5t94.5 -36.5t94.5 36.5t37.5 93.5v513h132v-511q0 -78 -39 -138t-105 -91v-115q0 -21 20 -21q15 0 35 17z" />
    <glyph glyph-name="uogonek" unicode="&#x173;" 
d="M478 -109l50 -86q-44 -36 -97 -36q-54 0 -83 28.5t-29 83.5v105q-24 -2 -35 -2q-111 0 -187.5 71.5t-76.5 183.5v511h132v-513q0 -57 37.5 -93.5t94.5 -36.5t94.5 36.5t37.5 93.5v513h132v-511q0 -72 -33.5 -129t-91.5 -90v-125q0 -21 20 -21q15 0 35 17z" />
    <glyph glyph-name="Wcircumflex" unicode="&#x174;" horiz-adv-x="993" 
d="M973 750l-303 -750h-132l-42 207l-41 -207h-132l-303 750h143l212 -549l43 237h157l43 -237l212 549h143zM497 865l-148 -96v110l93 64h109l93 -64v-110z" />
    <glyph glyph-name="wcircumflex" unicode="&#x175;" horiz-adv-x="993" 
d="M973 750l-303 -750h-132l-42 207l-41 -207h-132l-303 750h143l212 -549l43 237h157l43 -237l212 549h143zM497 865l-148 -96v110l93 64h109l93 -64v-110z" />
    <glyph glyph-name="Ycircumflex" unicode="&#x176;" horiz-adv-x="541" 
d="M521 750l-177 -437l133 -313h-138l-319 750h146l110 -282l104 282h141zM271 865l-148 -96v110l93 64h109l93 -64v-110z" />
    <glyph glyph-name="ycircumflex" unicode="&#x177;" horiz-adv-x="541" 
d="M198 313l-178 437h141l105 -283l111 283h144l-319 -750h-138zM271 865l-148 -96v110l93 64h109l93 -64v-110z" />
    <glyph glyph-name="Ydieresis" unicode="&#x178;" horiz-adv-x="541" 
d="M344 313l177 437h-141l-104 -282l-110 282h-146l319 -750h138zM401 936l32 -94l-82 -58l-81 58l31 94h100zM238 936l32 -94l-82 -58l-81 58l31 94h100z" />
    <glyph glyph-name="Zacute" unicode="&#x179;" horiz-adv-x="497" 
d="M20 0h457v125h-316l316 500v125h-451v-125h308l-314 -500v-125zM410 850l-102 -60h-162l264 179v-119z" />
    <glyph glyph-name="zacute" unicode="&#x17a;" horiz-adv-x="497" 
d="M20 0h457v125h-316l316 500v125h-451v-125h308l-314 -500v-125zM410 850l-102 -60h-162l264 179v-119z" />
    <glyph glyph-name="Zdotaccent" unicode="&#x17b;" horiz-adv-x="497" 
d="M20 0h457v125h-316l316 500v125h-451v-125h308l-314 -500v-125zM298 936l32 -94l-82 -58l-81 58l31 94h100z" />
    <glyph glyph-name="zdotaccent" unicode="&#x17c;" horiz-adv-x="497" 
d="M20 0h457v125h-316l316 500v125h-451v-125h308l-314 -500v-125zM298 936l32 -94l-82 -58l-81 58l31 94h100z" />
    <glyph glyph-name="Zcaron" unicode="&#x17d;" horiz-adv-x="497" 
d="M477 0h-457v125l314 500h-308v125h451v-125l-316 -500h316v-125zM103 964l148 -96l147 96v-110l-93 -64h-109l-93 64v110z" />
    <glyph glyph-name="zcaron" unicode="&#x17e;" horiz-adv-x="497" 
d="M477 0h-457v125l314 500h-308v125h451v-125l-316 -500h316v-125zM123 964l148 -96l147 96v-110l-93 -64h-109l-93 64v110z" />
    <glyph glyph-name="Aringacute" unicode="&#x1fa;" horiz-adv-x="816" 
d="M796 0l-319 750h-138l-319 -750h133l401 242l103 -242h139zM233 184l174 404l96 -225zM297 884q0 -46 32.5 -78.5t78.5 -32.5t78.5 32.5t32.5 78.5t-32.5 78.5t-78.5 32.5t-78.5 -32.5t-32.5 -78.5zM369 884q0 16 11.5 27.5t27.5 11.5t27.5 -11.5t11.5 -27.5t-11.5 -27.5
t-27.5 -11.5t-27.5 11.5t-11.5 27.5zM590 1079l-102 -60h-162l264 179v-119z" />
    <glyph glyph-name="aringacute" unicode="&#x1fb;" horiz-adv-x="816" 
d="M796 310v132l-156 -76l-163 384h-138l-319 -750h133l418 201l86 -201h139l-110 257zM227 168l180 420l117 -277zM297 884q0 -46 32.5 -78.5t78.5 -32.5t78.5 32.5t32.5 78.5t-32.5 78.5t-78.5 32.5t-78.5 -32.5t-32.5 -78.5zM369 884q0 16 11.5 27.5t27.5 11.5
t27.5 -11.5t11.5 -27.5t-11.5 -27.5t-27.5 -11.5t-27.5 11.5t-11.5 27.5zM600 1080l-102 -60h-162l264 179v-119z" />
    <glyph glyph-name="AEacute" unicode="&#x1fc;" horiz-adv-x="930" 
d="M910 586l-289 -172l-91 211h380v125h-571l-319 -750h133l403 235l99 -235h255v125h-165l-76 176l241 141v144zM233 184l174 404l101 -241zM767 850l-102 -60h-162l264 179v-119z" />
    <glyph glyph-name="aeacute" unicode="&#x1fd;" horiz-adv-x="931" 
d="M910 586l-289 -172l-91 211h380v125h-571l-319 -750h133l403 235l99 -235h144l112 66v145l-161 -97l-81 187l241 141v144zM233 184l174 404l101 -241zM757 850l-102 -60h-162l264 179v-119z" />
    <glyph glyph-name="Oslashacute" unicode="&#x1fe;" horiz-adv-x="822" 
d="M20 375q0 -154 102 -266l-102 -125h140l46 56q93 -56 205 -56q163 0 277 113t114 278q0 155 -103 266l102 125h-140l-46 -57q-95 57 -204 57q-163 0 -277 -113t-114 -278zM411 108q-69 0 -125 30l333 406q59 -73 59 -169q0 -113 -77.5 -190t-189.5 -77zM145 375
q0 113 77.5 190.5t188.5 77.5q66 0 124 -30l-333 -406q-57 71 -57 168zM583 850l-102 -60h-162l264 179v-119z" />
    <glyph glyph-name="oslashacute" unicode="&#x1ff;" horiz-adv-x="822" 
d="M20 375q0 -154 102 -266l-102 -125h140l46 56q93 -56 205 -56q163 0 277 113t114 278q0 155 -103 266l102 125h-140l-46 -57q-95 57 -204 57q-163 0 -277 -113t-114 -278zM411 108q-69 0 -125 30l333 406q59 -73 59 -169q0 -113 -77.5 -190t-189.5 -77zM145 375
q0 113 77.5 190.5t188.5 77.5q66 0 124 -30l-333 -406q-57 71 -57 168zM613 850l-102 -60h-162l264 179v-119z" />
    <glyph glyph-name="uni0218" unicode="&#x218;" horiz-adv-x="514" 
d="M257 639q-41 0 -68.5 -25t-27.5 -67q0 -19 10.5 -35.5t30 -30t42 -25.5t50.5 -26q7 -3 11 -5q34 -16 54.5 -27.5t49 -32.5t45 -42t28.5 -52t12 -67q0 -97 -66 -158t-170 -61q-71 0 -140 47.5t-98 110.5l95 92q23 -49 62 -86t83 -37q43 0 71.5 23.5t28.5 65.5q0 31 -28 53
t-86 51q-9 4 -13 6q-29 15 -40 20.5t-38.5 21.5t-40 27t-32.5 30.5t-29 38t-16.5 44t-7.5 53.5q0 94 64.5 156.5t165.5 62.5q71 0 137.5 -47t95.5 -110l-96 -92q-62 123 -139 123zM257 -199h-46l-32 94l83 60l82 -60l-26 -94q-12 -46 -36.5 -66t-70.5 -20v48q44 0 46 38z
" />
    <glyph glyph-name="uni0219" unicode="&#x219;" horiz-adv-x="514" 
d="M257 639q-41 0 -68.5 -25t-27.5 -67q0 -19 10.5 -35.5t30 -30t42 -25.5t50.5 -26q7 -3 11 -5q34 -16 54.5 -27.5t49 -32.5t45 -42t28.5 -52t12 -67q0 -97 -66 -158t-170 -61q-71 0 -140 47.5t-98 110.5l95 92q23 -49 62 -86t83 -37q43 0 71.5 23.5t28.5 65.5q0 31 -28 53
t-86 51q-9 4 -13 6q-29 15 -40 20.5t-38.5 21.5t-40 27t-32.5 30.5t-29 38t-16.5 44t-7.5 53.5q0 94 64.5 156.5t165.5 62.5q71 0 137.5 -47t95.5 -110l-96 -92q-62 123 -139 123zM252 -199h-46l-32 94l83 60l82 -60l-26 -94q-12 -46 -36.5 -66t-70.5 -20v48q44 0 46 38z
" />
    <glyph glyph-name="uni021A" unicode="&#x21a;" 
d="M20 625v125h528v-125h-198v-625h-132v625h-198zM281 -199h-46l-32 94l83 60l82 -60l-26 -94q-12 -46 -36.5 -66t-70.5 -20v48q44 0 46 38z" />
    <glyph glyph-name="uni021B" unicode="&#x21b;" 
d="M20 625v125h528v-125h-198v-625h-132v625h-198zM279 -199h-46l-32 94l83 60l82 -60l-26 -94q-12 -46 -36.5 -66t-70.5 -20v48q44 0 46 38z" />
    <glyph glyph-name="circumflex" unicode="&#x2c6;" horiz-adv-x="395" 
d="M198 865l-148 -96v110l93 64h109l93 -64v-110z" />
    <glyph glyph-name="caron" unicode="&#x2c7;" horiz-adv-x="395" 
d="M50 964l148 -96l147 96v-110l-93 -64h-109l-93 64v110z" />
    <glyph glyph-name="breve" unicode="&#x2d8;" horiz-adv-x="405" 
d="M202 874q23 0 38 15.5t17 40.5h98q-2 -67 -44.5 -106.5t-108.5 -39.5t-108 39.5t-44 106.5h98q2 -25 16.5 -40.5t37.5 -15.5z" />
    <glyph glyph-name="dotaccent" unicode="&#x2d9;" horiz-adv-x="263" 
d="M181 936l32 -94l-82 -58l-81 58l31 94h100z" />
    <glyph glyph-name="ring" unicode="&#x2da;" horiz-adv-x="322" 
d="M50 864q0 46 32.5 78.5t78.5 32.5t78.5 -32.5t32.5 -78.5t-32.5 -78.5t-78.5 -32.5t-78.5 32.5t-32.5 78.5zM122 864q0 -16 11 -27.5t28 -11.5t28 11.5t11 27.5t-11 27.5t-28 11.5t-28 -11.5t-11 -27.5z" />
    <glyph glyph-name="ogonek" unicode="&#x2db;" horiz-adv-x="309" 
d="M209 -109l50 -86q-44 -36 -97 -36q-54 0 -83 28.5t-29 83.5v145h104v-131q0 -21 20 -21q15 0 35 17z" />
    <glyph glyph-name="tilde" unicode="&#x2dc;" horiz-adv-x="395" 
d="M269 785q-25 0 -76 22.5t-69 22.5q-19 0 -34.5 -7t-22.5 -14.5t-17 -20.5v103q32 32 76 32q25 0 76 -22.5t69 -22.5q43 0 74 42v-103q-32 -32 -76 -32z" />
    <glyph glyph-name="hungarumlaut" unicode="&#x2dd;" horiz-adv-x="490" 
d="M266 849l-80 -59h-136l216 173v-114zM440 849l-84 -59h-136l220 173v-114z" />
    <glyph glyph-name="afii10023" unicode="&#x401;" horiz-adv-x="508" 
d="M20 750v-750h468v125h-336v188h336v125h-336v187h336v125h-468zM227 936l32 -94l-82 -58l-81 58l31 94h100zM390 936l32 -94l-82 -58l-81 58l31 94h100z" />
    <glyph glyph-name="afii10051" unicode="&#x402;" horiz-adv-x="700" 
d="M444 0v125q45 0 75 29.5t30 74.5v41q0 45 -30 74.5t-75 29.5h-94v-374h-132v625h-198v125h528v-125h-198v-126h91q106 0 172.5 -61.5t66.5 -167.5v-41q0 -106 -65.5 -167.5t-170.5 -61.5z" />
    <glyph glyph-name="afii10052" unicode="&#x403;" horiz-adv-x="588" 
d="M20 750h548v-125h-411l253 -625h-145l-245 625v125zM438 850l-102 -60h-162l264 179v-119z" />
    <glyph glyph-name="afii10053" unicode="&#x404;" horiz-adv-x="745" 
d="M411 108q74 0 131 33.5t91 93.5l92 -92q-54 -74 -136.5 -116.5t-177.5 -42.5q-163 0 -277 113t-114 278t114 278t277 113q97 0 178.5 -42t135.5 -117l-92 -92q-34 60 -91.5 94t-130.5 34q-96 0 -167 -57.5t-91 -147.5h481v-125h-482q20 -91 91 -148t168 -57z" />
    <glyph glyph-name="afii10054" unicode="&#x405;" horiz-adv-x="514" 
d="M257 639q-41 0 -68.5 -25t-27.5 -67q0 -19 10.5 -35.5t30 -30t42 -25.5t50.5 -26q7 -3 11 -5q34 -16 54.5 -27.5t49 -32.5t45 -42t28.5 -52t12 -67q0 -97 -66 -158t-170 -61q-71 0 -140 47.5t-98 110.5l95 92q23 -49 62 -86t83 -37q43 0 71.5 23.5t28.5 65.5q0 31 -28 53
t-86 51q-9 4 -13 6q-29 15 -40 20.5t-38.5 21.5t-40 27t-32.5 30.5t-29 38t-16.5 44t-7.5 53.5q0 94 64.5 156.5t165.5 62.5q71 0 137.5 -47t95.5 -110l-96 -92q-62 123 -139 123z" />
    <glyph glyph-name="afii10055" unicode="&#x406;" horiz-adv-x="172" 
d="M20 0v750h132v-750h-132z" />
    <glyph glyph-name="afii10056" unicode="&#x407;" horiz-adv-x="172" 
d="M20 750v-750h132v750h-132zM217 936l32 -94l-82 -58l-81 58l31 94h100zM54 936l32 -94l-82 -58l-81 58l31 94h100z" />
    <glyph glyph-name="afii10057" unicode="&#x408;" horiz-adv-x="304" 
d="M284 750v-498q0 -114 -73 -185t-191 -67v125q61 -4 96.5 28.5t35.5 92.5v504h132z" />
    <glyph glyph-name="afii10058" unicode="&#x409;" horiz-adv-x="920" 
d="M20 0v124q138 0 138 137v261q0 95 66 161.5t160 66.5h190v-313h87q99 0 169 -60.5t70 -158.5t-69.5 -158t-169.5 -60h-219v619h-57q-42 0 -68.5 -27.5t-26.5 -68.5v-260q0 -126 -71 -194.5t-199 -68.5zM574 125h90q45 0 74.5 24t29.5 69q0 44 -30 69t-74 25h-90v-187z
" />
    <glyph glyph-name="afii10059" unicode="&#x40a;" horiz-adv-x="762" 
d="M20 0v750h132v-312h132v312h132v-313h87q99 0 169 -60.5t70 -158.5t-69.5 -158t-169.5 -60h-219v313h-132v-313h-132zM416 125h90q45 0 74.5 24t29.5 69q0 44 -30 69t-74 25h-90v-187z" />
    <glyph glyph-name="afii10060" unicode="&#x40b;" horiz-adv-x="700" 
d="M680 270v-270h-132v270q0 46 -29.5 75t-74.5 29h-94v-374h-132v625h-198v125h528v-125h-198v-126h91q106 0 172.5 -61.5t66.5 -167.5z" />
    <glyph glyph-name="afii10061" unicode="&#x40c;" horiz-adv-x="674" 
d="M488 850l-102 -60h-162l264 179v-119zM654 750l-502 -274v274h-132v-750h132v274l502 -274v147l-433 228l433 228v147z" />
    <glyph glyph-name="afii10062" unicode="&#x40e;" horiz-adv-x="541" 
d="M521 750l-177 -437l133 -313h-138l-319 750h146l110 -282l104 282h141zM276 874q23 0 38 15.5t17 40.5h98q-2 -67 -44.5 -106.5t-108.5 -39.5t-108 39.5t-44 106.5h98q2 -25 16.5 -40.5t37.5 -15.5z" />
    <glyph glyph-name="afii10145" unicode="&#x40f;" 
d="M548 0h-199v-153h-130v153h-199v750h132v-625h264v625h132v-750z" />
    <glyph glyph-name="afii10017" unicode="&#x410;" horiz-adv-x="816" 
d="M477 750l319 -750h-139l-103 242l-401 -242h-133l319 750h138zM407 588l-174 -404l270 179z" />
    <glyph glyph-name="afii10018" unicode="&#x411;" horiz-adv-x="575" 
d="M20 750h515v-125h-383v-188h164q99 0 169 -60.5t70 -158.5t-69.5 -158t-169.5 -60h-296v750zM423 218q0 44 -30 69t-74 25h-167v-187h167q45 0 74.5 24t29.5 69z" />
    <glyph glyph-name="afii10019" unicode="&#x412;" horiz-adv-x="524" 
d="M20 0v750h245q100 0 169.5 -60t69.5 -158q0 -101 -73 -158q73 -60 73 -156q0 -98 -69.5 -158t-169.5 -60h-245zM372 218q0 45 -29.5 70t-74.5 25h-116v-188h116q45 0 74.5 24t29.5 69zM372 532q0 45 -29.5 69t-74.5 24h-116v-187h116q45 0 74.5 24.5t29.5 69.5z" />
    <glyph glyph-name="afii10020" unicode="&#x413;" horiz-adv-x="588" 
d="M20 750h548v-125h-411l253 -625h-145l-245 625v125z" />
    <glyph glyph-name="afii10021" unicode="&#x414;" horiz-adv-x="795" 
d="M643 0h-491v-137h-132v261q68 0 106 37t38 107v254q0 95 66 161.5t160 66.5h253v-626h132v-261h-132v137zM296 523v-253q0 -103 -63 -146h280v495h-122q-40 0 -67.5 -28t-27.5 -68z" />
    <glyph glyph-name="afii10022" unicode="&#x415;" horiz-adv-x="508" 
d="M20 0v750h468v-125h-336v-187h336v-125h-336v-188h336v-125h-468z" />
    <glyph glyph-name="afii10024" unicode="&#x416;" horiz-adv-x="704" 
d="M414 478l270 272v-179l-204 -195l204 -202v-174l-270 272v-272h-134v272l-260 -272v174l194 202l-194 195v179l260 -272v272h134v-272z" />
    <glyph glyph-name="afii10025" unicode="&#x417;" horiz-adv-x="514" 
d="M34 211l124 -1q0 -42 28 -72t71 -30q41 0 71 28.5t30 70.5q0 45 -29.5 75t-71.5 30h-106v120h106q46 0 76 29t30 73t-31 74.5t-75 30.5t-75 -30.5t-31 -74.5h-131q0 98 68.5 165t168.5 67q102 0 169.5 -67t67.5 -165q0 -101 -77 -167q68 -66 68 -160t-65 -158.5
t-163 -64.5q-94 0 -158.5 64.5t-64.5 162.5z" />
    <glyph glyph-name="afii10026" unicode="&#x418;" horiz-adv-x="588" 
d="M150 750v-506l275 506h143v-750h-130v505l-276 -505h-142v750h130z" />
    <glyph glyph-name="afii10027" unicode="&#x419;" horiz-adv-x="588" 
d="M150 750v-506l275 506h143v-750h-130v505l-276 -505h-142v750h130zM293 874q23 0 38 15.5t17 40.5h98q-2 -67 -44.5 -106.5t-108.5 -39.5t-108 39.5t-44 106.5h98q2 -25 16.5 -40.5t37.5 -15.5z" />
    <glyph glyph-name="afii10028" unicode="&#x41a;" horiz-adv-x="674" 
d="M152 476l502 274v-147l-433 -228l433 -228v-147l-502 274v-274h-132v750h132v-274z" />
    <glyph glyph-name="afii10029" unicode="&#x41b;" horiz-adv-x="657" 
d="M20 0v124q138 0 138 137v261q0 95 66 161.5t160 66.5h253v-750h-130v619h-122q-42 0 -68.5 -27.5t-26.5 -68.5v-260q0 -126 -71 -194.5t-199 -68.5z" />
    <glyph glyph-name="afii10030" unicode="&#x41c;" horiz-adv-x="656" 
d="M234 750l94 -457l94 457h214v-750h-129v552l-123 -552h-112l-123 552v-552h-129v750h214z" />
    <glyph glyph-name="afii10031" unicode="&#x41d;" 
d="M416 438v312h132v-750h-132v313h-264v-313h-132v750h132v-312h264z" />
    <glyph glyph-name="afii10032" unicode="&#x41e;" horiz-adv-x="822" 
d="M20 375q0 165 114 278t277 113t277 -113t114 -278t-114 -278t-277 -113t-277 113t-114 278zM145 375q0 -113 77.5 -190t188.5 -77q112 0 189.5 77t77.5 190t-78 190.5t-189 77.5t-188.5 -77.5t-77.5 -190.5z" />
    <glyph glyph-name="afii10033" unicode="&#x41f;" 
d="M20 750h528v-750h-132v625h-264v-625h-132v750z" />
    <glyph glyph-name="afii10034" unicode="&#x420;" horiz-adv-x="605" 
d="M346 313h-194v-313h-132v750h326q100 0 169.5 -60t69.5 -158t-70 -158.5t-169 -60.5zM453 532q0 45 -29.5 69t-74.5 24h-197v-187h197q44 0 74 25t30 69z" />
    <glyph glyph-name="afii10035" unicode="&#x421;" horiz-adv-x="745" 
d="M411 108q74 0 131 33.5t91 93.5l92 -92q-54 -74 -136.5 -116.5t-177.5 -42.5q-163 0 -277 113t-114 278t114 278t277 113q97 0 178.5 -42t135.5 -117l-92 -92q-34 60 -91.5 94t-130.5 34q-113 0 -189 -77t-76 -191q0 -113 76 -190t189 -77z" />
    <glyph glyph-name="afii10036" unicode="&#x422;" 
d="M20 625v125h528v-125h-198v-625h-132v625h-198z" />
    <glyph glyph-name="afii10037" unicode="&#x423;" horiz-adv-x="541" 
d="M521 750l-177 -437l133 -313h-138l-319 750h146l110 -282l104 282h141z" />
    <glyph glyph-name="afii10038" unicode="&#x424;" horiz-adv-x="875" 
d="M372 90h-46q-126 0 -216 83t-90 205q0 121 91 203.5t215 82.5h46v116h133v-116h44q124 0 215 -82.5t91 -203.5q0 -122 -90 -205t-216 -83h-45v-120h-132v120zM504 215h49q71 0 119.5 46.5t48.5 117.5q0 68 -49 114t-119 46h-49v-324zM322 215h51v324h-51q-70 0 -119 -46
t-49 -114q0 -71 48.5 -117.5t119.5 -46.5z" />
    <glyph glyph-name="afii10039" unicode="&#x425;" horiz-adv-x="497" 
d="M248 212l-90 -212h-138l159 375l-159 375h139l89 -211l90 211h139l-159 -375l159 -375h-138z" />
    <glyph glyph-name="afii10040" unicode="&#x426;" horiz-adv-x="700" 
d="M548 0h-528v750h132v-625h264v625h132v-625h132v-262h-132v137z" />
    <glyph glyph-name="afii10041" unicode="&#x427;" horiz-adv-x="605" 
d="M20 541v208h132v-208q0 -46 29.5 -75t74.5 -29h197v313h132v-750h-132v312h-194q-106 0 -172.5 61.5t-66.5 167.5z" />
    <glyph glyph-name="afii10042" unicode="&#x428;" horiz-adv-x="786" 
d="M151 750v-624h177v624h130v-624h177v624h131v-750h-746v750h131z" />
    <glyph glyph-name="afii10043" unicode="&#x429;" horiz-adv-x="858" 
d="M706 0h-686v750h131v-624h147v624h130v-624h147v624h131v-624h132v-263h-132v137z" />
    <glyph glyph-name="afii10044" unicode="&#x42a;" horiz-adv-x="750" 
d="M364 437h127q99 0 169 -60.5t70 -158.5t-69.5 -158t-169.5 -60h-259v625h-212v125h344v-313zM598 218q0 44 -30 69t-74 25h-130v-187h130q45 0 74.5 24t29.5 69z" />
    <glyph glyph-name="afii10045" unicode="&#x42b;" horiz-adv-x="670" 
d="M152 437h87q99 0 169 -60.5t70 -158.5t-69.5 -158t-169.5 -60h-219v750h132v-313zM152 125h90q45 0 74.5 24t29.5 69q0 44 -30 69t-74 25h-90v-187zM518 750v-750h132v750h-132z" />
    <glyph glyph-name="afii10046" unicode="&#x42c;" horiz-adv-x="605" 
d="M152 437h194q99 0 169 -60.5t70 -158.5t-69.5 -158t-169.5 -60h-326v750h132v-313zM453 218q0 44 -30 69t-74 25h-197v-187h197q45 0 74.5 24t29.5 69z" />
    <glyph glyph-name="afii10047" unicode="&#x42d;" horiz-adv-x="745" 
d="M334 108q96 0 167 57t91 148h-481v125h481q-20 90 -91 147.5t-167 57.5q-73 0 -130.5 -34t-91.5 -94l-92 92q54 75 135.5 117t178.5 42q163 0 277 -113t114 -278t-114 -278t-277 -113q-95 0 -177.5 42.5t-136.5 116.5l92 92q34 -60 91 -93.5t131 -33.5z" />
    <glyph glyph-name="afii10048" unicode="&#x42e;" horiz-adv-x="1041" 
d="M243 313h-91v-313h-132v750h132v-312h92q22 142 131 235t255 93q163 0 277 -113t114 -278t-114 -278t-277 -113q-147 0 -256 93t-131 236zM364 375q0 -113 77.5 -190t188.5 -77q112 0 189.5 77t77.5 190t-78 190.5t-189 77.5t-188.5 -77.5t-77.5 -190.5z" />
    <glyph glyph-name="afii10049" unicode="&#x42f;" horiz-adv-x="585" 
d="M433 184l-413 -185v145l401 173h-162q-100 0 -169.5 59.5t-69.5 157.5t69.5 157t169.5 59h306v-750h-132v184zM152 534q0 -44 29.5 -68t74.5 -24h177v183h-177q-45 0 -74.5 -23.5t-29.5 -67.5z" />
    <glyph glyph-name="afii10065" unicode="&#x430;" horiz-adv-x="816" 
d="M796 442v-132l-110 -53l110 -257h-139l-86 201l-418 -201h-133l319 750h138l163 -384zM407 588l-180 -420l297 143z" />
    <glyph glyph-name="afii10066" unicode="&#x431;" horiz-adv-x="525" 
d="M373 218q0 44 -30 69t-74 25h-117v-187h117q45 0 74.5 24t29.5 69zM20 750h133l352 -174v-138l-354 173v-174h115q99 0 169 -60.5t70 -158.5t-69.5 -158t-169.5 -60h-246v750z" />
    <glyph glyph-name="afii10067" unicode="&#x432;" horiz-adv-x="585" 
d="M433 532q0 45 -29.5 69t-74.5 24h-177v-187h177q45 0 74.5 24.5t29.5 69.5zM457 350q48 -54 48 -132q0 -98 -69.5 -158t-169.5 -60h-246v750h306q100 0 169.5 -60t69.5 -158q0 -119 -108 -182zM373 218q0 45 -29.5 70t-74.5 25h-116v-188h116q45 0 74.5 24t29.5 69z" />
    <glyph glyph-name="afii10068" unicode="&#x433;" horiz-adv-x="520" 
d="M20 0v750h132l348 -222v-148l-348 220v-600h-132z" />
    <glyph glyph-name="afii10069" unicode="&#x434;" horiz-adv-x="795" 
d="M404 750h239v-626h132v-261h-132v137h-491v-137h-132v261q65 0 102.5 35t64.5 96zM513 693l-205 -482q-24 -56 -61 -87h266v569z" />
    <glyph glyph-name="afii10070" unicode="&#x435;" horiz-adv-x="508" 
d="M20 0v750h468v-125h-336v-187h336v-125h-336v-188h336v-125h-468z" />
    <glyph glyph-name="afii10072" unicode="&#x436;" horiz-adv-x="810" 
d="M472 480l270 271v-177l-201 -199l249 -375h-152l-166 258v-258h-134v258l-166 -258h-152l249 375l-201 199v177l270 -271v270h134v-270z" />
    <glyph glyph-name="afii10073" unicode="&#x437;" horiz-adv-x="518" 
d="M20 216h131q0 -44 31.5 -74.5t76.5 -30.5t76.5 30.5t31.5 74.5t-31 73t-77 29h-108v120h108q42 0 71.5 30t29.5 75q0 42 -30 70.5t-71 28.5q-33 0 -61 -20.5t-37 -49.5l-94 93q30 46 82 73.5t110 27.5q98 0 163 -64.5t65 -158.5t-68 -160q79 -67 79 -167
q0 -98 -68.5 -165t-170.5 -67q-100 0 -169.5 67.5t-69.5 164.5z" />
    <glyph glyph-name="afii10074" unicode="&#x438;" horiz-adv-x="588" 
d="M150 750v-509l275 509h143v-750h-130v510l-276 -510h-142v750h130z" />
    <glyph glyph-name="afii10075" unicode="&#x439;" horiz-adv-x="588" 
d="M150 750v-509l275 509h143v-750h-130v510l-276 -510h-142v750h130zM294 874q23 0 38 15.5t17 40.5h98q-2 -67 -44.5 -106.5t-108.5 -39.5t-108 39.5t-44 106.5h98q2 -25 16.5 -40.5t37.5 -15.5z" />
    <glyph glyph-name="afii10076" unicode="&#x43a;" horiz-adv-x="691" 
d="M152 474l502 276v-147l-432 -228l449 -375h-198l-321 269v-269h-132v750h132v-276z" />
    <glyph glyph-name="afii10077" unicode="&#x43b;" horiz-adv-x="675" 
d="M414 750h241v-750h-130v693l-216 -500q-42 -98 -110 -145.5t-179 -47.5v124q64 0 102 29.5t66 94.5z" />
    <glyph glyph-name="afii10078" unicode="&#x43c;" horiz-adv-x="700" 
d="M680 750v-750h-127v569l-134 -292h-138l-134 292v-569h-127v750h182l148 -329l148 329h182z" />
    <glyph glyph-name="afii10079" unicode="&#x43d;" 
d="M416 438v312h132v-750h-132v313h-264v-313h-132v750h132v-312h264z" />
    <glyph glyph-name="afii10080" unicode="&#x43e;" horiz-adv-x="822" 
d="M20 375q0 165 114 278t277 113t277 -113t114 -278t-114 -278t-277 -113t-277 113t-114 278zM145 375q0 -113 77.5 -190t188.5 -77q112 0 189.5 77t77.5 190t-78 190.5t-189 77.5t-188.5 -77.5t-77.5 -190.5z" />
    <glyph glyph-name="afii10081" unicode="&#x43f;" 
d="M20 750h528v-750h-132v625h-264v-625h-132v750z" />
    <glyph glyph-name="afii10082" unicode="&#x440;" horiz-adv-x="575" 
d="M316 313h-164v-313h-132v750h296q100 0 169.5 -60t69.5 -158t-70 -158.5t-169 -60.5zM423 532q0 45 -29.5 69t-74.5 24h-167v-187h167q44 0 74 25t30 69z" />
    <glyph glyph-name="afii10083" unicode="&#x441;" horiz-adv-x="745" 
d="M411 108q74 0 131 33.5t91 93.5l92 -92q-54 -74 -136.5 -116.5t-177.5 -42.5q-163 0 -277 113t-114 278t114 278t277 113q97 0 178.5 -42t135.5 -117l-92 -92q-34 60 -91.5 94t-130.5 34q-113 0 -189 -77t-76 -191q0 -113 76 -190t189 -77z" />
    <glyph glyph-name="afii10084" unicode="&#x442;" 
d="M20 625v125h528v-125h-198v-625h-132v625h-198z" />
    <glyph glyph-name="afii10085" unicode="&#x443;" horiz-adv-x="541" 
d="M198 313l-178 437h141l105 -283l111 283h144l-319 -750h-138z" />
    <glyph glyph-name="afii10086" unicode="&#x444;" horiz-adv-x="845" 
d="M693 380q0 45 -30 71t-74 26h-102v-195h102q44 0 74 27t30 71zM152 380q0 -44 30 -71t74 -27h101v195h-101q-44 0 -74 -26t-30 -71zM488 601h98q99 0 169 -61.5t70 -159.5q0 -99 -70 -160.5t-169 -61.5h-98v-188h-132v188h-97q-99 0 -169 61.5t-70 160.5q0 98 70 159.5
t169 61.5h97v179h132v-179z" />
    <glyph glyph-name="afii10087" unicode="&#x445;" horiz-adv-x="497" 
d="M248 212l-90 -212h-138l159 375l-159 375h139l89 -211l90 211h139l-159 -375l159 -375h-138z" />
    <glyph glyph-name="afii10088" unicode="&#x446;" horiz-adv-x="700" 
d="M20 0v750h132v-616l264 90v526h132v-481l132 45v-314h-132v133l-400 -133h-128z" />
    <glyph glyph-name="afii10089" unicode="&#x447;" horiz-adv-x="605" 
d="M585 750v-750h-132v312h-193q-106 0 -173 61.5t-67 167.5q0 58 22 105l47 104h140l-46 -104q-31 -70 -31 -105q0 -46 29.5 -75t74.5 -29h197v313h132z" />
    <glyph glyph-name="afii10090" unicode="&#x448;" horiz-adv-x="786" 
d="M151 750v-624h177v624h130v-624h177v624h131v-750h-746v750h131z" />
    <glyph glyph-name="afii10091" unicode="&#x449;" horiz-adv-x="842" 
d="M20 0v750h131v-615l139 37v578h130v-543l139 37v506h131v-471l132 36v-315h-132v143l-543 -143h-127z" />
    <glyph glyph-name="afii10092" unicode="&#x44a;" horiz-adv-x="750" 
d="M364 437h127q99 0 169 -60.5t70 -158.5t-69.5 -158t-169.5 -60h-259v625h-212v125h344v-313zM598 218q0 44 -30 69t-74 25h-130v-187h130q45 0 74.5 24t29.5 69z" />
    <glyph glyph-name="afii10093" unicode="&#x44b;" horiz-adv-x="670" 
d="M152 437h87q99 0 169 -60.5t70 -158.5t-69.5 -158t-169.5 -60h-219v750h132v-313zM152 125h90q45 0 74.5 24t29.5 69q0 44 -30 69t-74 25h-90v-187zM518 750v-750h132v750h-132z" />
    <glyph glyph-name="afii10094" unicode="&#x44c;" horiz-adv-x="575" 
d="M152 437h164q99 0 169 -60.5t70 -158.5t-69.5 -158t-169.5 -60h-296v750h132v-313zM423 218q0 44 -30 69t-74 25h-167v-187h167q45 0 74.5 24t29.5 69z" />
    <glyph glyph-name="afii10095" unicode="&#x44d;" horiz-adv-x="654" 
d="M247 -16q-124 0 -227 73v145q60 -56 111 -75t115 -19q98 0 168.5 56.5t87.5 148.5h-482v125h482q-18 92 -88.5 148.5t-167.5 56.5q-66 0 -116 -18t-110 -73v145q97 69 229 69q163 0 274 -112t111 -279t-112 -279t-275 -112z" />
    <glyph glyph-name="afii10096" unicode="&#x44e;" horiz-adv-x="756" 
d="M284 313h-132v-313h-132v750h132v-312h132v100q0 99 62.5 163.5t162.5 64.5t163.5 -65t63.5 -163v-326q0 -98 -63.5 -163t-163.5 -65t-162.5 64.5t-62.5 163.5v101zM412 540v-330q0 -44 26 -73.5t71 -29.5t71.5 29t26.5 73v332q0 44 -26.5 73t-71.5 29t-71 -29.5
t-26 -73.5z" />
    <glyph glyph-name="afii10097" unicode="&#x44f;" horiz-adv-x="624" 
d="M472 313h-174q-101 0 -115 -132q-11 -95 -26 -181h-137q20 102 29 184q13 126 89 186q-79 65 -79 162q0 98 69.5 158t169.5 60h306v-750h-132v313zM191 532q0 -45 29.5 -69.5t74.5 -24.5h177v187h-177q-45 0 -74.5 -24t-29.5 -69z" />
    <glyph glyph-name="afii10071" unicode="&#x451;" horiz-adv-x="508" 
d="M20 750v-750h468v125h-336v188h336v125h-336v187h336v125h-468zM231 936l32 -94l-82 -58l-81 58l31 94h100zM394 936l32 -94l-82 -58l-81 58l31 94h100z" />
    <glyph glyph-name="afii10099" unicode="&#x452;" horiz-adv-x="700" 
d="M444 -125v125q45 0 75 29.5t30 74.5v166q0 45 -30 74.5t-75 29.5h-94v-374h-132v625h-198v125h528v-125h-198v-126h91q106 0 172.5 -61.5t66.5 -167.5v-166q0 -106 -65.5 -167.5t-170.5 -61.5z" />
    <glyph glyph-name="afii10100" unicode="&#x453;" horiz-adv-x="520" 
d="M20 750v-750h132v600l348 -220v148l-348 222h-132zM418 850l-102 -60h-162l264 179v-119z" />
    <glyph glyph-name="afii10101" unicode="&#x454;" horiz-adv-x="654" 
d="M407 -16q-163 0 -275 112t-112 279t111 279t274 112q132 0 229 -69v-145q-60 55 -110 73t-116 18q-98 0 -168.5 -56.5t-87.5 -148.5h482v-125h-482q17 -92 87.5 -148.5t168.5 -56.5q64 0 115 19t111 75v-145q-103 -73 -227 -73z" />
    <glyph glyph-name="afii10102" unicode="&#x455;" horiz-adv-x="514" 
d="M257 639q-41 0 -68.5 -25t-27.5 -67q0 -19 10.5 -35.5t30 -30t42 -25.5t50.5 -26q7 -3 11 -5q34 -16 54.5 -27.5t49 -32.5t45 -42t28.5 -52t12 -67q0 -97 -66 -158t-170 -61q-71 0 -140 47.5t-98 110.5l95 92q23 -49 62 -86t83 -37q43 0 71.5 23.5t28.5 65.5q0 31 -28 53
t-86 51q-9 4 -13 6q-29 15 -40 20.5t-38.5 21.5t-40 27t-32.5 30.5t-29 38t-16.5 44t-7.5 53.5q0 94 64.5 156.5t165.5 62.5q71 0 137.5 -47t95.5 -110l-96 -92q-62 123 -139 123z" />
    <glyph glyph-name="afii10103" unicode="&#x456;" 
d="M548 0h-528v125h198v500h-198v125h528v-125h-198v-500h198v-125z" />
    <glyph glyph-name="afii10104" unicode="&#x457;" 
d="M20 0h528v125h-198v500h198v125h-528v-125h198v-500h-198v-125zM415 936l32 -94l-82 -58l-81 58l31 94h100zM252 936l32 -94l-82 -58l-81 58l31 94h100z" />
    <glyph glyph-name="afii10105" unicode="&#x458;" horiz-adv-x="509" 
d="M152 315v-98q0 -46 27 -75.5t75 -29.5q47 0 75 29.5t28 75.5v533h132v-533q0 -101 -66.5 -166.5t-168.5 -65.5t-168 65.5t-66 166.5v98h132z" />
    <glyph glyph-name="afii10106" unicode="&#x459;" horiz-adv-x="950" 
d="M363 750h241v-313h87q99 0 169 -60.5t70 -158.5t-69.5 -158t-169.5 -60h-219v693l-163 -500q-62 -193 -289 -193v124q67 0 108 29.5t63 93.5zM604 125h90q45 0 74.5 24t29.5 69q0 44 -30 69t-74 25h-90v-187z" />
    <glyph glyph-name="afii10107" unicode="&#x45a;" horiz-adv-x="762" 
d="M20 0v750h132v-312h132v312h132v-313h87q99 0 169 -60.5t70 -158.5t-69.5 -158t-169.5 -60h-219v313h-132v-313h-132zM416 125h90q45 0 74.5 24t29.5 69q0 44 -30 69t-74 25h-90v-187z" />
    <glyph glyph-name="afii10108" unicode="&#x45b;" horiz-adv-x="700" 
d="M448 0l82 193q18 44 18 78q0 45 -29.5 74t-74.5 29h-94v-374h-132v625h-198v125h528v-125h-198v-126h91q106 0 172.5 -61.5t66.5 -167.5q0 -49 -22 -105l-65 -165h-145z" />
    <glyph glyph-name="afii10109" unicode="&#x45c;" horiz-adv-x="691" 
d="M498 850l-102 -60h-162l264 179v-119zM654 750l-502 -276v276h-132v-750h132v269l321 -269h198l-449 375l432 228v147z" />
    <glyph glyph-name="afii10110" unicode="&#x45e;" horiz-adv-x="541" 
d="M198 313l-178 437h141l105 -283l111 283h144l-319 -750h-138zM266 874q23 0 38 15.5t17 40.5h98q-2 -67 -44.5 -106.5t-108.5 -39.5t-108 39.5t-44 106.5h98q2 -25 16.5 -40.5t37.5 -15.5z" />
    <glyph glyph-name="afii10193" unicode="&#x45f;" 
d="M548 0h-199v-153h-130v153h-199v750h132v-625h264v625h132v-750z" />
    <glyph glyph-name="afii10050" unicode="&#x490;" horiz-adv-x="588" 
d="M437 750v137h131v-262h-411l253 -625h-145l-245 625v125h417z" />
    <glyph glyph-name="afii10098" unicode="&#x491;" horiz-adv-x="520" 
d="M500 380l-348 220v-600h-132v750h132l217 -137v137h131v-370z" />
    <glyph glyph-name="Wgrave" unicode="&#x1e80;" horiz-adv-x="993" 
d="M973 750l-303 -750h-132l-42 207l-41 -207h-132l-303 750h143l212 -549l43 237h157l43 -237l212 549h143zM456 790l-102 60v119l264 -179h-162z" />
    <glyph glyph-name="wgrave" unicode="&#x1e81;" horiz-adv-x="993" 
d="M973 750l-303 -750h-132l-42 207l-41 -207h-132l-303 750h143l212 -549l43 237h157l43 -237l212 549h143zM446 790l-102 60v119l264 -179h-162z" />
    <glyph glyph-name="Wacute" unicode="&#x1e82;" horiz-adv-x="993" 
d="M670 0l303 750h-143l-212 -549l-43 237h-157l-43 -237l-212 549h-143l303 -750h132l41 207l42 -207h132zM658 850l-102 -60h-162l264 179v-119z" />
    <glyph glyph-name="wacute" unicode="&#x1e83;" horiz-adv-x="993" 
d="M670 0l303 750h-143l-212 -549l-43 237h-157l-43 -237l-212 549h-143l303 -750h132l41 207l42 -207h132zM648 850l-102 -60h-162l264 179v-119z" />
    <glyph glyph-name="Wdieresis" unicode="&#x1e84;" horiz-adv-x="993" 
d="M670 0l303 750h-143l-212 -549l-43 237h-157l-43 -237l-212 549h-143l303 -750h132l41 207l42 -207h132zM627 936l32 -94l-82 -58l-81 58l31 94h100zM464 936l32 -94l-82 -58l-81 58l31 94h100z" />
    <glyph glyph-name="wdieresis" unicode="&#x1e85;" horiz-adv-x="993" 
d="M670 0l303 750h-143l-212 -549l-43 237h-157l-43 -237l-212 549h-143l303 -750h132l41 207l42 -207h132zM627 936l32 -94l-82 -58l-81 58l31 94h100zM464 936l32 -94l-82 -58l-81 58l31 94h100z" />
    <glyph glyph-name="Ygrave" unicode="&#x1ef2;" horiz-adv-x="541" 
d="M521 750l-177 -437l133 -313h-138l-319 750h146l110 -282l104 282h141zM210 790l-102 60v119l264 -179h-162z" />
    <glyph glyph-name="ygrave" unicode="&#x1ef3;" horiz-adv-x="541" 
d="M198 313l-178 437h141l105 -283l111 283h144l-319 -750h-138zM190 790l-102 60v119l264 -179h-162z" />
    <glyph glyph-name="endash" unicode="&#x2013;" horiz-adv-x="545" 
d="M20 313v125h505v-125h-505z" />
    <glyph glyph-name="emdash" unicode="&#x2014;" horiz-adv-x="1050" 
d="M1030 313h-1010v125h1010v-125z" />
    <glyph glyph-name="quoteleft" unicode="&#x2018;" horiz-adv-x="243" 
d="M116 644h68l39 -117l-102 -73l-101 73q14 63 32 117q19 57 50.5 80.5t88.5 25.5v-53q-26 0 -49.5 -12t-25.5 -41z" />
    <glyph glyph-name="quoteright" unicode="&#x2019;" horiz-adv-x="243" 
d="M127 560h-68l-39 117l102 73l101 -73q-14 -63 -32 -117q-19 -57 -50.5 -80.5t-88.5 -25.5v53q26 0 49.5 12t25.5 41z" />
    <glyph glyph-name="quotesinglbase" unicode="&#x201a;" horiz-adv-x="243" 
d="M127 0h-68l-39 117l102 73l101 -73q-14 -63 -32 -117q-19 -57 -50.5 -80.5t-88.5 -25.5v53q26 0 49.5 12t25.5 41z" />
    <glyph glyph-name="quotedblleft" unicode="&#x201c;" horiz-adv-x="446" 
d="M319 644h68l39 -117l-102 -73l-101 73q14 63 32 117q19 57 50.5 80.5t88.5 25.5v-53q-26 0 -49.5 -12t-25.5 -41zM116 644h68l39 -117l-102 -73l-101 73q14 63 32 117q19 57 50.5 80.5t88.5 25.5v-53q-26 0 -49.5 -12t-25.5 -41z" />
    <glyph glyph-name="quotedblright" unicode="&#x201d;" horiz-adv-x="446" 
d="M127 560h-68l-39 117l102 73l101 -73q-14 -63 -32 -117q-19 -57 -50.5 -80.5t-88.5 -25.5v53q26 0 49.5 12t25.5 41zM330 560h-68l-39 117l102 73l101 -73q-14 -63 -32 -117q-19 -57 -50.5 -80.5t-88.5 -25.5v53q26 0 49.5 12t25.5 41z" />
    <glyph glyph-name="quotedblbase" unicode="&#x201e;" horiz-adv-x="446" 
d="M127 0h-68l-39 117l102 73l101 -73q-14 -63 -32 -117q-19 -57 -50.5 -80.5t-88.5 -25.5v53q26 0 49.5 12t25.5 41zM330 0h-68l-39 117l102 73l101 -73q-14 -63 -32 -117q-19 -57 -50.5 -80.5t-88.5 -25.5v53q26 0 49.5 12t25.5 41z" />
    <glyph glyph-name="dagger" unicode="&#x2020;" horiz-adv-x="545" 
d="M20 509h217v241h72v-241h216v-72h-216v-437h-72v437h-217v72z" />
    <glyph glyph-name="daggerdbl" unicode="&#x2021;" horiz-adv-x="545" 
d="M237 241h-217v72h217v124h-217v72h217v241h72v-241h216v-72h-216v-124h216v-72h-216v-241h-72v241z" />
    <glyph glyph-name="bullet" unicode="&#x2022;" horiz-adv-x="573" 
d="M20 375q0 113 77.5 190.5t188.5 77.5t189 -77.5t78 -190.5t-77.5 -190t-189.5 -77q-111 0 -188.5 77t-77.5 190z" />
    <glyph glyph-name="ellipsis" unicode="&#x2026;" horiz-adv-x="649" 
d="M223 117l-39 -117h-126l-38 117l101 73zM629 117l-39 -117h-126l-38 117l101 73zM426 117l-39 -117h-126l-38 117l101 73z" />
    <glyph glyph-name="perthousand" unicode="&#x2030;" horiz-adv-x="663" 
d="M643 281q0 -80 -67 -124q-8 -54 -49.5 -91t-97.5 -37q-61 0 -104.5 43.5t-43.5 104.5q0 80 67 124q8 54 49.5 91t97.5 37q61 0 104.5 -43.5t43.5 -104.5zM21 574q0 63 42.5 105t105.5 42t105.5 -42t42.5 -105t-42.5 -105t-105.5 -42t-105.5 42t-42.5 105zM20 0l483 750
h75l-483 -750h-75zM251 574q0 36 -23 59t-59 23t-59 -23t-23 -59t23 -59t59 -23t59 23t23 59zM345 177q0 -35 24 -59.5t60 -24.5q50 0 73 41h-7q-45 0 -82 24.5t-54 63.5q-14 -20 -14 -45zM579 281q0 35 -24 59.5t-60 24.5q-49 0 -72 -40h6q45 0 82 -25.5t54 -65.5
q14 20 14 47zM429 260q-10 0 -15 -1q8 -27 30 -44t51 -17q10 0 15 1q-8 27 -30.5 44t-50.5 17z" />
    <glyph glyph-name="guilsinglleft" unicode="&#x2039;" horiz-adv-x="291" 
d="M20 375l251 250v-162l-91 -88l91 -88v-162z" />
    <glyph glyph-name="guilsinglright" unicode="&#x203a;" horiz-adv-x="291" 
d="M20 625l251 -250l-251 -250v162l91 88l-91 88v162z" />
    <glyph glyph-name="fraction" unicode="&#x2044;" horiz-adv-x="598" 
d="M20 0l486 750h72l-486 -750h-72z" />
    <glyph glyph-name="Euro" unicode="&#x20ac;" horiz-adv-x="388" 
d="M255 140q-98 0 -166.5 68t-68.5 167t68.5 167t166.5 68q65 0 113 -30l-38 -64q-30 20 -75 20q-77 0 -125 -58h238v-73h-270q-2 -20 -2 -30q0 -19 2 -28h270v-74h-238q47 -58 125 -58q43 0 74 21l39 -66q-48 -30 -113 -30z" />
    <glyph glyph-name="afii61352" unicode="&#x2116;" horiz-adv-x="806" 
d="M499 287v-247l-316 710h-163v-750h130v505l221 -505h258v287h-130zM786 545q0 -93 -65.5 -155.5t-157.5 -62.5t-158 62.5t-66 155.5t66 155.5t158 62.5t157.5 -62.5t65.5 -155.5zM466 545q0 -40 28 -67.5t69 -27.5q40 0 68 27.5t28 67.5t-28 67.5t-68 27.5
q-41 0 -69 -27.5t-28 -67.5z" />
    <glyph glyph-name="trademark" unicode="&#x2122;" horiz-adv-x="750" 
d="M20 676v75h317v-75h-119v-375h-79v375h-119zM489 751l56 -274l57 274h128v-450h-77v331l-74 -331h-67l-74 331v-331h-77v450h128z" />
    <glyph glyph-name="minus" unicode="&#x2212;" horiz-adv-x="545" 
d="M20 313v125h505v-125h-505z" />
    <glyph glyph-name="approxequal" unicode="&#x2248;" horiz-adv-x="545" 
d="M386 399q-47 0 -120.5 41.5t-106.5 41.5q-34 0 -63 -13t-43.5 -27t-32.5 -36v133q59 61 138 61q47 0 123 -42t109 -42q34 0 62.5 14t40.5 26.5t32 37.5v-135q-60 -60 -139 -60zM386 149q-47 0 -120.5 41.5t-106.5 41.5q-34 0 -63 -13t-43.5 -27t-32.5 -36v133
q59 61 138 61q47 0 123 -42t109 -42q34 0 62.5 14t40.5 26.5t32 37.5v-135q-60 -60 -139 -60z" />
    <glyph glyph-name="notequal" unicode="&#x2260;" horiz-adv-x="545" 
d="M20 188v125h154l68 125h-222v125h289l30 54h130l-30 -54h86v-125h-153l-68 -125h221v-125h-289l-30 -55h-130l30 55h-86z" />
    <glyph glyph-name="lessequal" unicode="&#x2264;" horiz-adv-x="545" 
d="M20 0v125h505v-125h-505zM20 445v104l505 201v-135l-331 -118l331 -118v-132z" />
    <glyph glyph-name="greaterequal" unicode="&#x2265;" horiz-adv-x="545" 
d="M525 125v-125h-505v125h505zM525 549v-104l-505 -198v132l331 118l-331 118v135z" />
    <glyph glyph-name="commaaccent" unicode="&#xf6c3;" horiz-adv-x="303" 
d="M147 -199h-46l-32 94l83 60l82 -60l-26 -94q-12 -46 -36.5 -66t-70.5 -20v48q44 0 46 38z" />
    <glyph glyph-name="f_f" unicode="&#xfb00;" horiz-adv-x="966" 
d="M686 750l170 -152v-155l-174 154v-159h264v-125h-264v-313h-132v313h-266v-313h-132v313h-132v125h124l248 312h155l-247 -312h250v312h136z" />
    <glyph glyph-name="f_i" unicode="&#xfb01;" horiz-adv-x="940" 
d="M288 750l302 -162v-145l-306 160v-165h636v-125h-198v-188h198v-125h-528v125h198v188h-306v-313h-132v313h-132v125h132v312h136z" />
    <glyph glyph-name="f_l" unicode="&#xfb02;" horiz-adv-x="965" 
d="M152 313h-132v125h124l248 312h155l-247 -312h210v-125h-226v-313h-132v313zM550 0v750h132v-604l263 166v-144l-263 -168h-132z" />
    <glyph glyph-name="caron.salt" horiz-adv-x="303" 
d="M148 575h-49l-39 109l92 66l91 -66l-28 -96q-20 -70 -43 -93.5t-77 -25.5v53q49 0 53 53z" />
    <glyph glyph-name="caron.case" horiz-adv-x="395" 
d="M50 964l148 -96l147 96v-110l-93 -64h-109l-93 64v110z" />
    <glyph glyph-name="circumflex.case" horiz-adv-x="395" 
d="M198 865l-148 -96v110l93 64h109l93 -64v-110z" />
    <glyph glyph-name="acute.case" horiz-adv-x="364" 
d="M314 850l-102 -60h-162l264 179v-119z" />
    <glyph glyph-name="grave.case" horiz-adv-x="364" 
d="M152 790l-102 60v119l264 -179h-162z" />
    <glyph glyph-name="macron.case" horiz-adv-x="395" 
d="M50 811v95h295v-95h-295z" />
    <glyph glyph-name="breve.case" horiz-adv-x="405" 
d="M202 874q23 0 38 15.5t17 40.5h98q-2 -67 -44.5 -106.5t-108.5 -39.5t-108 39.5t-44 106.5h98q2 -25 16.5 -40.5t37.5 -15.5z" />
    <glyph glyph-name="ring.case" horiz-adv-x="322" 
d="M50 884q0 46 32.5 78.5t78.5 32.5t78.5 -32.5t32.5 -78.5t-32.5 -78.5t-78.5 -32.5t-78.5 32.5t-32.5 78.5zM122 884q0 -16 11 -27.5t28 -11.5t28 11.5t11 27.5t-11 27.5t-28 11.5t-28 -11.5t-11 -27.5z" />
    <glyph glyph-name="tilde.case" horiz-adv-x="395" 
d="M269 785q-25 0 -76 22.5t-69 22.5q-19 0 -34.5 -7t-22.5 -14.5t-17 -20.5v103q32 32 76 32q25 0 76 -22.5t69 -22.5q43 0 74 42v-103q-32 -32 -76 -32z" />
    <glyph glyph-name="dotaccent.case" horiz-adv-x="263" 
d="M181 936l32 -94l-82 -58l-81 58l31 94h100z" />
    <glyph glyph-name="hungarumlaut.case" horiz-adv-x="490" 
d="M266 849l-80 -59h-136l216 173v-114zM440 849l-84 -59h-136l220 173v-114z" />
    <glyph glyph-name="dieresis.case" horiz-adv-x="426" 
d="M181 936l32 -94l-82 -58l-81 58l31 94h100zM344 936l32 -94l-82 -58l-81 58l31 94h100z" />
    <glyph glyph-name="numbersign.salt" horiz-adv-x="545" 
d="M20 188v122h56v131h-56v122h56v54h127v-54h139v54h127v-54h56v-122h-56v-131h56v-122h-56v-55h-127v55h-139v-55h-127v55h-56zM203 441v-131h139v131h-139z" />
    <glyph glyph-name="interfinity" horiz-adv-x="495" 
d="M348 119l-39 -119h-126l-38 117l97 71q-63 1 -121.5 30.5t-58.5 83.5q0 47 47 91q-86 64 -86 158t65 154.5t158 60.5t158 -60.5t65 -154.5t-86 -158q47 -44 47 -91q0 -54 -59 -83.5t-121 -30.5zM246 647q-40 0 -68 -27.5t-28 -68.5t27.5 -68t68.5 -27t68.5 27t27.5 68
t-28 68.5t-68 27.5zM246 333q-30 0 -50.5 -21t-20.5 -51q0 -28 20 -47t51 -19t51 19t20 47q0 30 -20.5 51t-50.5 21z" />
    <glyph glyph-name="slash.salt" horiz-adv-x="480" 
d="M20 0l318 750h122l-318 -750h-122z" />
    <glyph glyph-name="backslash.salt" horiz-adv-x="480" 
d="M142 750l318 -750h-122l-318 750h122z" />
    <glyph glyph-name="KN&RP" horiz-adv-x="810" 
d="M770 362h-186l-10 -11l195 -20l-1 -7l-197 21l-5 -10l197 -41l-2 -7l-113 24q18 -6 21 -27l85 -27l-2 -7l-83 27q-4 -14 -7 -21l79 -35l-3 -6l-78 34q-2 -4 -2 -13q0 -7 6 -15l60 -34l-3 -6l-49 28q5 -10 5 -20q0 -7 -3 -13l29 -21l-4 -6l-29 21q-6 -5 -29 -12l38 -34
l-5 -5l-38 35q-2 -1 -8 -8.5t-11 -9.5l35 -39l-5 -5l-38 43q-15 0 -15 -23l29 -39l-6 -5l-26 36q-3 -15 -19 -21l18 -32l-6 -4l-19 34q-16 -2 -26.5 8t-10.5 24q0 12 7 21l-30 53q0 -11 -9 -20l60 -134l-6 -3l-59 132q-6 -6 -14 -7l44 -135l-7 -2l-43 136q-10 0 -18 5
l31 -149l-7 -2l-33 158q-9 9 -11.5 32.5t-10.5 38.5l14 -130q22 -7 24 -33q2 -23 -17 -31l4 -41h-6l-5 38h-7q-11 0 -20 6v-46h-7v53q-4 9 -23 22l-8 -73h-7l9 76q-14 7 -23 7l-17 -77l-6 1l16 77q-13 0 -27 -8l-19 -61l-7 2l17 53q-14 -11 -32 -8l-14 -33l-6 2l14 33
q-16 9 -17 25l-25 -44l-6 4l140 246l6 -3l-96 -170q14 2 26 20.5t18 22.5l32 72l6 -3l-28 -63q8 3 15 2l37 114l6 -2l-36 -113q10 -2 14 -5l12 60l7 -1l-13 -63q7 -4 12 -17l15 137l6 -1l-16 -148q8 -18 18 -22v111h7v-114q10 -4 21 -4l-15 138q-8 8 -9 21q-1 12 7.5 22.5
t22.5 11.5q7 1 16.5 -2t11.5 -3l-7 8l5 4l9 -10q1 0 8 10l-10 7l4 5l10 -7q5 8 9 11l-14 6l3 6l17 -7q3 1 7 3t6.5 3.5t4.5 3.5l-31 7l1 6l32 -7q1 10 -1 18h-30v6h28q-4 9 -5 16l-24 -5l-1 6l24 5q-3 8 0 17l-28 -12l-3 6l34 15q4 11 14 18l-2 3l97 55l-14 15l-134 -96
l-4 5l135 97q-3 9 -3 23l-90 -81l-4 5l97 87q8 24 32 30l38 34l5 -5l-31 -28q18 0 30 -12l21 15l4 -6l-20 -14q10 -13 10 -28l28 16l3 -6l-31 -18q0 -9 -6.5 -19.5t-7.5 -16.5l59 26l3 -6l-62 -27q1 -9 22 -18l51 16l2 -7l-45 -14q14 -8 18 -23l34 7l2 -7l-35 -7
q1 -23 -23 -30l63 7l1 -7l-171 -18l-8 -13h180v-6zM321 254l6 -4l-133 -182l-5 4l60 82q-9 -3 -18 -3t-13 1l-54 -60l-5 5l53 58q-8 5 -15 18l-60 -54l-5 5l62 56q0 2 -2 10.5t-4 12.5l-76 -54l-4 5l77 55q-7 12 -29 10l-66 -38l-3 6l52 30q-21 0 -36 11l-30 -13l-3 6l30 13
q-7 10 -7 27l-34 -11l-2 7l37 12q9 24 36 26q17 1 25 -7l116 37l2 -6l-113 -36q10 -12 24 -12l12 5q1 1 8 9.5t14.5 12.5t18.5 4q4 0 14 -2l79 35l3 -6l-74 -33q6 -3 9 -6l15 9l4 -6l-15 -9q2 -2 6 -7l60 42l4 -5l-61 -43q3 -6 3 -10l16 14l4 -5l-20 -18q-1 -10 -10 -28
l75 83l5 -4l-83 -92q-1 -6 -0.5 -14t0.5 -12zM266 354l1 -6l-224 -24l-1 7l153 16q-13 5 -19 15h-136v6h133q-3 8 -3 18l-128 13l1 7l128 -14q0 2 8 17l-131 27l2 7l132 -28l4 17l-129 41l2 7l127 -41q-1 11 -12 24l-104 46l3 7l93 -42q-5 7 -5 17q0 1 2 9l-76 43l3 6
l76 -43q6 10 18 15l-76 54l4 6l82 -59q22 0 30 -20l47 -35q25 0 34 -24l37 -27l-4 -5l-32 22q0 -8 -6 -18l33 -14l-3 -6l-35 15q-7 -8 -22 -8q-21 0 -22 -1l75 -16l-1 -6l-76 16v-11l18 -2l-1 -6l-17 2q0 -4 -3 -10h78v-6h-81q-4 -7 -11 -11zM227 558q-20 -6 -36 9.5
t-7 37.5l-25 28l5 5l25 -28q9 8 24 13l-25 35l6 4l27 -37q13 5 20 19l-20 35l6 4l18 -32q7 15 20 24l-10 22l6 3l10 -22q10 4 17 4q4 0 12 -2l-10 30l7 2l11 -35q27 -13 27 -41q0 -12 -7 -22l55 -171l-6 -2l-53 165q-6 -8 -15 -12l44 -100l-6 -3l-45 100q-1 -1 -5 -1.5
t-9 -1t-7 -0.5l86 -152l-6 -3l-87 154q-15 -2 -21 -6l74 -101l-6 -4l-73 100l-16 -14l122 -135l-5 -4zM409 505h-7v225h7v-107q8 14 23 17l9 87l7 -1l-9 -85q9 0 20 -7l18 88l7 -2l-19 -89q5 -3 13 -3q2 0 8 -2l28 86l7 -2l-28 -86q10 -5 15 -19l42 95l6 -3l-47 -106
q1 -8 -7 -16l-25 -55q0 -8 -1 -14q-5 -28 -31 -32l-11 -33l-6 2l10 32q-9 3 -16 10l-5 -40l-6 1l5 47q-3 6 -3 13q0 14 7 21l5 52q-10 6 -16 16v-90zM450 433l-6 3l140 247l6 -4zM462 423l-5 4l190 211l5 -5zM325 351l1 -6l-276 -58l-2 7zM400 446l-6 -1l-31 281l7 1z
M566 150q4 2 5 5.5t1.5 9.5t1.5 8l-75 83q-3 -2 -6 -6zM490 476l-6 4l133 182l6 -4zM380 502l-7 -1l-46 219l7 2zM540 139q2 2 5 3.5t7.5 2.5t6.5 2l-69 96q-3 -10 2 -20zM304 460l-4 -5l-168 151l5 5zM576 181q5 9 13 15l-70 63q-4 3 -13 0zM596 198q2 1 7.5 1t9.5 1.5
t6 5.5l-71 52q-4 -2 -15 -2zM622 212q3 13 -2 26l-57 33q-4 -6 -9 -10zM661 415l-61 -12v-6q0 -6 -1 -9l91 10q-18 0 -29 17zM554 443q10 0 15 -2l59 26q0 11 -4 19l-76 -43h6zM639 313l-74 15q-1 -3 -1 -11l49 -16q7 12 26 12zM627 459l-51 -22q6 -3 12 -10l39 12
q-1 10 0 20zM616 248q-10 16 -12 26l-36 16q0 -3 -2 -13zM592 421q5 -7 6 -12l52 11q-11 3 -20 13zM604 281q0 5 4 15l-44 14l3 -13zM225 492q0 -13 1 -20l24 -14q9 7 12 7zM445 569q-6 5 -13 7l-5 -42l12 8zM242 454l-15 9q4 -14 15 -9z" />
    </font>
</defs>
</svg>
